%TF.GenerationSoftware,KiCad,Pcbnew,9.0.2*%
%TF.CreationDate,2025-06-28T16:46:26+02:00*%
%TF.ProjectId,modern-keyboard-template,6d6f6465-726e-42d6-9b65-79626f617264,rev?*%
%TF.SameCoordinates,Original*%
%TF.FileFunction,Copper,L2,Bot*%
%TF.FilePolarity,Positive*%
%FSLAX46Y46*%
G04 Gerber Fmt 4.6, Leading zero omitted, Abs format (unit mm)*
G04 Created by KiCad (PCBNEW 9.0.2) date 2025-06-28 16:46:26*
%MOMM*%
%LPD*%
G01*
G04 APERTURE LIST*
G04 Aperture macros list*
%AMRoundRect*
0 Rectangle with rounded corners*
0 $1 Rounding radius*
0 $2 $3 $4 $5 $6 $7 $8 $9 X,Y pos of 4 corners*
0 Add a 4 corners polygon primitive as box body*
4,1,4,$2,$3,$4,$5,$6,$7,$8,$9,$2,$3,0*
0 Add four circle primitives for the rounded corners*
1,1,$1+$1,$2,$3*
1,1,$1+$1,$4,$5*
1,1,$1+$1,$6,$7*
1,1,$1+$1,$8,$9*
0 Add four rect primitives between the rounded corners*
20,1,$1+$1,$2,$3,$4,$5,0*
20,1,$1+$1,$4,$5,$6,$7,0*
20,1,$1+$1,$6,$7,$8,$9,0*
20,1,$1+$1,$8,$9,$2,$3,0*%
G04 Aperture macros list end*
%TA.AperFunction,ComponentPad*%
%ADD10R,1.700000X1.700000*%
%TD*%
%TA.AperFunction,ComponentPad*%
%ADD11O,1.700000X1.700000*%
%TD*%
%TA.AperFunction,SMDPad,CuDef*%
%ADD12RoundRect,0.140000X-0.219203X-0.021213X-0.021213X-0.219203X0.219203X0.021213X0.021213X0.219203X0*%
%TD*%
%TA.AperFunction,SMDPad,CuDef*%
%ADD13RoundRect,0.140000X-0.021213X0.219203X-0.219203X0.021213X0.021213X-0.219203X0.219203X-0.021213X0*%
%TD*%
%TA.AperFunction,SMDPad,CuDef*%
%ADD14RoundRect,0.075000X-0.415425X-0.521491X0.521491X0.415425X0.415425X0.521491X-0.521491X-0.415425X0*%
%TD*%
%TA.AperFunction,SMDPad,CuDef*%
%ADD15RoundRect,0.075000X0.415425X-0.521491X0.521491X-0.415425X-0.415425X0.521491X-0.521491X0.415425X0*%
%TD*%
%TA.AperFunction,SMDPad,CuDef*%
%ADD16RoundRect,0.140000X-0.170000X0.140000X-0.170000X-0.140000X0.170000X-0.140000X0.170000X0.140000X0*%
%TD*%
%TA.AperFunction,SMDPad,CuDef*%
%ADD17RoundRect,0.150000X0.587500X0.150000X-0.587500X0.150000X-0.587500X-0.150000X0.587500X-0.150000X0*%
%TD*%
%TA.AperFunction,SMDPad,CuDef*%
%ADD18RoundRect,0.140000X0.219203X0.021213X0.021213X0.219203X-0.219203X-0.021213X-0.021213X-0.219203X0*%
%TD*%
%TA.AperFunction,SMDPad,CuDef*%
%ADD19R,1.000000X1.700000*%
%TD*%
%TA.AperFunction,SMDPad,CuDef*%
%ADD20RoundRect,0.140000X0.170000X-0.140000X0.170000X0.140000X-0.170000X0.140000X-0.170000X-0.140000X0*%
%TD*%
%TA.AperFunction,SMDPad,CuDef*%
%ADD21RoundRect,0.135000X-0.185000X0.135000X-0.185000X-0.135000X0.185000X-0.135000X0.185000X0.135000X0*%
%TD*%
%TA.AperFunction,ComponentPad*%
%ADD22O,1.000000X2.100000*%
%TD*%
%TA.AperFunction,ComponentPad*%
%ADD23O,1.000000X1.600000*%
%TD*%
%TA.AperFunction,SMDPad,CuDef*%
%ADD24R,0.600000X1.450000*%
%TD*%
%TA.AperFunction,SMDPad,CuDef*%
%ADD25R,0.300000X1.450000*%
%TD*%
%TA.AperFunction,SMDPad,CuDef*%
%ADD26RoundRect,0.140000X-0.140000X-0.170000X0.140000X-0.170000X0.140000X0.170000X-0.140000X0.170000X0*%
%TD*%
%TA.AperFunction,SMDPad,CuDef*%
%ADD27RoundRect,0.250000X0.375000X0.625000X-0.375000X0.625000X-0.375000X-0.625000X0.375000X-0.625000X0*%
%TD*%
%TA.AperFunction,SMDPad,CuDef*%
%ADD28RoundRect,0.140000X0.140000X0.170000X-0.140000X0.170000X-0.140000X-0.170000X0.140000X-0.170000X0*%
%TD*%
%TA.AperFunction,SMDPad,CuDef*%
%ADD29RoundRect,0.135000X-0.135000X-0.185000X0.135000X-0.185000X0.135000X0.185000X-0.135000X0.185000X0*%
%TD*%
%TA.AperFunction,SMDPad,CuDef*%
%ADD30RoundRect,0.140000X0.021213X-0.219203X0.219203X-0.021213X-0.021213X0.219203X-0.219203X0.021213X0*%
%TD*%
%TA.AperFunction,SMDPad,CuDef*%
%ADD31RoundRect,0.175000X-0.175000X-0.325000X0.175000X-0.325000X0.175000X0.325000X-0.175000X0.325000X0*%
%TD*%
%TA.AperFunction,SMDPad,CuDef*%
%ADD32RoundRect,0.150000X-0.200000X-0.150000X0.200000X-0.150000X0.200000X0.150000X-0.200000X0.150000X0*%
%TD*%
%TA.AperFunction,SMDPad,CuDef*%
%ADD33RoundRect,0.100000X0.650000X0.100000X-0.650000X0.100000X-0.650000X-0.100000X0.650000X-0.100000X0*%
%TD*%
%TA.AperFunction,SMDPad,CuDef*%
%ADD34RoundRect,0.135000X0.135000X0.185000X-0.135000X0.185000X-0.135000X-0.185000X0.135000X-0.185000X0*%
%TD*%
%TA.AperFunction,SMDPad,CuDef*%
%ADD35RoundRect,0.225000X0.225000X0.250000X-0.225000X0.250000X-0.225000X-0.250000X0.225000X-0.250000X0*%
%TD*%
%TA.AperFunction,SMDPad,CuDef*%
%ADD36RoundRect,0.135000X0.185000X-0.135000X0.185000X0.135000X-0.185000X0.135000X-0.185000X-0.135000X0*%
%TD*%
%TA.AperFunction,ComponentPad*%
%ADD37C,2.200000*%
%TD*%
%TA.AperFunction,SMDPad,CuDef*%
%ADD38RoundRect,0.225000X0.375000X-0.225000X0.375000X0.225000X-0.375000X0.225000X-0.375000X-0.225000X0*%
%TD*%
%TA.AperFunction,ComponentPad*%
%ADD39C,1.700000*%
%TD*%
%TA.AperFunction,ViaPad*%
%ADD40C,0.800000*%
%TD*%
%TA.AperFunction,Conductor*%
%ADD41C,0.200000*%
%TD*%
%TA.AperFunction,Conductor*%
%ADD42C,0.400000*%
%TD*%
%TA.AperFunction,Conductor*%
%ADD43C,0.300000*%
%TD*%
%TA.AperFunction,Conductor*%
%ADD44C,0.250000*%
%TD*%
G04 APERTURE END LIST*
D10*
%TO.P,J2,1,Pin_1*%
%TO.N,GND*%
X459270000Y-29730000D03*
D11*
%TO.P,J2,2,Pin_2*%
%TO.N,SWCLK*%
X459270000Y-32270000D03*
%TO.P,J2,3,Pin_3*%
%TO.N,SWD*%
X459270000Y-34810000D03*
%TO.P,J2,4,Pin_4*%
%TO.N,NRST*%
X459270000Y-37350000D03*
%TO.P,J2,5,Pin_5*%
%TO.N,+3V3*%
X459270000Y-39890000D03*
%TD*%
D12*
%TO.P,C6,1*%
%TO.N,+3V3*%
X436343152Y-45408370D03*
%TO.P,C6,2*%
%TO.N,GND*%
X437021974Y-46087192D03*
%TD*%
D13*
%TO.P,C5,1*%
%TO.N,+3V3*%
X438436188Y-44701264D03*
%TO.P,C5,2*%
%TO.N,GND*%
X437757366Y-45380086D03*
%TD*%
D14*
%TO.P,U1,1,VBAT*%
%TO.N,+3V3*%
X436921212Y-43741366D03*
%TO.P,U1,2,PC13*%
%TO.N,/C13*%
X436567658Y-43387812D03*
%TO.P,U1,3,PC14*%
%TO.N,/C14*%
X436214105Y-43034259D03*
%TO.P,U1,4,PC15*%
%TO.N,/C15*%
X435860551Y-42680705D03*
%TO.P,U1,5,PF0*%
%TO.N,/F0*%
X435506998Y-42327152D03*
%TO.P,U1,6,PF1*%
%TO.N,/F1*%
X435153445Y-41973599D03*
%TO.P,U1,7,NRST*%
%TO.N,NRST*%
X434799891Y-41620045D03*
%TO.P,U1,8,VSSA*%
%TO.N,GND*%
X434446338Y-41266492D03*
%TO.P,U1,9,VDDA*%
%TO.N,+3V3*%
X434092785Y-40912939D03*
%TO.P,U1,10,PA0*%
%TO.N,/A0*%
X433739231Y-40559385D03*
%TO.P,U1,11,PA1*%
%TO.N,/A1*%
X433385678Y-40205832D03*
%TO.P,U1,12,PA2*%
%TO.N,/A2*%
X433032124Y-39852278D03*
D15*
%TO.P,U1,13,PA3*%
%TO.N,/A3*%
X433032124Y-37854702D03*
%TO.P,U1,14,PA4*%
%TO.N,/A4*%
X433385678Y-37501148D03*
%TO.P,U1,15,PA5*%
%TO.N,/A5*%
X433739231Y-37147595D03*
%TO.P,U1,16,PA6*%
%TO.N,/A6*%
X434092785Y-36794041D03*
%TO.P,U1,17,PA7*%
%TO.N,/A7*%
X434446338Y-36440488D03*
%TO.P,U1,18,PB0*%
%TO.N,/B0*%
X434799891Y-36086935D03*
%TO.P,U1,19,PB1*%
%TO.N,/B1*%
X435153445Y-35733381D03*
%TO.P,U1,20,PB2*%
%TO.N,/B2*%
X435506998Y-35379828D03*
%TO.P,U1,21,PB10*%
%TO.N,/B10*%
X435860551Y-35026275D03*
%TO.P,U1,22,PB11*%
%TO.N,RGB3.3*%
X436214105Y-34672721D03*
%TO.P,U1,23,VSS*%
%TO.N,GND*%
X436567658Y-34319168D03*
%TO.P,U1,24,VDD*%
%TO.N,+3V3*%
X436921212Y-33965614D03*
D14*
%TO.P,U1,25,PB12*%
%TO.N,/B12*%
X438918788Y-33965614D03*
%TO.P,U1,26,PB13*%
%TO.N,/B13*%
X439272342Y-34319168D03*
%TO.P,U1,27,PB14*%
%TO.N,/B14*%
X439625895Y-34672721D03*
%TO.P,U1,28,PB15*%
%TO.N,/B15*%
X439979449Y-35026275D03*
%TO.P,U1,29,PA8*%
%TO.N,/A8*%
X440333002Y-35379828D03*
%TO.P,U1,30,PA9*%
%TO.N,/A9*%
X440686555Y-35733381D03*
%TO.P,U1,31,PA10*%
%TO.N,/A10*%
X441040109Y-36086935D03*
%TO.P,U1,32,PA11*%
%TO.N,D-*%
X441393662Y-36440488D03*
%TO.P,U1,33,PA12*%
%TO.N,D+*%
X441747215Y-36794041D03*
%TO.P,U1,34,PA13*%
%TO.N,SWD*%
X442100769Y-37147595D03*
%TO.P,U1,35,VSS*%
%TO.N,GND*%
X442454322Y-37501148D03*
%TO.P,U1,36,VDDIO2*%
%TO.N,+3V3*%
X442807876Y-37854702D03*
D15*
%TO.P,U1,37,PA14*%
%TO.N,SWCLK*%
X442807876Y-39852278D03*
%TO.P,U1,38,PA15*%
%TO.N,/A15*%
X442454322Y-40205832D03*
%TO.P,U1,39,PB3*%
%TO.N,/B3*%
X442100769Y-40559385D03*
%TO.P,U1,40,PB4*%
%TO.N,/B4*%
X441747215Y-40912939D03*
%TO.P,U1,41,PB5*%
%TO.N,/B5*%
X441393662Y-41266492D03*
%TO.P,U1,42,PB6*%
%TO.N,/B6*%
X441040109Y-41620045D03*
%TO.P,U1,43,PB7*%
%TO.N,/B7*%
X440686555Y-41973599D03*
%TO.P,U1,44,BOOT0*%
%TO.N,BOOT0*%
X440333002Y-42327152D03*
%TO.P,U1,45,PB8*%
%TO.N,SCL*%
X439979449Y-42680705D03*
%TO.P,U1,46,PB9*%
%TO.N,SDA*%
X439625895Y-43034259D03*
%TO.P,U1,47,VSS*%
%TO.N,GND*%
X439272342Y-43387812D03*
%TO.P,U1,48,VDD*%
%TO.N,+3V3*%
X438918788Y-43741366D03*
%TD*%
D16*
%TO.P,C8,1*%
%TO.N,+5V*%
X452020000Y-37780000D03*
%TO.P,C8,2*%
%TO.N,GND*%
X452020000Y-38740000D03*
%TD*%
D17*
%TO.P,U3,1,GND*%
%TO.N,GND*%
X428408395Y-35805221D03*
%TO.P,U3,2,VO*%
%TO.N,+3V3*%
X428408395Y-37705221D03*
%TO.P,U3,3,VI*%
%TO.N,+5V*%
X426533395Y-36755221D03*
%TD*%
D18*
%TO.P,C1,1*%
%TO.N,NRST*%
X431718673Y-43593336D03*
%TO.P,C1,2*%
%TO.N,GND*%
X431039851Y-42914514D03*
%TD*%
D19*
%TO.P,BOOT1,1,A*%
%TO.N,+3V3*%
X461980000Y-54180000D03*
X461980000Y-47880000D03*
%TO.P,BOOT1,2,B*%
%TO.N,BOOT0*%
X458180000Y-54180000D03*
X458180000Y-47880000D03*
%TD*%
D20*
%TO.P,C9,1*%
%TO.N,+5V*%
X424975895Y-36752721D03*
%TO.P,C9,2*%
%TO.N,GND*%
X424975895Y-35792721D03*
%TD*%
D19*
%TO.P,RST1,1,A*%
%TO.N,NRST*%
X458260000Y-59140000D03*
X458260000Y-65440000D03*
%TO.P,RST1,2,B*%
%TO.N,GND*%
X462060000Y-59140000D03*
X462060000Y-65440000D03*
%TD*%
D21*
%TO.P,R4,1*%
%TO.N,Net-(R3-Pad2)*%
X459370000Y-45050000D03*
%TO.P,R4,2*%
%TO.N,GND*%
X459370000Y-46070000D03*
%TD*%
D22*
%TO.P,J1,S1,SHIELD*%
%TO.N,GND*%
X453830000Y-31940000D03*
D23*
X453830000Y-27760000D03*
D22*
X445190000Y-31940000D03*
D23*
X445190000Y-27760000D03*
D24*
%TO.P,J1,B12,GND*%
X446260000Y-32855000D03*
%TO.P,J1,B9,VBUS*%
%TO.N,VBUS*%
X447060000Y-32855000D03*
D25*
%TO.P,J1,B8,SBU2*%
%TO.N,unconnected-(J1-SBU2-PadB8)*%
X447760000Y-32855000D03*
%TO.P,J1,B7,D-*%
%TO.N,D-*%
X448760000Y-32855000D03*
%TO.P,J1,B6,D+*%
%TO.N,D+*%
X450260000Y-32855000D03*
%TO.P,J1,B5,CC2*%
%TO.N,Net-(J1-CC2)*%
X451260000Y-32855000D03*
D24*
%TO.P,J1,B4,VBUS*%
%TO.N,VBUS*%
X451960000Y-32855000D03*
%TO.P,J1,B1,GND*%
%TO.N,GND*%
X452760000Y-32855000D03*
%TO.P,J1,A12,GND*%
X452760000Y-32855000D03*
%TO.P,J1,A9,VBUS*%
%TO.N,VBUS*%
X451960000Y-32855000D03*
D25*
%TO.P,J1,A8,SBU1*%
%TO.N,unconnected-(J1-SBU1-PadA8)*%
X450760000Y-32855000D03*
%TO.P,J1,A7,D-*%
%TO.N,D-*%
X449760000Y-32855000D03*
%TO.P,J1,A6,D+*%
%TO.N,D+*%
X449260000Y-32855000D03*
%TO.P,J1,A5,CC1*%
%TO.N,Net-(J1-CC1)*%
X448260000Y-32855000D03*
D24*
%TO.P,J1,A4,VBUS*%
%TO.N,VBUS*%
X447060000Y-32855000D03*
%TO.P,J1,A1,GND*%
%TO.N,GND*%
X446260000Y-32855000D03*
%TD*%
D26*
%TO.P,C43,1*%
%TO.N,GND*%
X431710000Y-28050000D03*
%TO.P,C43,2*%
%TO.N,+3V3*%
X432670000Y-28050000D03*
%TD*%
D27*
%TO.P,F1,1*%
%TO.N,VBUS*%
X439700000Y-29390000D03*
%TO.P,F1,2*%
%TO.N,+5V*%
X436900000Y-29390000D03*
%TD*%
D28*
%TO.P,C10,1*%
%TO.N,+3V3*%
X428070000Y-39030000D03*
%TO.P,C10,2*%
%TO.N,GND*%
X427110000Y-39030000D03*
%TD*%
D29*
%TO.P,R2,1*%
%TO.N,Net-(J1-CC2)*%
X452000000Y-35567500D03*
%TO.P,R2,2*%
%TO.N,GND*%
X453020000Y-35567500D03*
%TD*%
D30*
%TO.P,C4,1*%
%TO.N,+3V3*%
X437403812Y-33005717D03*
%TO.P,C4,2*%
%TO.N,GND*%
X438082634Y-32326895D03*
%TD*%
D31*
%TO.P,U2,1,GND*%
%TO.N,GND*%
X448510000Y-37567500D03*
D32*
%TO.P,U2,2,I/O1*%
%TO.N,D-*%
X448510000Y-35867500D03*
%TO.P,U2,3,I/O2*%
%TO.N,D+*%
X450510000Y-35867500D03*
%TO.P,U2,4,VCC*%
%TO.N,+5V*%
X450510000Y-37767500D03*
%TD*%
D12*
%TO.P,C3,1*%
%TO.N,+3V3*%
X443767773Y-38337303D03*
%TO.P,C3,2*%
%TO.N,GND*%
X444446595Y-39016125D03*
%TD*%
D33*
%TO.P,U5,1,VCCA*%
%TO.N,+3V3*%
X431998628Y-29440000D03*
%TO.P,U5,2,GND*%
%TO.N,GND*%
X431998628Y-30090000D03*
%TO.P,U5,3,A*%
%TO.N,RGB3.3*%
X431998628Y-30740000D03*
%TO.P,U5,4,B*%
%TO.N,RGB5v*%
X429338628Y-30740000D03*
%TO.P,U5,5,OE*%
%TO.N,+3V3*%
X429338628Y-30090000D03*
%TO.P,U5,6,VCCB*%
%TO.N,+5V*%
X429338628Y-29440000D03*
%TD*%
D34*
%TO.P,R1,1*%
%TO.N,GND*%
X453980000Y-36797500D03*
%TO.P,R1,2*%
%TO.N,Net-(J1-CC1)*%
X452960000Y-36797500D03*
%TD*%
D12*
%TO.P,C7,1*%
%TO.N,+3V3*%
X431923735Y-42030630D03*
%TO.P,C7,2*%
%TO.N,GND*%
X432602557Y-42709452D03*
%TD*%
D35*
%TO.P,C2,1*%
%TO.N,+3V3*%
X428495895Y-40292721D03*
%TO.P,C2,2*%
%TO.N,GND*%
X426945895Y-40292721D03*
%TD*%
D26*
%TO.P,C44,1*%
%TO.N,+5V*%
X428718628Y-28060000D03*
%TO.P,C44,2*%
%TO.N,GND*%
X429678628Y-28060000D03*
%TD*%
D36*
%TO.P,R3,1*%
%TO.N,BOOT0*%
X458170000Y-46120000D03*
%TO.P,R3,2*%
%TO.N,Net-(R3-Pad2)*%
X458170000Y-45100000D03*
%TD*%
D37*
%TO.P,MX1,2,2*%
%TO.N,Net-(D1-A)*%
X31750000Y-35560000D03*
%TO.P,MX1,1,1*%
%TO.N,Row0*%
X38100000Y-38100000D03*
%TD*%
%TO.P,MX2,2,2*%
%TO.N,Net-(D2-A)*%
X69850000Y-35560000D03*
%TO.P,MX2,1,1*%
%TO.N,Net-(MX2-Pad1)*%
X76200000Y-38100000D03*
%TD*%
%TO.P,MX3,2,2*%
%TO.N,Net-(D3-A)*%
X88900000Y-35560000D03*
%TO.P,MX3,1,1*%
%TO.N,col1*%
X95250000Y-38100000D03*
%TD*%
%TO.P,MX4,2,2*%
%TO.N,Net-(D4-A)*%
X107950000Y-35560000D03*
%TO.P,MX4,1,1*%
%TO.N,col2*%
X114300000Y-38100000D03*
%TD*%
%TO.P,MX5,2,2*%
%TO.N,Net-(D5-A)*%
X127000000Y-35560000D03*
%TO.P,MX5,1,1*%
%TO.N,col3*%
X133350000Y-38100000D03*
%TD*%
%TO.P,MX6,2,2*%
%TO.N,Net-(D6-A)*%
X155575000Y-35560000D03*
%TO.P,MX6,1,1*%
%TO.N,col4*%
X161925000Y-38100000D03*
%TD*%
%TO.P,MX7,2,2*%
%TO.N,Net-(D7-A)*%
X174625000Y-35560000D03*
%TO.P,MX7,1,1*%
%TO.N,Net-(MX28-Pad1)*%
X180975000Y-38100000D03*
%TD*%
%TO.P,MX8,2,2*%
%TO.N,Net-(D8-A)*%
X193675000Y-35560000D03*
%TO.P,MX8,1,1*%
%TO.N,col5*%
X200025000Y-38100000D03*
%TD*%
%TO.P,MX9,2,2*%
%TO.N,Net-(D9-A)*%
X212725000Y-35560000D03*
%TO.P,MX9,1,1*%
%TO.N,col6*%
X219075000Y-38100000D03*
%TD*%
%TO.P,MX10,2,2*%
%TO.N,Net-(D10-A)*%
X241300000Y-35560000D03*
%TO.P,MX10,1,1*%
%TO.N,col7*%
X247650000Y-38100000D03*
%TD*%
%TO.P,MX11,2,2*%
%TO.N,Net-(D11-A)*%
X260350000Y-35560000D03*
%TO.P,MX11,1,1*%
%TO.N,col8*%
X266700000Y-38100000D03*
%TD*%
%TO.P,MX12,2,2*%
%TO.N,Net-(D12-A)*%
X279400000Y-35560000D03*
%TO.P,MX12,1,1*%
%TO.N,Net-(MX12-Pad1)*%
X285750000Y-38100000D03*
%TD*%
%TO.P,MX13,2,2*%
%TO.N,Net-(D13-A)*%
X298450000Y-35560000D03*
%TO.P,MX13,1,1*%
%TO.N,col9*%
X304800000Y-38100000D03*
%TD*%
%TO.P,MX14,2,2*%
%TO.N,Net-(D14-A)*%
X322262500Y-35560000D03*
%TO.P,MX14,1,1*%
%TO.N,col10*%
X328612500Y-38100000D03*
%TD*%
%TO.P,MX15,2,2*%
%TO.N,Net-(D15-A)*%
X341312500Y-35560000D03*
%TO.P,MX15,1,1*%
%TO.N,col11*%
X347662500Y-38100000D03*
%TD*%
%TO.P,MX16,2,2*%
%TO.N,Net-(D16-A)*%
X360362500Y-35560000D03*
%TO.P,MX16,1,1*%
%TO.N,col12*%
X366712500Y-38100000D03*
%TD*%
%TO.P,MX17,2,2*%
%TO.N,Net-(D17-A)*%
X31750000Y-64135000D03*
%TO.P,MX17,1,1*%
%TO.N,col13*%
X38100000Y-66675000D03*
%TD*%
%TO.P,MX18,2,2*%
%TO.N,Net-(D18-A)*%
X50800000Y-64135000D03*
%TO.P,MX18,1,1*%
%TO.N,col14*%
X57150000Y-66675000D03*
%TD*%
%TO.P,MX19,2,2*%
%TO.N,Net-(D19-A)*%
X69850000Y-64135000D03*
%TO.P,MX19,1,1*%
%TO.N,col15*%
X76200000Y-66675000D03*
%TD*%
%TO.P,MX20,2,2*%
%TO.N,Net-(D20-A)*%
X88900000Y-64135000D03*
%TO.P,MX20,1,1*%
%TO.N,col16*%
X95250000Y-66675000D03*
%TD*%
%TO.P,MX21,2,2*%
%TO.N,Net-(D21-A)*%
X107950000Y-64135000D03*
%TO.P,MX21,1,1*%
%TO.N,col17*%
X114300000Y-66675000D03*
%TD*%
%TO.P,MX22,2,2*%
%TO.N,Net-(D22-A)*%
X127000000Y-64135000D03*
%TO.P,MX22,1,1*%
%TO.N,Row0*%
X133350000Y-66675000D03*
%TD*%
%TO.P,MX23,2,2*%
%TO.N,Net-(D23-A)*%
X146050000Y-64135000D03*
%TO.P,MX23,1,1*%
%TO.N,Net-(MX2-Pad1)*%
X152400000Y-66675000D03*
%TD*%
%TO.P,MX24,2,2*%
%TO.N,Net-(D24-A)*%
X165100000Y-64135000D03*
%TO.P,MX24,1,1*%
%TO.N,col1*%
X171450000Y-66675000D03*
%TD*%
%TO.P,MX25,2,2*%
%TO.N,Net-(D25-A)*%
X184150000Y-64135000D03*
%TO.P,MX25,1,1*%
%TO.N,col2*%
X190500000Y-66675000D03*
%TD*%
%TO.P,MX26,2,2*%
%TO.N,Net-(D26-A)*%
X203200000Y-64135000D03*
%TO.P,MX26,1,1*%
%TO.N,col3*%
X209550000Y-66675000D03*
%TD*%
%TO.P,MX27,2,2*%
%TO.N,Net-(D27-A)*%
X222250000Y-64135000D03*
%TO.P,MX27,1,1*%
%TO.N,col4*%
X228600000Y-66675000D03*
%TD*%
%TO.P,MX28,2,2*%
%TO.N,Net-(D28-A)*%
X241300000Y-64135000D03*
%TO.P,MX28,1,1*%
%TO.N,Net-(MX28-Pad1)*%
X247650000Y-66675000D03*
%TD*%
%TO.P,MX29,2,2*%
%TO.N,Net-(D29-A)*%
X260350000Y-64135000D03*
%TO.P,MX29,1,1*%
%TO.N,col5*%
X266700000Y-66675000D03*
%TD*%
%TO.P,MX30,2,2*%
%TO.N,Net-(D30-A)*%
X288925000Y-64135000D03*
%TO.P,MX30,1,1*%
%TO.N,col6*%
X295275000Y-66675000D03*
%TD*%
%TO.P,MX31,2,2*%
%TO.N,Net-(D31-A)*%
X322262500Y-64135000D03*
%TO.P,MX31,1,1*%
%TO.N,col7*%
X328612500Y-66675000D03*
%TD*%
%TO.P,MX32,2,2*%
%TO.N,Net-(D32-A)*%
X341312500Y-64135000D03*
%TO.P,MX32,1,1*%
%TO.N,col8*%
X347662500Y-66675000D03*
%TD*%
%TO.P,MX33,2,2*%
%TO.N,Net-(D33-A)*%
X360362500Y-64135000D03*
%TO.P,MX33,1,1*%
%TO.N,Net-(MX12-Pad1)*%
X366712500Y-66675000D03*
%TD*%
%TO.P,MX34,2,2*%
%TO.N,Net-(D34-A)*%
X384175000Y-64135000D03*
%TO.P,MX34,1,1*%
%TO.N,col9*%
X390525000Y-66675000D03*
%TD*%
%TO.P,MX35,2,2*%
%TO.N,Net-(D35-A)*%
X403225000Y-64135000D03*
%TO.P,MX35,1,1*%
%TO.N,col10*%
X409575000Y-66675000D03*
%TD*%
%TO.P,MX36,2,2*%
%TO.N,Net-(D36-A)*%
X422275000Y-64135000D03*
%TO.P,MX36,1,1*%
%TO.N,col11*%
X428625000Y-66675000D03*
%TD*%
%TO.P,MX37,1,1*%
%TO.N,col12*%
X447675000Y-66675000D03*
%TO.P,MX37,2,2*%
%TO.N,Net-(D37-A)*%
X441325000Y-64135000D03*
%TD*%
%TO.P,MX38,2,2*%
%TO.N,Net-(D38-A)*%
X36512500Y-83185000D03*
%TO.P,MX38,1,1*%
%TO.N,col13*%
X42862500Y-85725000D03*
%TD*%
%TO.P,MX39,2,2*%
%TO.N,Net-(D39-A)*%
X60325000Y-83185000D03*
%TO.P,MX39,1,1*%
%TO.N,col14*%
X66675000Y-85725000D03*
%TD*%
%TO.P,MX40,2,2*%
%TO.N,Net-(D40-A)*%
X79375000Y-83185000D03*
%TO.P,MX40,1,1*%
%TO.N,col15*%
X85725000Y-85725000D03*
%TD*%
%TO.P,MX41,2,2*%
%TO.N,Net-(D41-A)*%
X98425000Y-83185000D03*
%TO.P,MX41,1,1*%
%TO.N,col16*%
X104775000Y-85725000D03*
%TD*%
%TO.P,MX42,2,2*%
%TO.N,Net-(D42-A)*%
X117475000Y-83185000D03*
%TO.P,MX42,1,1*%
%TO.N,col17*%
X123825000Y-85725000D03*
%TD*%
%TO.P,MX43,2,2*%
%TO.N,Net-(D43-A)*%
X136525000Y-83185000D03*
%TO.P,MX43,1,1*%
%TO.N,Row0*%
X142875000Y-85725000D03*
%TD*%
%TO.P,MX44,2,2*%
%TO.N,Net-(D44-A)*%
X155575000Y-83185000D03*
%TO.P,MX44,1,1*%
%TO.N,Net-(MX2-Pad1)*%
X161925000Y-85725000D03*
%TD*%
%TO.P,MX45,2,2*%
%TO.N,Net-(D45-A)*%
X174625000Y-83185000D03*
%TO.P,MX45,1,1*%
%TO.N,col1*%
X180975000Y-85725000D03*
%TD*%
%TO.P,MX46,2,2*%
%TO.N,Net-(D46-A)*%
X193675000Y-83185000D03*
%TO.P,MX46,1,1*%
%TO.N,col2*%
X200025000Y-85725000D03*
%TD*%
%TO.P,MX47,2,2*%
%TO.N,Net-(D47-A)*%
X212725000Y-83185000D03*
%TO.P,MX47,1,1*%
%TO.N,col3*%
X219075000Y-85725000D03*
%TD*%
%TO.P,MX48,2,2*%
%TO.N,Net-(D48-A)*%
X231775000Y-83185000D03*
%TO.P,MX48,1,1*%
%TO.N,col4*%
X238125000Y-85725000D03*
%TD*%
%TO.P,MX49,2,2*%
%TO.N,Net-(D49-A)*%
X250825000Y-83185000D03*
%TO.P,MX49,1,1*%
%TO.N,Net-(MX28-Pad1)*%
X257175000Y-85725000D03*
%TD*%
%TO.P,MX50,2,2*%
%TO.N,Net-(D50-A)*%
X269875000Y-83185000D03*
%TO.P,MX50,1,1*%
%TO.N,col5*%
X276225000Y-85725000D03*
%TD*%
%TO.P,MX51,2,2*%
%TO.N,Net-(D51-A)*%
X293687500Y-83185000D03*
%TO.P,MX51,1,1*%
%TO.N,col6*%
X300037500Y-85725000D03*
%TD*%
%TO.P,MX52,2,2*%
%TO.N,Net-(D52-A)*%
X322262500Y-83185000D03*
%TO.P,MX52,1,1*%
%TO.N,col7*%
X328612500Y-85725000D03*
%TD*%
%TO.P,MX53,2,2*%
%TO.N,Net-(D53-A)*%
X341312500Y-83185000D03*
%TO.P,MX53,1,1*%
%TO.N,col8*%
X347662500Y-85725000D03*
%TD*%
%TO.P,MX54,2,2*%
%TO.N,Net-(D54-A)*%
X360362500Y-83185000D03*
%TO.P,MX54,1,1*%
%TO.N,Net-(MX12-Pad1)*%
X366712500Y-85725000D03*
%TD*%
%TO.P,MX55,2,2*%
%TO.N,Net-(D55-A)*%
X384175000Y-83185000D03*
%TO.P,MX55,1,1*%
%TO.N,col9*%
X390525000Y-85725000D03*
%TD*%
%TO.P,MX56,2,2*%
%TO.N,Net-(D56-A)*%
X403225000Y-83185000D03*
%TO.P,MX56,1,1*%
%TO.N,col10*%
X409575000Y-85725000D03*
%TD*%
%TO.P,MX57,2,2*%
%TO.N,Net-(D57-A)*%
X422275000Y-83185000D03*
%TO.P,MX57,1,1*%
%TO.N,Row0*%
X428625000Y-85725000D03*
%TD*%
%TO.P,MX58,2,2*%
%TO.N,Net-(D58-A)*%
X441325000Y-92710000D03*
%TO.P,MX58,1,1*%
%TO.N,Net-(MX2-Pad1)*%
X447675000Y-95250000D03*
%TD*%
%TO.P,MX59,2,2*%
%TO.N,Net-(D59-A)*%
X34131250Y-102235000D03*
%TO.P,MX59,1,1*%
%TO.N,col1*%
X40481250Y-104775000D03*
%TD*%
%TO.P,MX60,2,2*%
%TO.N,Net-(D60-A)*%
X65087500Y-102235000D03*
%TO.P,MX60,1,1*%
%TO.N,col14*%
X71437500Y-104775000D03*
%TD*%
%TO.P,MX61,2,2*%
%TO.N,Net-(D61-A)*%
X84137500Y-102235000D03*
%TO.P,MX61,1,1*%
%TO.N,col15*%
X90487500Y-104775000D03*
%TD*%
%TO.P,MX62,2,2*%
%TO.N,Net-(D62-A)*%
X103187500Y-102235000D03*
%TO.P,MX62,1,1*%
%TO.N,col16*%
X109537500Y-104775000D03*
%TD*%
%TO.P,MX63,2,2*%
%TO.N,Net-(D63-A)*%
X122237500Y-102235000D03*
%TO.P,MX63,1,1*%
%TO.N,col17*%
X128587500Y-104775000D03*
%TD*%
%TO.P,MX64,2,2*%
%TO.N,Net-(D64-A)*%
X141287500Y-102235000D03*
%TO.P,MX64,1,1*%
%TO.N,col2*%
X147637500Y-104775000D03*
%TD*%
%TO.P,MX65,2,2*%
%TO.N,Net-(D65-A)*%
X160337500Y-102235000D03*
%TO.P,MX65,1,1*%
%TO.N,col3*%
X166687500Y-104775000D03*
%TD*%
%TO.P,MX66,2,2*%
%TO.N,Net-(D66-A)*%
X179387500Y-102235000D03*
%TO.P,MX66,1,1*%
%TO.N,col4*%
X185737500Y-104775000D03*
%TD*%
%TO.P,MX67,2,2*%
%TO.N,Net-(D67-A)*%
X198437500Y-102235000D03*
%TO.P,MX67,1,1*%
%TO.N,Net-(MX28-Pad1)*%
X204787500Y-104775000D03*
%TD*%
%TO.P,MX68,2,2*%
%TO.N,Net-(D68-A)*%
X217487500Y-102235000D03*
%TO.P,MX68,1,1*%
%TO.N,col5*%
X223837500Y-104775000D03*
%TD*%
%TO.P,MX69,2,2*%
%TO.N,Net-(D69-A)*%
X236537500Y-102235000D03*
%TO.P,MX69,1,1*%
%TO.N,col6*%
X242887500Y-104775000D03*
%TD*%
%TO.P,MX70,2,2*%
%TO.N,Net-(D70-A)*%
X255587500Y-102235000D03*
%TO.P,MX70,1,1*%
%TO.N,col7*%
X261937500Y-104775000D03*
%TD*%
%TO.P,MX71,2,2*%
%TO.N,Net-(D71-A)*%
X286543750Y-102235000D03*
%TO.P,MX71,1,1*%
%TO.N,col8*%
X292893750Y-104775000D03*
%TD*%
%TO.P,MX72,2,2*%
%TO.N,Net-(D72-A)*%
X384175000Y-102235000D03*
%TO.P,MX72,1,1*%
%TO.N,Net-(MX12-Pad1)*%
X390525000Y-104775000D03*
%TD*%
%TO.P,MX73,2,2*%
%TO.N,Net-(D73-A)*%
X403225000Y-102235000D03*
%TO.P,MX73,1,1*%
%TO.N,col9*%
X409575000Y-104775000D03*
%TD*%
%TO.P,MX74,2,2*%
%TO.N,Net-(D74-A)*%
X422275000Y-102235000D03*
%TO.P,MX74,1,1*%
%TO.N,col10*%
X428625000Y-104775000D03*
%TD*%
%TO.P,MX75,2,2*%
%TO.N,Net-(D75-A)*%
X43656250Y-121285000D03*
%TO.P,MX75,1,1*%
%TO.N,Row0*%
X50006250Y-123825000D03*
%TD*%
%TO.P,MX76,2,2*%
%TO.N,Net-(D76-A)*%
X74612500Y-121285000D03*
%TO.P,MX76,1,1*%
%TO.N,col12*%
X80962500Y-123825000D03*
%TD*%
%TO.P,MX77,2,2*%
%TO.N,Net-(D77-A)*%
X93662500Y-121285000D03*
%TO.P,MX77,1,1*%
%TO.N,Net-(MX2-Pad1)*%
X100012500Y-123825000D03*
%TD*%
%TO.P,MX78,2,2*%
%TO.N,Net-(D78-A)*%
X112712500Y-121285000D03*
%TO.P,MX78,1,1*%
%TO.N,col14*%
X119062500Y-123825000D03*
%TD*%
%TO.P,MX79,2,2*%
%TO.N,Net-(D79-A)*%
X131762500Y-121285000D03*
%TO.P,MX79,1,1*%
%TO.N,col15*%
X138112500Y-123825000D03*
%TD*%
%TO.P,MX80,2,2*%
%TO.N,Net-(D80-A)*%
X150812500Y-121285000D03*
%TO.P,MX80,1,1*%
%TO.N,col16*%
X157162500Y-123825000D03*
%TD*%
%TO.P,MX81,2,2*%
%TO.N,Net-(D81-A)*%
X169862500Y-121285000D03*
%TO.P,MX81,1,1*%
%TO.N,col17*%
X176212500Y-123825000D03*
%TD*%
%TO.P,MX82,2,2*%
%TO.N,Net-(D82-A)*%
X188912500Y-121285000D03*
%TO.P,MX82,1,1*%
%TO.N,col1*%
X195262500Y-123825000D03*
%TD*%
%TO.P,MX83,2,2*%
%TO.N,Net-(D83-A)*%
X207962500Y-121285000D03*
%TO.P,MX83,1,1*%
%TO.N,col2*%
X214312500Y-123825000D03*
%TD*%
%TO.P,MX84,2,2*%
%TO.N,Net-(D84-A)*%
X227012500Y-121285000D03*
%TO.P,MX84,1,1*%
%TO.N,col3*%
X233362500Y-123825000D03*
%TD*%
%TO.P,MX85,2,2*%
%TO.N,Net-(D85-A)*%
X246062500Y-121285000D03*
%TO.P,MX85,1,1*%
%TO.N,col4*%
X252412500Y-123825000D03*
%TD*%
%TO.P,MX86,2,2*%
%TO.N,Net-(D86-A)*%
X281781250Y-121285000D03*
%TO.P,MX86,1,1*%
%TO.N,Net-(MX28-Pad1)*%
X288131250Y-123825000D03*
%TD*%
%TO.P,MX87,2,2*%
%TO.N,Net-(D87-A)*%
X341312500Y-121285000D03*
%TO.P,MX87,1,1*%
%TO.N,col5*%
X347662500Y-123825000D03*
%TD*%
%TO.P,MX88,2,2*%
%TO.N,Net-(D88-A)*%
X384175000Y-121285000D03*
%TO.P,MX88,1,1*%
%TO.N,col6*%
X390525000Y-123825000D03*
%TD*%
%TO.P,MX89,2,2*%
%TO.N,Net-(D89-A)*%
X403225000Y-121285000D03*
%TO.P,MX89,1,1*%
%TO.N,col7*%
X409575000Y-123825000D03*
%TD*%
%TO.P,MX90,2,2*%
%TO.N,Net-(D90-A)*%
X422275000Y-121285000D03*
%TO.P,MX90,1,1*%
%TO.N,col8*%
X428625000Y-123825000D03*
%TD*%
%TO.P,MX91,2,2*%
%TO.N,Net-(D91-A)*%
X441325000Y-130810000D03*
%TO.P,MX91,1,1*%
%TO.N,Net-(MX12-Pad1)*%
X447675000Y-133350000D03*
%TD*%
%TO.P,MX92,2,2*%
%TO.N,Net-(D92-A)*%
X34131250Y-140335000D03*
%TO.P,MX92,1,1*%
%TO.N,col9*%
X40481250Y-142875000D03*
%TD*%
%TO.P,MX93,2,2*%
%TO.N,Net-(D93-A)*%
X57943750Y-140335000D03*
%TO.P,MX93,1,1*%
%TO.N,col10*%
X64293750Y-142875000D03*
%TD*%
%TO.P,MX94,2,2*%
%TO.N,Net-(D94-A)*%
X81756250Y-140335000D03*
%TO.P,MX94,1,1*%
%TO.N,col11*%
X88106250Y-142875000D03*
%TD*%
%TO.P,MX95,2,2*%
%TO.N,Net-(D95-A)*%
X153193750Y-140335000D03*
%TO.P,MX95,1,1*%
%TO.N,col12*%
X159543750Y-142875000D03*
%TD*%
%TO.P,MX96,2,2*%
%TO.N,Net-(D96-A)*%
X224631250Y-140335000D03*
%TO.P,MX96,1,1*%
%TO.N,col13*%
X230981250Y-142875000D03*
%TD*%
%TO.P,MX97,2,2*%
%TO.N,Net-(D97-A)*%
X248443750Y-140335000D03*
%TO.P,MX97,1,1*%
%TO.N,col14*%
X254793750Y-142875000D03*
%TD*%
%TO.P,MX98,2,2*%
%TO.N,Net-(D98-A)*%
X272256250Y-140335000D03*
%TO.P,MX98,1,1*%
%TO.N,col15*%
X278606250Y-142875000D03*
%TD*%
%TO.P,MX99,2,2*%
%TO.N,Net-(D99-A)*%
X296068750Y-140335000D03*
%TO.P,MX99,1,1*%
%TO.N,col16*%
X302418750Y-142875000D03*
%TD*%
%TO.P,MX100,2,2*%
%TO.N,Net-(D100-A)*%
X322262500Y-140335000D03*
%TO.P,MX100,1,1*%
%TO.N,col17*%
X328612500Y-142875000D03*
%TD*%
%TO.P,MX101,1,1*%
%TO.N,Row0*%
X347662500Y-142875000D03*
%TO.P,MX101,2,2*%
%TO.N,Net-(D101-A)*%
X341312500Y-140335000D03*
%TD*%
%TO.P,MX102,1,1*%
%TO.N,col1*%
X366712500Y-142875000D03*
%TO.P,MX102,2,2*%
%TO.N,Net-(D103-A)*%
X360362500Y-140335000D03*
%TD*%
%TO.P,MX103,1,1*%
%TO.N,col2*%
X400050000Y-142875000D03*
%TO.P,MX103,2,2*%
%TO.N,Net-(D104-A)*%
X393700000Y-140335000D03*
%TD*%
%TO.P,MX104,1,1*%
%TO.N,col3*%
X428625000Y-142875000D03*
%TO.P,MX104,2,2*%
%TO.N,Net-(D105-A)*%
X422275000Y-140335000D03*
%TD*%
D38*
%TO.P,D37,2,A*%
%TO.N,Net-(D37-A)*%
X452755000Y-68055000D03*
%TO.P,D37,1,K*%
%TO.N,Net-(D22-K)*%
X452755000Y-71355000D03*
%TD*%
%TO.P,D105,1,K*%
%TO.N,Net-(D101-K)*%
X433705000Y-147555000D03*
%TO.P,D105,2,A*%
%TO.N,Net-(D105-A)*%
X433705000Y-144255000D03*
%TD*%
%TO.P,D104,1,K*%
%TO.N,Net-(D101-K)*%
X405130000Y-147555000D03*
%TO.P,D104,2,A*%
%TO.N,Net-(D104-A)*%
X405130000Y-144255000D03*
%TD*%
%TO.P,D103,1,K*%
%TO.N,Net-(D101-K)*%
X371792500Y-147555000D03*
%TO.P,D103,2,A*%
%TO.N,Net-(D103-A)*%
X371792500Y-144255000D03*
%TD*%
%TO.P,D101,1,K*%
%TO.N,Net-(D101-K)*%
X352742500Y-147555000D03*
%TO.P,D101,2,A*%
%TO.N,Net-(D101-A)*%
X352742500Y-144255000D03*
%TD*%
%TO.P,D100,1,K*%
%TO.N,Net-(D100-K)*%
X333692500Y-147555000D03*
%TO.P,D100,2,A*%
%TO.N,Net-(D100-A)*%
X333692500Y-144255000D03*
%TD*%
%TO.P,D99,1,K*%
%TO.N,Net-(D100-K)*%
X307498750Y-147555000D03*
%TO.P,D99,2,A*%
%TO.N,Net-(D99-A)*%
X307498750Y-144255000D03*
%TD*%
%TO.P,D98,1,K*%
%TO.N,Net-(D100-K)*%
X283686250Y-147555000D03*
%TO.P,D98,2,A*%
%TO.N,Net-(D98-A)*%
X283686250Y-144255000D03*
%TD*%
%TO.P,D97,1,K*%
%TO.N,Net-(D100-K)*%
X259873750Y-147555000D03*
%TO.P,D97,2,A*%
%TO.N,Net-(D97-A)*%
X259873750Y-144255000D03*
%TD*%
%TO.P,D96,1,K*%
%TO.N,Net-(D100-K)*%
X236061250Y-147555000D03*
%TO.P,D96,2,A*%
%TO.N,Net-(D96-A)*%
X236061250Y-144255000D03*
%TD*%
%TO.P,D95,1,K*%
%TO.N,Net-(D100-K)*%
X164623750Y-147555000D03*
%TO.P,D95,2,A*%
%TO.N,Net-(D95-A)*%
X164623750Y-144255000D03*
%TD*%
%TO.P,D94,1,K*%
%TO.N,Net-(D100-K)*%
X93186250Y-147555000D03*
%TO.P,D94,2,A*%
%TO.N,Net-(D94-A)*%
X93186250Y-144255000D03*
%TD*%
%TO.P,D93,1,K*%
%TO.N,Net-(D100-K)*%
X69373750Y-147555000D03*
%TO.P,D93,2,A*%
%TO.N,Net-(D93-A)*%
X69373750Y-144255000D03*
%TD*%
%TO.P,D92,1,K*%
%TO.N,Net-(D100-K)*%
X45561250Y-147555000D03*
%TO.P,D92,2,A*%
%TO.N,Net-(D92-A)*%
X45561250Y-144255000D03*
%TD*%
%TO.P,D91,1,K*%
%TO.N,Net-(D100-K)*%
X452755000Y-138030000D03*
%TO.P,D91,2,A*%
%TO.N,Net-(D91-A)*%
X452755000Y-134730000D03*
%TD*%
%TO.P,D90,1,K*%
%TO.N,Net-(D100-K)*%
X433705000Y-128505000D03*
%TO.P,D90,2,A*%
%TO.N,Net-(D90-A)*%
X433705000Y-125205000D03*
%TD*%
%TO.P,D89,1,K*%
%TO.N,Net-(D100-K)*%
X414655000Y-128505000D03*
%TO.P,D89,2,A*%
%TO.N,Net-(D89-A)*%
X414655000Y-125205000D03*
%TD*%
%TO.P,D88,1,K*%
%TO.N,Net-(D100-K)*%
X395605000Y-128505000D03*
%TO.P,D88,2,A*%
%TO.N,Net-(D88-A)*%
X395605000Y-125205000D03*
%TD*%
%TO.P,D87,1,K*%
%TO.N,Net-(D100-K)*%
X352742500Y-128505000D03*
%TO.P,D87,2,A*%
%TO.N,Net-(D87-A)*%
X352742500Y-125205000D03*
%TD*%
%TO.P,D86,1,K*%
%TO.N,Net-(D100-K)*%
X293211250Y-128505000D03*
%TO.P,D86,2,A*%
%TO.N,Net-(D86-A)*%
X293211250Y-125205000D03*
%TD*%
%TO.P,D85,1,K*%
%TO.N,Net-(D100-K)*%
X257492500Y-128505000D03*
%TO.P,D85,2,A*%
%TO.N,Net-(D85-A)*%
X257492500Y-125205000D03*
%TD*%
%TO.P,D84,1,K*%
%TO.N,Net-(D100-K)*%
X238442500Y-128505000D03*
%TO.P,D84,2,A*%
%TO.N,Net-(D84-A)*%
X238442500Y-125205000D03*
%TD*%
%TO.P,D83,1,K*%
%TO.N,Net-(D100-K)*%
X219392500Y-128505000D03*
%TO.P,D83,2,A*%
%TO.N,Net-(D83-A)*%
X219392500Y-125205000D03*
%TD*%
%TO.P,D82,1,K*%
%TO.N,Net-(D100-K)*%
X200342500Y-128505000D03*
%TO.P,D82,2,A*%
%TO.N,Net-(D82-A)*%
X200342500Y-125205000D03*
%TD*%
%TO.P,D81,1,K*%
%TO.N,Net-(D57-K)*%
X181292500Y-128505000D03*
%TO.P,D81,2,A*%
%TO.N,Net-(D81-A)*%
X181292500Y-125205000D03*
%TD*%
%TO.P,D80,1,K*%
%TO.N,Net-(D57-K)*%
X162242500Y-128505000D03*
%TO.P,D80,2,A*%
%TO.N,Net-(D80-A)*%
X162242500Y-125205000D03*
%TD*%
%TO.P,D79,1,K*%
%TO.N,Net-(D57-K)*%
X143192500Y-128505000D03*
%TO.P,D79,2,A*%
%TO.N,Net-(D79-A)*%
X143192500Y-125205000D03*
%TD*%
%TO.P,D78,1,K*%
%TO.N,Net-(D57-K)*%
X124142500Y-128505000D03*
%TO.P,D78,2,A*%
%TO.N,Net-(D78-A)*%
X124142500Y-125205000D03*
%TD*%
%TO.P,D77,1,K*%
%TO.N,Net-(D100-K)*%
X105092500Y-128505000D03*
%TO.P,D77,2,A*%
%TO.N,Net-(D77-A)*%
X105092500Y-125205000D03*
%TD*%
%TO.P,D76,1,K*%
%TO.N,Net-(D57-K)*%
X86042500Y-128505000D03*
%TO.P,D76,2,A*%
%TO.N,Net-(D76-A)*%
X86042500Y-125205000D03*
%TD*%
%TO.P,D75,1,K*%
%TO.N,Net-(D100-K)*%
X55086250Y-128505000D03*
%TO.P,D75,2,A*%
%TO.N,Net-(D75-A)*%
X55086250Y-125205000D03*
%TD*%
%TO.P,D74,1,K*%
%TO.N,Net-(D57-K)*%
X433705000Y-109455000D03*
%TO.P,D74,2,A*%
%TO.N,Net-(D74-A)*%
X433705000Y-106155000D03*
%TD*%
%TO.P,D73,1,K*%
%TO.N,Net-(D57-K)*%
X414655000Y-109455000D03*
%TO.P,D73,2,A*%
%TO.N,Net-(D73-A)*%
X414655000Y-106155000D03*
%TD*%
%TO.P,D72,1,K*%
%TO.N,Net-(D57-K)*%
X395605000Y-109455000D03*
%TO.P,D72,2,A*%
%TO.N,Net-(D72-A)*%
X395605000Y-106155000D03*
%TD*%
%TO.P,D71,1,K*%
%TO.N,Net-(D57-K)*%
X297973750Y-109455000D03*
%TO.P,D71,2,A*%
%TO.N,Net-(D71-A)*%
X297973750Y-106155000D03*
%TD*%
%TO.P,D70,1,K*%
%TO.N,Net-(D57-K)*%
X267017500Y-109455000D03*
%TO.P,D70,2,A*%
%TO.N,Net-(D70-A)*%
X267017500Y-106155000D03*
%TD*%
%TO.P,D69,1,K*%
%TO.N,Net-(D57-K)*%
X247967500Y-109455000D03*
%TO.P,D69,2,A*%
%TO.N,Net-(D69-A)*%
X247967500Y-106155000D03*
%TD*%
%TO.P,D68,1,K*%
%TO.N,Net-(D57-K)*%
X228917500Y-109455000D03*
%TO.P,D68,2,A*%
%TO.N,Net-(D68-A)*%
X228917500Y-106155000D03*
%TD*%
%TO.P,D67,1,K*%
%TO.N,Net-(D57-K)*%
X209867500Y-109455000D03*
%TO.P,D67,2,A*%
%TO.N,Net-(D67-A)*%
X209867500Y-106155000D03*
%TD*%
%TO.P,D66,1,K*%
%TO.N,Net-(D57-K)*%
X190817500Y-109455000D03*
%TO.P,D66,2,A*%
%TO.N,Net-(D66-A)*%
X190817500Y-106155000D03*
%TD*%
%TO.P,D65,1,K*%
%TO.N,Net-(D57-K)*%
X171767500Y-109455000D03*
%TO.P,D65,2,A*%
%TO.N,Net-(D65-A)*%
X171767500Y-106155000D03*
%TD*%
%TO.P,D64,1,K*%
%TO.N,Net-(D57-K)*%
X152717500Y-109455000D03*
%TO.P,D64,2,A*%
%TO.N,Net-(D64-A)*%
X152717500Y-106155000D03*
%TD*%
%TO.P,D63,1,K*%
%TO.N,Net-(D43-K)*%
X133667500Y-109455000D03*
%TO.P,D63,2,A*%
%TO.N,Net-(D63-A)*%
X133667500Y-106155000D03*
%TD*%
%TO.P,D62,1,K*%
%TO.N,Net-(D43-K)*%
X114617500Y-109455000D03*
%TO.P,D62,2,A*%
%TO.N,Net-(D62-A)*%
X114617500Y-106155000D03*
%TD*%
%TO.P,D61,1,K*%
%TO.N,Net-(D43-K)*%
X95567500Y-109455000D03*
%TO.P,D61,2,A*%
%TO.N,Net-(D61-A)*%
X95567500Y-106155000D03*
%TD*%
%TO.P,D60,1,K*%
%TO.N,Net-(D43-K)*%
X76517500Y-109455000D03*
%TO.P,D60,2,A*%
%TO.N,Net-(D60-A)*%
X76517500Y-106155000D03*
%TD*%
%TO.P,D59,1,K*%
%TO.N,Net-(D57-K)*%
X45561250Y-109455000D03*
%TO.P,D59,2,A*%
%TO.N,Net-(D59-A)*%
X45561250Y-106155000D03*
%TD*%
%TO.P,D58,1,K*%
%TO.N,Net-(D57-K)*%
X452755000Y-99930000D03*
%TO.P,D58,2,A*%
%TO.N,Net-(D58-A)*%
X452755000Y-96630000D03*
%TD*%
%TO.P,D57,1,K*%
%TO.N,Net-(D57-K)*%
X433705000Y-90405000D03*
%TO.P,D57,2,A*%
%TO.N,Net-(D57-A)*%
X433705000Y-87105000D03*
%TD*%
%TO.P,D56,1,K*%
%TO.N,Net-(D43-K)*%
X414655000Y-90405000D03*
%TO.P,D56,2,A*%
%TO.N,Net-(D56-A)*%
X414655000Y-87105000D03*
%TD*%
%TO.P,D55,1,K*%
%TO.N,Net-(D43-K)*%
X395605000Y-90405000D03*
%TO.P,D55,2,A*%
%TO.N,Net-(D55-A)*%
X395605000Y-87105000D03*
%TD*%
%TO.P,D54,1,K*%
%TO.N,Net-(D43-K)*%
X371792500Y-90405000D03*
%TO.P,D54,2,A*%
%TO.N,Net-(D54-A)*%
X371792500Y-87105000D03*
%TD*%
%TO.P,D53,1,K*%
%TO.N,Net-(D43-K)*%
X352742500Y-90405000D03*
%TO.P,D53,2,A*%
%TO.N,Net-(D53-A)*%
X352742500Y-87105000D03*
%TD*%
%TO.P,D52,1,K*%
%TO.N,Net-(D43-K)*%
X333692500Y-90405000D03*
%TO.P,D52,2,A*%
%TO.N,Net-(D52-A)*%
X333692500Y-87105000D03*
%TD*%
%TO.P,D51,1,K*%
%TO.N,Net-(D43-K)*%
X305117500Y-90405000D03*
%TO.P,D51,2,A*%
%TO.N,Net-(D51-A)*%
X305117500Y-87105000D03*
%TD*%
%TO.P,D50,1,K*%
%TO.N,Net-(D43-K)*%
X281305000Y-90405000D03*
%TO.P,D50,2,A*%
%TO.N,Net-(D50-A)*%
X281305000Y-87105000D03*
%TD*%
%TO.P,D49,1,K*%
%TO.N,Net-(D43-K)*%
X262255000Y-90405000D03*
%TO.P,D49,2,A*%
%TO.N,Net-(D49-A)*%
X262255000Y-87105000D03*
%TD*%
%TO.P,D48,1,K*%
%TO.N,Net-(D43-K)*%
X243205000Y-90405000D03*
%TO.P,D48,2,A*%
%TO.N,Net-(D48-A)*%
X243205000Y-87105000D03*
%TD*%
%TO.P,D47,1,K*%
%TO.N,Net-(D43-K)*%
X224155000Y-90405000D03*
%TO.P,D47,2,A*%
%TO.N,Net-(D47-A)*%
X224155000Y-87105000D03*
%TD*%
%TO.P,D46,1,K*%
%TO.N,Net-(D43-K)*%
X205105000Y-90405000D03*
%TO.P,D46,2,A*%
%TO.N,Net-(D46-A)*%
X205105000Y-87105000D03*
%TD*%
%TO.P,D45,1,K*%
%TO.N,Net-(D43-K)*%
X186055000Y-90405000D03*
%TO.P,D45,2,A*%
%TO.N,Net-(D45-A)*%
X186055000Y-87105000D03*
%TD*%
%TO.P,D44,1,K*%
%TO.N,Net-(D43-K)*%
X167005000Y-90405000D03*
%TO.P,D44,2,A*%
%TO.N,Net-(D44-A)*%
X167005000Y-87105000D03*
%TD*%
%TO.P,D43,1,K*%
%TO.N,Net-(D43-K)*%
X147955000Y-90405000D03*
%TO.P,D43,2,A*%
%TO.N,Net-(D43-A)*%
X147955000Y-87105000D03*
%TD*%
%TO.P,D42,1,K*%
%TO.N,Net-(D22-K)*%
X128905000Y-90405000D03*
%TO.P,D42,2,A*%
%TO.N,Net-(D42-A)*%
X128905000Y-87105000D03*
%TD*%
%TO.P,D41,1,K*%
%TO.N,Net-(D22-K)*%
X109855000Y-90405000D03*
%TO.P,D41,2,A*%
%TO.N,Net-(D41-A)*%
X109855000Y-87105000D03*
%TD*%
%TO.P,D40,1,K*%
%TO.N,Net-(D22-K)*%
X90805000Y-90405000D03*
%TO.P,D40,2,A*%
%TO.N,Net-(D40-A)*%
X90805000Y-87105000D03*
%TD*%
%TO.P,D39,1,K*%
%TO.N,Net-(D22-K)*%
X71755000Y-90405000D03*
%TO.P,D39,2,A*%
%TO.N,Net-(D39-A)*%
X71755000Y-87105000D03*
%TD*%
%TO.P,D38,1,K*%
%TO.N,Net-(D22-K)*%
X47942500Y-90405000D03*
%TO.P,D38,2,A*%
%TO.N,Net-(D38-A)*%
X47942500Y-87105000D03*
%TD*%
%TO.P,D36,1,K*%
%TO.N,Net-(D22-K)*%
X433705000Y-71355000D03*
%TO.P,D36,2,A*%
%TO.N,Net-(D36-A)*%
X433705000Y-68055000D03*
%TD*%
%TO.P,D35,1,K*%
%TO.N,Net-(D22-K)*%
X414655000Y-71355000D03*
%TO.P,D35,2,A*%
%TO.N,Net-(D35-A)*%
X414655000Y-68055000D03*
%TD*%
%TO.P,D34,1,K*%
%TO.N,Net-(D22-K)*%
X395605000Y-71355000D03*
%TO.P,D34,2,A*%
%TO.N,Net-(D34-A)*%
X395605000Y-68055000D03*
%TD*%
%TO.P,D33,1,K*%
%TO.N,Net-(D22-K)*%
X371792500Y-71355000D03*
%TO.P,D33,2,A*%
%TO.N,Net-(D33-A)*%
X371792500Y-68055000D03*
%TD*%
%TO.P,D32,1,K*%
%TO.N,Net-(D22-K)*%
X352742500Y-71355000D03*
%TO.P,D32,2,A*%
%TO.N,Net-(D32-A)*%
X352742500Y-68055000D03*
%TD*%
%TO.P,D31,1,K*%
%TO.N,Net-(D22-K)*%
X333692500Y-71355000D03*
%TO.P,D31,2,A*%
%TO.N,Net-(D31-A)*%
X333692500Y-68055000D03*
%TD*%
%TO.P,D30,1,K*%
%TO.N,Net-(D22-K)*%
X300355000Y-71355000D03*
%TO.P,D30,2,A*%
%TO.N,Net-(D30-A)*%
X300355000Y-68055000D03*
%TD*%
%TO.P,D29,1,K*%
%TO.N,Net-(D22-K)*%
X271780000Y-71355000D03*
%TO.P,D29,2,A*%
%TO.N,Net-(D29-A)*%
X271780000Y-68055000D03*
%TD*%
%TO.P,D28,1,K*%
%TO.N,Net-(D22-K)*%
X252730000Y-71355000D03*
%TO.P,D28,2,A*%
%TO.N,Net-(D28-A)*%
X252730000Y-68055000D03*
%TD*%
%TO.P,D27,1,K*%
%TO.N,Net-(D22-K)*%
X233680000Y-71355000D03*
%TO.P,D27,2,A*%
%TO.N,Net-(D27-A)*%
X233680000Y-68055000D03*
%TD*%
%TO.P,D26,1,K*%
%TO.N,Net-(D22-K)*%
X214630000Y-71355000D03*
%TO.P,D26,2,A*%
%TO.N,Net-(D26-A)*%
X214630000Y-68055000D03*
%TD*%
%TO.P,D25,1,K*%
%TO.N,Net-(D22-K)*%
X195580000Y-71355000D03*
%TO.P,D25,2,A*%
%TO.N,Net-(D25-A)*%
X195580000Y-68055000D03*
%TD*%
%TO.P,D24,1,K*%
%TO.N,Net-(D22-K)*%
X176530000Y-71355000D03*
%TO.P,D24,2,A*%
%TO.N,Net-(D24-A)*%
X176530000Y-68055000D03*
%TD*%
%TO.P,D23,1,K*%
%TO.N,Net-(D22-K)*%
X157480000Y-71355000D03*
%TO.P,D23,2,A*%
%TO.N,Net-(D23-A)*%
X157480000Y-68055000D03*
%TD*%
%TO.P,D22,1,K*%
%TO.N,Net-(D22-K)*%
X138430000Y-71355000D03*
%TO.P,D22,2,A*%
%TO.N,Net-(D22-A)*%
X138430000Y-68055000D03*
%TD*%
%TO.P,D21,1,K*%
%TO.N,Net-(D1-K)*%
X119380000Y-71355000D03*
%TO.P,D21,2,A*%
%TO.N,Net-(D21-A)*%
X119380000Y-68055000D03*
%TD*%
%TO.P,D20,1,K*%
%TO.N,Net-(D1-K)*%
X100330000Y-71355000D03*
%TO.P,D20,2,A*%
%TO.N,Net-(D20-A)*%
X100330000Y-68055000D03*
%TD*%
%TO.P,D19,1,K*%
%TO.N,Net-(D1-K)*%
X81280000Y-71355000D03*
%TO.P,D19,2,A*%
%TO.N,Net-(D19-A)*%
X81280000Y-68055000D03*
%TD*%
%TO.P,D18,1,K*%
%TO.N,Net-(D1-K)*%
X62230000Y-71355000D03*
%TO.P,D18,2,A*%
%TO.N,Net-(D18-A)*%
X62230000Y-68055000D03*
%TD*%
%TO.P,D17,1,K*%
%TO.N,Net-(D1-K)*%
X43180000Y-71355000D03*
%TO.P,D17,2,A*%
%TO.N,Net-(D17-A)*%
X43180000Y-68055000D03*
%TD*%
%TO.P,D16,1,K*%
%TO.N,Net-(D1-K)*%
X371792500Y-42780000D03*
%TO.P,D16,2,A*%
%TO.N,Net-(D16-A)*%
X371792500Y-39480000D03*
%TD*%
%TO.P,D15,1,K*%
%TO.N,Net-(D1-K)*%
X352742500Y-42780000D03*
%TO.P,D15,2,A*%
%TO.N,Net-(D15-A)*%
X352742500Y-39480000D03*
%TD*%
%TO.P,D14,1,K*%
%TO.N,Net-(D1-K)*%
X333692500Y-42780000D03*
%TO.P,D14,2,A*%
%TO.N,Net-(D14-A)*%
X333692500Y-39480000D03*
%TD*%
%TO.P,D13,1,K*%
%TO.N,Net-(D1-K)*%
X309880000Y-42780000D03*
%TO.P,D13,2,A*%
%TO.N,Net-(D13-A)*%
X309880000Y-39480000D03*
%TD*%
%TO.P,D12,1,K*%
%TO.N,Net-(D1-K)*%
X290830000Y-42780000D03*
%TO.P,D12,2,A*%
%TO.N,Net-(D12-A)*%
X290830000Y-39480000D03*
%TD*%
%TO.P,D11,1,K*%
%TO.N,Net-(D1-K)*%
X271780000Y-42780000D03*
%TO.P,D11,2,A*%
%TO.N,Net-(D11-A)*%
X271780000Y-39480000D03*
%TD*%
%TO.P,D10,1,K*%
%TO.N,Net-(D1-K)*%
X252730000Y-42780000D03*
%TO.P,D10,2,A*%
%TO.N,Net-(D10-A)*%
X252730000Y-39480000D03*
%TD*%
%TO.P,D9,1,K*%
%TO.N,Net-(D1-K)*%
X224155000Y-42780000D03*
%TO.P,D9,2,A*%
%TO.N,Net-(D9-A)*%
X224155000Y-39480000D03*
%TD*%
%TO.P,D8,1,K*%
%TO.N,Net-(D1-K)*%
X205105000Y-42780000D03*
%TO.P,D8,2,A*%
%TO.N,Net-(D8-A)*%
X205105000Y-39480000D03*
%TD*%
%TO.P,D7,1,K*%
%TO.N,Net-(D1-K)*%
X186055000Y-42780000D03*
%TO.P,D7,2,A*%
%TO.N,Net-(D7-A)*%
X186055000Y-39480000D03*
%TD*%
%TO.P,D6,1,K*%
%TO.N,Net-(D1-K)*%
X167005000Y-42780000D03*
%TO.P,D6,2,A*%
%TO.N,Net-(D6-A)*%
X167005000Y-39480000D03*
%TD*%
%TO.P,D5,1,K*%
%TO.N,Net-(D1-K)*%
X138430000Y-42780000D03*
%TO.P,D5,2,A*%
%TO.N,Net-(D5-A)*%
X138430000Y-39480000D03*
%TD*%
%TO.P,D4,1,K*%
%TO.N,Net-(D1-K)*%
X119380000Y-42780000D03*
%TO.P,D4,2,A*%
%TO.N,Net-(D4-A)*%
X119380000Y-39480000D03*
%TD*%
%TO.P,D3,1,K*%
%TO.N,Net-(D1-K)*%
X100330000Y-42780000D03*
%TO.P,D3,2,A*%
%TO.N,Net-(D3-A)*%
X100330000Y-39480000D03*
%TD*%
%TO.P,D2,1,K*%
%TO.N,Net-(D1-K)*%
X81280000Y-42780000D03*
%TO.P,D2,2,A*%
%TO.N,Net-(D2-A)*%
X81280000Y-39480000D03*
%TD*%
%TO.P,D1,1,K*%
%TO.N,Net-(D1-K)*%
X43180000Y-42780000D03*
%TO.P,D1,2,A*%
%TO.N,Net-(D1-A)*%
X43180000Y-39480000D03*
%TD*%
D10*
%TO.P,J3,1,Pin_1*%
%TO.N,GND*%
X51450000Y-18770000D03*
D39*
%TO.P,J3,2,Pin_2*%
%TO.N,+5V*%
X53990000Y-18770000D03*
%TO.P,J3,3,Pin_3*%
%TO.N,SCL*%
X56530000Y-18770000D03*
%TO.P,J3,4,Pin_4*%
%TO.N,SDA*%
X59070000Y-18770000D03*
%TD*%
D40*
%TO.N,Net-(J1-CC1)*%
X448260000Y-34560000D03*
%TO.N,GND*%
X438803883Y-31605646D03*
X454010000Y-35607500D03*
X430155967Y-42021329D03*
%TO.N,Net-(J1-CC1)*%
X452010000Y-36817500D03*
%TO.N,+3V3*%
X431167130Y-41293009D03*
X438450330Y-33373413D03*
X443400077Y-39383820D03*
X437389670Y-44333568D03*
%TO.N,GND*%
X436329010Y-46808442D03*
%TD*%
D41*
%TO.N,col4*%
X226542000Y-68733000D02*
X228600000Y-66675000D01*
X148666686Y-68733000D02*
X226542000Y-68733000D01*
X123719686Y-43786000D02*
X148666686Y-68733000D01*
X80575264Y-43786000D02*
X123719686Y-43786000D01*
X80124000Y-43334736D02*
X80575264Y-43786000D01*
X80124000Y-42225264D02*
X80124000Y-43334736D01*
X84577264Y-37772000D02*
X80124000Y-42225264D01*
X93596686Y-37772000D02*
X84577264Y-37772000D01*
X94669686Y-36699000D02*
X93596686Y-37772000D01*
X95830314Y-36699000D02*
X94669686Y-36699000D01*
X101233314Y-42102000D02*
X95830314Y-36699000D01*
X157923000Y-42102000D02*
X101233314Y-42102000D01*
X161925000Y-38100000D02*
X157923000Y-42102000D01*
%TO.N,Row0*%
X61169879Y-72033000D02*
X49832253Y-83370626D01*
X127992000Y-72033000D02*
X61169879Y-72033000D01*
X133350000Y-66675000D02*
X127992000Y-72033000D01*
%TO.N,Net-(D1-K)*%
X45886126Y-45486126D02*
X45886126Y-68648874D01*
X45886126Y-68648874D02*
X43180000Y-71355000D01*
X43180000Y-42780000D02*
X45886126Y-45486126D01*
%TO.N,Row0*%
X38100000Y-38100000D02*
X38100000Y-38190000D01*
X55914250Y-125623874D02*
X55655124Y-125883000D01*
X55914250Y-123862527D02*
X55914250Y-125623874D01*
X44733250Y-112681527D02*
X55914250Y-123862527D01*
X44733250Y-109036126D02*
X44733250Y-112681527D01*
X55655124Y-125883000D02*
X52064250Y-125883000D01*
X47114500Y-106654876D02*
X44733250Y-109036126D01*
X49832253Y-87268373D02*
X47114500Y-89986126D01*
X52064250Y-125883000D02*
X50006250Y-123825000D01*
X49832253Y-83370626D02*
X49832253Y-87268373D01*
X47114500Y-89986126D02*
X47114500Y-106654876D01*
X42352000Y-75890373D02*
X49832253Y-83370626D01*
X42352000Y-70936126D02*
X42352000Y-75890373D01*
X45558126Y-67730000D02*
X42352000Y-70936126D01*
X45558126Y-60874440D02*
X45558126Y-67730000D01*
X38100000Y-53416314D02*
X45558126Y-60874440D01*
X38100000Y-38100000D02*
X38100000Y-53416314D01*
D42*
%TO.N,+3V3*%
X430538750Y-30090000D02*
X431188750Y-29440000D01*
X437389670Y-44333568D02*
X438068492Y-44333568D01*
X431167130Y-41293009D02*
X431167129Y-41293009D01*
D43*
X434092784Y-40912939D02*
X433147029Y-41858694D01*
D41*
%TO.N,NRST*%
X462780000Y-40860000D02*
X462780000Y-55330000D01*
D42*
%TO.N,+3V3*%
X428070000Y-39866826D02*
X428470895Y-40267721D01*
D43*
X438273553Y-43096131D02*
X437566446Y-43096131D01*
D42*
X431167129Y-41293009D02*
X430648628Y-40774508D01*
X428070000Y-39030000D02*
X428070000Y-38043616D01*
D43*
X436921212Y-33488318D02*
X437403812Y-33005717D01*
D41*
X431998628Y-29440000D02*
X432658628Y-28780000D01*
D42*
X437389670Y-44333568D02*
X437389670Y-44361852D01*
X428505895Y-40302721D02*
X428470895Y-40267721D01*
D43*
X438918788Y-44218663D02*
X438918788Y-43741366D01*
D42*
X438068492Y-44333568D02*
X438436188Y-44701263D01*
X443400077Y-38704998D02*
X443767773Y-38337302D01*
X428070000Y-38043616D02*
X428408395Y-37705221D01*
D44*
%TO.N,NRST*%
X456500000Y-51780000D02*
X456500000Y-64680000D01*
D42*
%TO.N,+3V3*%
X431909592Y-42016488D02*
X431890609Y-42016488D01*
X437389670Y-44361852D02*
X436343152Y-45408370D01*
X437403812Y-33005717D02*
X437771507Y-33373413D01*
D41*
%TO.N,BOOT0*%
X458180000Y-47880000D02*
X458180000Y-54180000D01*
X458170000Y-47870000D02*
X458180000Y-47880000D01*
D43*
%TO.N,+3V3*%
X433147029Y-41858694D02*
X432095670Y-41858694D01*
D41*
X461980000Y-42600000D02*
X459270000Y-39890000D01*
D43*
X438918788Y-43741366D02*
X438273553Y-43096131D01*
X438436188Y-44701263D02*
X438918788Y-44218663D01*
D42*
X428495895Y-40292721D02*
X430166842Y-40292721D01*
X430166842Y-40292721D02*
X431167130Y-41293009D01*
D41*
X431330172Y-29440000D02*
X431998628Y-29440000D01*
%TO.N,BOOT0*%
X458170000Y-46120000D02*
X458170000Y-47870000D01*
D43*
%TO.N,+3V3*%
X436343152Y-45408370D02*
X436343152Y-44319426D01*
D42*
X443400077Y-39383820D02*
X443400077Y-38704998D01*
D41*
%TO.N,BOOT0*%
X440333002Y-42327152D02*
X445885850Y-47880000D01*
D43*
%TO.N,+3V3*%
X442807875Y-37854702D02*
X443285173Y-37854702D01*
D44*
%TO.N,NRST*%
X431718673Y-43626461D02*
X436324212Y-48232000D01*
D41*
%TO.N,+3V3*%
X432658628Y-28780000D02*
X432658628Y-28140000D01*
X461980000Y-47880000D02*
X461980000Y-42600000D01*
D42*
X429338628Y-30090000D02*
X430538750Y-30090000D01*
D43*
X436343152Y-44319426D02*
X436921212Y-43741366D01*
D41*
X461980000Y-54180000D02*
X461980000Y-47880000D01*
D42*
X431188750Y-29440000D02*
X431998628Y-29440000D01*
D43*
X432095670Y-41858694D02*
X431923734Y-42030630D01*
D42*
X430648628Y-30571250D02*
X430167378Y-30090000D01*
X430648628Y-40774508D02*
X430648628Y-30571250D01*
D41*
X428470895Y-40267721D02*
X428495895Y-40292721D01*
D43*
X436921212Y-33965615D02*
X436921212Y-33488318D01*
D42*
X428070000Y-39030000D02*
X428070000Y-39866826D01*
D43*
X437566446Y-43096131D02*
X436921212Y-43741366D01*
D42*
X430167378Y-30090000D02*
X429338628Y-30090000D01*
D43*
X443285173Y-37854702D02*
X443767773Y-38337302D01*
D42*
X437771507Y-33373413D02*
X438450330Y-33373413D01*
X431890609Y-42016488D02*
X431167130Y-41293009D01*
D41*
%TO.N,BOOT0*%
X445885850Y-47880000D02*
X458180000Y-47880000D01*
D43*
%TO.N,GND*%
X444814291Y-38648429D02*
X444446595Y-39016125D01*
X438803883Y-45747781D02*
X438125061Y-45747781D01*
D41*
X431698628Y-27661372D02*
X431698628Y-28140000D01*
D43*
X441101980Y-38853490D02*
X437920000Y-38853490D01*
D42*
X452915000Y-32855000D02*
X453830000Y-31940000D01*
X431039851Y-42914513D02*
X431161787Y-42792577D01*
D41*
X462060000Y-65440000D02*
X462060000Y-59140000D01*
D43*
X435798680Y-33550189D02*
X435798680Y-33196636D01*
X437920000Y-38853490D02*
X437920000Y-42035471D01*
D42*
X431025709Y-42891070D02*
X430155967Y-42021329D01*
D43*
X433003378Y-42709452D02*
X432602557Y-42709452D01*
X436567658Y-34319168D02*
X437920000Y-35671510D01*
D44*
%TO.N,NRST*%
X457260000Y-65440000D02*
X458260000Y-65440000D01*
D41*
%TO.N,GND*%
X431998628Y-30090000D02*
X432990000Y-30090000D01*
D43*
X440041320Y-44156791D02*
X440041320Y-44510345D01*
D41*
X433478628Y-27691372D02*
X433078628Y-27291372D01*
D43*
X437036116Y-31959199D02*
X437714939Y-31959199D01*
D44*
%TO.N,NRST*%
X432826601Y-43593336D02*
X431718673Y-43593336D01*
X452952000Y-48232000D02*
X456500000Y-51780000D01*
X436324212Y-48232000D02*
X452952000Y-48232000D01*
X431718673Y-43593336D02*
X431718673Y-43626461D01*
D42*
%TO.N,GND*%
X453830000Y-31940000D02*
X456040000Y-29730000D01*
D43*
X437920000Y-35671510D02*
X437920000Y-38853490D01*
D41*
%TO.N,NRST*%
X462780000Y-55330000D02*
X458970000Y-59140000D01*
D43*
%TO.N,GND*%
X434446338Y-41266492D02*
X436859340Y-38853490D01*
D42*
X438082634Y-32326895D02*
X438803883Y-31605646D01*
D43*
X442454322Y-37501149D02*
X443223301Y-36732170D01*
X439272342Y-43387813D02*
X440041320Y-44156791D01*
D42*
X431161787Y-42792577D02*
X432519432Y-42792577D01*
D41*
%TO.N,NRST*%
X459270000Y-37350000D02*
X462780000Y-40860000D01*
X458260000Y-59140000D02*
X458260000Y-65440000D01*
D44*
X434799891Y-41620046D02*
X432826601Y-43593336D01*
X456500000Y-64680000D02*
X457260000Y-65440000D01*
D41*
%TO.N,GND*%
X432068628Y-27291372D02*
X431698628Y-27661372D01*
D43*
X444814291Y-37969607D02*
X444814291Y-38648429D01*
D42*
X454010000Y-35607500D02*
X454010000Y-36767500D01*
D41*
%TO.N,NRST*%
X458970000Y-59140000D02*
X458260000Y-59140000D01*
D43*
%TO.N,GND*%
X436567658Y-34319168D02*
X435798680Y-33550189D01*
D42*
X431025709Y-42900371D02*
X431025709Y-42891070D01*
X453830000Y-27760000D02*
X445190000Y-27760000D01*
X454010000Y-35607500D02*
X453060000Y-35607500D01*
D43*
X436859340Y-38853490D02*
X437920000Y-38853490D01*
D42*
X452760000Y-32855000D02*
X452915000Y-32855000D01*
D43*
X442454322Y-37501149D02*
X441101980Y-38853490D01*
X437714939Y-31959199D02*
X438082634Y-32326895D01*
D42*
X454010000Y-36767500D02*
X453980000Y-36797500D01*
D43*
X437920000Y-42035471D02*
X439272342Y-43387813D01*
X435798680Y-33196636D02*
X437036116Y-31959199D01*
X440041320Y-44510345D02*
X438803883Y-45747781D01*
X438125061Y-45747781D02*
X437757365Y-45380086D01*
D41*
%TO.N,+5V*%
X424978395Y-36755221D02*
X424975895Y-36752721D01*
D42*
%TO.N,VBUS*%
X450827680Y-30980000D02*
X451960000Y-32112320D01*
D43*
%TO.N,GND*%
X443576854Y-36732170D02*
X444814291Y-37969607D01*
D41*
%TO.N,SWCLK*%
X460690000Y-33690000D02*
X459270000Y-32270000D01*
D42*
%TO.N,VBUS*%
X439700000Y-30360000D02*
X439700000Y-29390000D01*
D43*
%TO.N,GND*%
X434446338Y-41266492D02*
X433003378Y-42709452D01*
D41*
%TO.N,SWD*%
X443735170Y-36355170D02*
X442893194Y-36355170D01*
%TO.N,D-*%
X446970000Y-35500000D02*
X442334150Y-35500000D01*
%TO.N,RGB3.3*%
X433610000Y-30740000D02*
X431998628Y-30740000D01*
D42*
%TO.N,VBUS*%
X443960000Y-34620000D02*
X439700000Y-30360000D01*
%TO.N,GND*%
X437021974Y-46087193D02*
X436329010Y-46808442D01*
D41*
%TO.N,+5V*%
X426533395Y-36755221D02*
X424978395Y-36755221D01*
D42*
%TO.N,GND*%
X446105000Y-32855000D02*
X446260000Y-32855000D01*
%TO.N,VBUS*%
X447060000Y-32855000D02*
X447060000Y-32150000D01*
D41*
%TO.N,GND*%
X433478628Y-29601372D02*
X433478628Y-27691372D01*
D42*
%TO.N,VBUS*%
X447060000Y-33980000D02*
X446420000Y-34620000D01*
D41*
%TO.N,D-*%
X448510000Y-35867500D02*
X449260000Y-35117500D01*
D42*
%TO.N,VBUS*%
X451960000Y-32112320D02*
X451960000Y-32855000D01*
D41*
%TO.N,D-*%
X448510000Y-35867500D02*
X447337500Y-35867500D01*
X442334150Y-35500000D02*
X441393662Y-36440488D01*
%TO.N,SWCLK*%
X442807875Y-39852279D02*
X443422995Y-40467398D01*
D43*
%TO.N,GND*%
X443223301Y-36732170D02*
X443576854Y-36732170D01*
D42*
X445190000Y-27760000D02*
X445190000Y-31940000D01*
D41*
%TO.N,+5V*%
X429338628Y-29440000D02*
X428718628Y-28820000D01*
%TO.N,SWCLK*%
X460690000Y-35270000D02*
X460690000Y-33690000D01*
D42*
%TO.N,GND*%
X437757365Y-45380086D02*
X437050259Y-46087193D01*
D41*
%TO.N,SWCLK*%
X459880000Y-36080000D02*
X460690000Y-35270000D01*
X458652196Y-36080000D02*
X459880000Y-36080000D01*
%TO.N,RGB3.3*%
X435421680Y-32551680D02*
X433610000Y-30740000D01*
X436214105Y-34672721D02*
X435421680Y-33880296D01*
%TO.N,GND*%
X432990000Y-30090000D02*
X433478628Y-29601372D01*
X433078628Y-27291372D02*
X432068628Y-27291372D01*
D42*
%TO.N,VBUS*%
X447060000Y-32855000D02*
X447060000Y-33980000D01*
%TO.N,+5V*%
X450510000Y-37767500D02*
X452007500Y-37767500D01*
D41*
%TO.N,SWD*%
X442893194Y-36355170D02*
X442100769Y-37147595D01*
D42*
%TO.N,GND*%
X432519432Y-42792577D02*
X432602557Y-42709452D01*
D41*
%TO.N,RGB3.3*%
X435421680Y-33880296D02*
X435421680Y-32551680D01*
D42*
%TO.N,VBUS*%
X448230000Y-30980000D02*
X450827680Y-30980000D01*
%TO.N,GND*%
X456040000Y-29730000D02*
X459270000Y-29730000D01*
D41*
%TO.N,SWCLK*%
X454264798Y-40467398D02*
X458652196Y-36080000D01*
D42*
%TO.N,GND*%
X445190000Y-31940000D02*
X446105000Y-32855000D01*
D41*
%TO.N,D-*%
X449260000Y-34060000D02*
X449010000Y-34060000D01*
D42*
%TO.N,GND*%
X453060000Y-35607500D02*
X453020000Y-35567500D01*
D41*
%TO.N,SWD*%
X454750000Y-39330000D02*
X446710000Y-39330000D01*
D42*
%TO.N,VBUS*%
X446420000Y-34620000D02*
X443960000Y-34620000D01*
D41*
%TO.N,D-*%
X447337500Y-35867500D02*
X446970000Y-35500000D01*
X449010000Y-34060000D02*
X448760000Y-33810000D01*
%TO.N,SWD*%
X459270000Y-34810000D02*
X454750000Y-39330000D01*
%TO.N,D-*%
X449510000Y-34060000D02*
X449260000Y-34060000D01*
%TO.N,SWCLK*%
X443422995Y-40467398D02*
X454264798Y-40467398D01*
%TO.N,D-*%
X449260000Y-35110000D02*
X449260000Y-34060000D01*
D42*
%TO.N,GND*%
X453830000Y-31940000D02*
X453830000Y-27760000D01*
D41*
%TO.N,+5V*%
X428718628Y-28820000D02*
X428718628Y-28180000D01*
%TO.N,SWD*%
X446710000Y-39330000D02*
X443735170Y-36355170D01*
D42*
%TO.N,VBUS*%
X447060000Y-32150000D02*
X448230000Y-30980000D01*
D41*
%TO.N,D-*%
X448760000Y-33810000D02*
X448760000Y-32855000D01*
%TO.N,D+*%
X446687000Y-35827000D02*
X447560500Y-36700500D01*
X449727000Y-36700500D02*
X450510000Y-35917500D01*
%TO.N,D-*%
X449760000Y-33810000D02*
X449510000Y-34060000D01*
D44*
%TO.N,Net-(J1-CC1)*%
X448260000Y-34560000D02*
X448260000Y-32855000D01*
D41*
%TO.N,D+*%
X449760000Y-35117500D02*
X450510000Y-35867500D01*
X441747215Y-36794041D02*
X442714256Y-35827000D01*
X449510000Y-31560000D02*
X449260000Y-31810000D01*
%TO.N,Net-(R3-Pad2)*%
X459370000Y-45050000D02*
X458220000Y-45050000D01*
D44*
%TO.N,Net-(J1-CC2)*%
X451497500Y-35567500D02*
X452000000Y-35567500D01*
D41*
%TO.N,D+*%
X449760000Y-34560000D02*
X449760000Y-35110000D01*
X450260000Y-31810000D02*
X450010000Y-31560000D01*
X450260000Y-34060000D02*
X449760000Y-34560000D01*
X449260000Y-31810000D02*
X449260000Y-32855000D01*
X450260000Y-32855000D02*
X450260000Y-34060000D01*
D44*
%TO.N,Net-(J1-CC2)*%
X451260000Y-35330000D02*
X451497500Y-35567500D01*
D41*
%TO.N,D+*%
X450010000Y-31560000D02*
X449510000Y-31560000D01*
%TO.N,Net-(R3-Pad2)*%
X458220000Y-45050000D02*
X458170000Y-45100000D01*
%TO.N,D-*%
X449760000Y-32855000D02*
X449760000Y-33810000D01*
%TO.N,D+*%
X447560500Y-36700500D02*
X449727000Y-36700500D01*
X449760000Y-34567500D02*
X449760000Y-35117500D01*
X450260000Y-32855000D02*
X450260000Y-31810000D01*
%TO.N,D-*%
X449260000Y-35117500D02*
X449260000Y-34067500D01*
D44*
%TO.N,Net-(J1-CC2)*%
X451260000Y-32855000D02*
X451260000Y-35330000D01*
D41*
%TO.N,D+*%
X442714256Y-35827000D02*
X446687000Y-35827000D01*
D44*
%TO.N,Net-(J1-CC1)*%
X452010000Y-36817500D02*
X452880000Y-36817500D01*
D41*
%TO.N,*%
X428360628Y-28536312D02*
X428360628Y-30328634D01*
X428210628Y-30828634D02*
X428210628Y-27733688D01*
X428360628Y-30328634D02*
X428360628Y-30978634D01*
X428360628Y-30978634D02*
X429373895Y-31991901D01*
X429373895Y-31991901D02*
X428210628Y-30828634D01*
X428210628Y-28386312D02*
X428360628Y-28536312D01*
X428210628Y-27733688D02*
X428210628Y-28386312D01*
%TO.N,Net-(D57-K)*%
X443230000Y-109455000D02*
X452755000Y-99930000D01*
X433705000Y-109455000D02*
X443230000Y-109455000D01*
X414655000Y-109455000D02*
X433705000Y-109455000D01*
X395605000Y-109455000D02*
X414655000Y-109455000D01*
X297973750Y-109455000D02*
X395605000Y-109455000D01*
X267017500Y-109455000D02*
X297973750Y-109455000D01*
X247967500Y-109455000D02*
X267017500Y-109455000D01*
X228917500Y-109455000D02*
X247967500Y-109455000D01*
X209867500Y-109455000D02*
X228917500Y-109455000D01*
X190817500Y-109455000D02*
X209867500Y-109455000D01*
X171767500Y-109455000D02*
X190817500Y-109455000D01*
X162242500Y-128505000D02*
X181292500Y-128505000D01*
X152717500Y-109455000D02*
X171767500Y-109455000D01*
X143192500Y-128505000D02*
X162242500Y-128505000D01*
X124142500Y-128505000D02*
X143192500Y-128505000D01*
X64611250Y-128505000D02*
X86042500Y-128505000D01*
X45561250Y-109455000D02*
X64611250Y-128505000D01*
%TO.N,Net-(D43-K)*%
X395605000Y-90405000D02*
X414655000Y-90405000D01*
X371792500Y-90405000D02*
X395605000Y-90405000D01*
X352742500Y-90405000D02*
X371792500Y-90405000D01*
X333692500Y-90405000D02*
X352742500Y-90405000D01*
X305117500Y-90405000D02*
X333692500Y-90405000D01*
X281305000Y-90405000D02*
X305117500Y-90405000D01*
X262255000Y-90405000D02*
X281305000Y-90405000D01*
X243205000Y-90405000D02*
X262255000Y-90405000D01*
X224155000Y-90405000D02*
X243205000Y-90405000D01*
X205105000Y-90405000D02*
X224155000Y-90405000D01*
X186055000Y-90405000D02*
X205105000Y-90405000D01*
X167005000Y-90405000D02*
X186055000Y-90405000D01*
X147955000Y-90405000D02*
X167005000Y-90405000D01*
X114617500Y-109455000D02*
X133667500Y-109455000D01*
X95567500Y-109455000D02*
X114617500Y-109455000D01*
X76517500Y-109455000D02*
X95567500Y-109455000D01*
%TO.N,Net-(D101-K)*%
X405130000Y-147555000D02*
X433705000Y-147555000D01*
X371792500Y-147555000D02*
X405130000Y-147555000D01*
X352742500Y-147555000D02*
X371792500Y-147555000D01*
%TO.N,Net-(D100-K)*%
X443230000Y-138030000D02*
X452755000Y-138030000D01*
X433705000Y-128505000D02*
X443230000Y-138030000D01*
X414655000Y-128505000D02*
X433705000Y-128505000D01*
X395605000Y-128505000D02*
X414655000Y-128505000D01*
X352742500Y-128505000D02*
X395605000Y-128505000D01*
X307498750Y-147555000D02*
X333692500Y-147555000D01*
X283686250Y-147555000D02*
X307498750Y-147555000D01*
X293211250Y-138030000D02*
X293211250Y-128505000D01*
X283686250Y-147555000D02*
X293211250Y-138030000D01*
X259873750Y-147555000D02*
X283686250Y-147555000D01*
X238442500Y-128505000D02*
X257492500Y-128505000D01*
X219392500Y-128505000D02*
X238442500Y-128505000D01*
X238442500Y-145173750D02*
X236061250Y-147555000D01*
X238442500Y-128505000D02*
X238442500Y-145173750D01*
X200342500Y-128505000D02*
X219392500Y-128505000D01*
X181292500Y-147555000D02*
X200342500Y-128505000D01*
X164623750Y-147555000D02*
X181292500Y-147555000D01*
X124142500Y-147555000D02*
X164623750Y-147555000D01*
X105092500Y-128505000D02*
X124142500Y-147555000D01*
X105092500Y-135648750D02*
X105092500Y-128505000D01*
X93186250Y-147555000D02*
X105092500Y-135648750D01*
X69373750Y-147555000D02*
X93186250Y-147555000D01*
X45561250Y-147555000D02*
X69373750Y-147555000D01*
X55086250Y-138030000D02*
X55086250Y-128505000D01*
X45561250Y-147555000D02*
X55086250Y-138030000D01*
%TO.N,Net-(D22-K)*%
X433705000Y-71355000D02*
X452755000Y-71355000D01*
X414655000Y-71355000D02*
X433705000Y-71355000D01*
X395605000Y-71355000D02*
X414655000Y-71355000D01*
X371792500Y-71355000D02*
X395605000Y-71355000D01*
X352742500Y-71355000D02*
X371792500Y-71355000D01*
X333692500Y-71355000D02*
X352742500Y-71355000D01*
X300355000Y-71355000D02*
X333692500Y-71355000D01*
X271780000Y-71355000D02*
X300355000Y-71355000D01*
X252730000Y-71355000D02*
X271780000Y-71355000D01*
X233680000Y-71355000D02*
X252730000Y-71355000D01*
X214630000Y-71355000D02*
X233680000Y-71355000D01*
X195580000Y-71355000D02*
X214630000Y-71355000D01*
X176530000Y-71355000D02*
X195580000Y-71355000D01*
X157480000Y-71355000D02*
X176530000Y-71355000D01*
X138430000Y-71355000D02*
X157480000Y-71355000D01*
X109855000Y-90405000D02*
X128905000Y-90405000D01*
X90805000Y-90405000D02*
X109855000Y-90405000D01*
X71755000Y-90405000D02*
X90805000Y-90405000D01*
X47942500Y-90405000D02*
X71755000Y-90405000D01*
%TO.N,Net-(D1-K)*%
X352742500Y-42780000D02*
X371792500Y-42780000D01*
X333692500Y-42780000D02*
X352742500Y-42780000D01*
X309880000Y-42780000D02*
X333692500Y-42780000D01*
X290830000Y-42780000D02*
X309880000Y-42780000D01*
X271780000Y-42780000D02*
X290830000Y-42780000D01*
X252730000Y-42780000D02*
X271780000Y-42780000D01*
X224155000Y-42780000D02*
X252730000Y-42780000D01*
X205105000Y-42780000D02*
X224155000Y-42780000D01*
X186055000Y-42780000D02*
X205105000Y-42780000D01*
X167005000Y-42780000D02*
X186055000Y-42780000D01*
X138430000Y-42780000D02*
X167005000Y-42780000D01*
X119380000Y-42780000D02*
X138430000Y-42780000D01*
X100330000Y-71355000D02*
X119380000Y-71355000D01*
X100330000Y-42780000D02*
X119380000Y-42780000D01*
X81280000Y-71355000D02*
X100330000Y-71355000D01*
X81280000Y-42780000D02*
X100330000Y-42780000D01*
X62230000Y-71355000D02*
X81280000Y-71355000D01*
X43180000Y-71355000D02*
X62230000Y-71355000D01*
%TO.N,Net-(D105-A)*%
X429785000Y-140335000D02*
X433705000Y-144255000D01*
X422275000Y-140335000D02*
X429785000Y-140335000D01*
%TO.N,Net-(D104-A)*%
X401210000Y-140335000D02*
X405130000Y-144255000D01*
X393700000Y-140335000D02*
X401210000Y-140335000D01*
%TO.N,Net-(D103-A)*%
X367872500Y-140335000D02*
X371792500Y-144255000D01*
X360362500Y-140335000D02*
X367872500Y-140335000D01*
%TO.N,Net-(D101-A)*%
X348822500Y-140335000D02*
X352742500Y-144255000D01*
X341312500Y-140335000D02*
X348822500Y-140335000D01*
%TO.N,Net-(D100-A)*%
X329772500Y-140335000D02*
X333692500Y-144255000D01*
X322262500Y-140335000D02*
X329772500Y-140335000D01*
%TO.N,Net-(D99-A)*%
X303578750Y-140335000D02*
X307498750Y-144255000D01*
X296068750Y-140335000D02*
X303578750Y-140335000D01*
%TO.N,Net-(D98-A)*%
X279766250Y-140335000D02*
X283686250Y-144255000D01*
X272256250Y-140335000D02*
X279766250Y-140335000D01*
%TO.N,Net-(D97-A)*%
X255953750Y-140335000D02*
X259873750Y-144255000D01*
X248443750Y-140335000D02*
X255953750Y-140335000D01*
%TO.N,Net-(D96-A)*%
X232141250Y-140335000D02*
X236061250Y-144255000D01*
X224631250Y-140335000D02*
X232141250Y-140335000D01*
%TO.N,Net-(D95-A)*%
X160703750Y-140335000D02*
X164623750Y-144255000D01*
X153193750Y-140335000D02*
X160703750Y-140335000D01*
%TO.N,Net-(D94-A)*%
X89266250Y-140335000D02*
X93186250Y-144255000D01*
X81756250Y-140335000D02*
X89266250Y-140335000D01*
%TO.N,Net-(D93-A)*%
X65453750Y-140335000D02*
X69373750Y-144255000D01*
X57943750Y-140335000D02*
X65453750Y-140335000D01*
%TO.N,Net-(D92-A)*%
X41641250Y-140335000D02*
X45561250Y-144255000D01*
X34131250Y-140335000D02*
X41641250Y-140335000D01*
%TO.N,Net-(D91-A)*%
X448835000Y-130810000D02*
X452755000Y-134730000D01*
X441325000Y-130810000D02*
X448835000Y-130810000D01*
%TO.N,Net-(D90-A)*%
X429785000Y-121285000D02*
X433705000Y-125205000D01*
X422275000Y-121285000D02*
X429785000Y-121285000D01*
%TO.N,Net-(D89-A)*%
X410735000Y-121285000D02*
X414655000Y-125205000D01*
X403225000Y-121285000D02*
X410735000Y-121285000D01*
%TO.N,Net-(D88-A)*%
X391685000Y-121285000D02*
X395605000Y-125205000D01*
X384175000Y-121285000D02*
X391685000Y-121285000D01*
%TO.N,Net-(D87-A)*%
X348822500Y-121285000D02*
X352742500Y-125205000D01*
X341312500Y-121285000D02*
X348822500Y-121285000D01*
%TO.N,Net-(D86-A)*%
X289291250Y-121285000D02*
X293211250Y-125205000D01*
X281781250Y-121285000D02*
X289291250Y-121285000D01*
%TO.N,Net-(D85-A)*%
X253572500Y-121285000D02*
X257492500Y-125205000D01*
X246062500Y-121285000D02*
X253572500Y-121285000D01*
%TO.N,Net-(D84-A)*%
X234522500Y-121285000D02*
X238442500Y-125205000D01*
X227012500Y-121285000D02*
X234522500Y-121285000D01*
%TO.N,Net-(D83-A)*%
X215472500Y-121285000D02*
X219392500Y-125205000D01*
X207962500Y-121285000D02*
X215472500Y-121285000D01*
%TO.N,Net-(D82-A)*%
X196422500Y-121285000D02*
X200342500Y-125205000D01*
X188912500Y-121285000D02*
X196422500Y-121285000D01*
%TO.N,Net-(D81-A)*%
X177372500Y-121285000D02*
X181292500Y-125205000D01*
X169862500Y-121285000D02*
X177372500Y-121285000D01*
%TO.N,Net-(D80-A)*%
X158322500Y-121285000D02*
X162242500Y-125205000D01*
X150812500Y-121285000D02*
X158322500Y-121285000D01*
%TO.N,Net-(D79-A)*%
X139272500Y-121285000D02*
X143192500Y-125205000D01*
X131762500Y-121285000D02*
X139272500Y-121285000D01*
%TO.N,Net-(D78-A)*%
X120222500Y-121285000D02*
X124142500Y-125205000D01*
X112712500Y-121285000D02*
X120222500Y-121285000D01*
%TO.N,Net-(D77-A)*%
X101172500Y-121285000D02*
X105092500Y-125205000D01*
X93662500Y-121285000D02*
X101172500Y-121285000D01*
%TO.N,Net-(D76-A)*%
X82122500Y-121285000D02*
X86042500Y-125205000D01*
X74612500Y-121285000D02*
X82122500Y-121285000D01*
%TO.N,Net-(D75-A)*%
X51166250Y-121285000D02*
X55086250Y-125205000D01*
X43656250Y-121285000D02*
X51166250Y-121285000D01*
%TO.N,Net-(D74-A)*%
X429785000Y-102235000D02*
X433705000Y-106155000D01*
X422275000Y-102235000D02*
X429785000Y-102235000D01*
%TO.N,Net-(D73-A)*%
X410735000Y-102235000D02*
X414655000Y-106155000D01*
X403225000Y-102235000D02*
X410735000Y-102235000D01*
%TO.N,Net-(D72-A)*%
X391685000Y-102235000D02*
X395605000Y-106155000D01*
X384175000Y-102235000D02*
X391685000Y-102235000D01*
%TO.N,Net-(D71-A)*%
X294053750Y-102235000D02*
X297973750Y-106155000D01*
X286543750Y-102235000D02*
X294053750Y-102235000D01*
%TO.N,Net-(D70-A)*%
X263097500Y-102235000D02*
X267017500Y-106155000D01*
X255587500Y-102235000D02*
X263097500Y-102235000D01*
%TO.N,Net-(D69-A)*%
X244047500Y-102235000D02*
X247967500Y-106155000D01*
X236537500Y-102235000D02*
X244047500Y-102235000D01*
%TO.N,Net-(D68-A)*%
X224997500Y-102235000D02*
X228917500Y-106155000D01*
X217487500Y-102235000D02*
X224997500Y-102235000D01*
%TO.N,Net-(D67-A)*%
X205947500Y-102235000D02*
X209867500Y-106155000D01*
X198437500Y-102235000D02*
X205947500Y-102235000D01*
%TO.N,Net-(D66-A)*%
X186897500Y-102235000D02*
X190817500Y-106155000D01*
X179387500Y-102235000D02*
X186897500Y-102235000D01*
%TO.N,Net-(D65-A)*%
X167847500Y-102235000D02*
X171767500Y-106155000D01*
X160337500Y-102235000D02*
X167847500Y-102235000D01*
%TO.N,Net-(D64-A)*%
X148797500Y-102235000D02*
X152717500Y-106155000D01*
X141287500Y-102235000D02*
X148797500Y-102235000D01*
%TO.N,Net-(D63-A)*%
X129747500Y-102235000D02*
X133667500Y-106155000D01*
X122237500Y-102235000D02*
X129747500Y-102235000D01*
%TO.N,Net-(D62-A)*%
X110697500Y-102235000D02*
X114617500Y-106155000D01*
X103187500Y-102235000D02*
X110697500Y-102235000D01*
%TO.N,Net-(D61-A)*%
X91647500Y-102235000D02*
X95567500Y-106155000D01*
X84137500Y-102235000D02*
X91647500Y-102235000D01*
%TO.N,Net-(D60-A)*%
X72597500Y-102235000D02*
X76517500Y-106155000D01*
X65087500Y-102235000D02*
X72597500Y-102235000D01*
%TO.N,Net-(D59-A)*%
X41641250Y-102235000D02*
X45561250Y-106155000D01*
X34131250Y-102235000D02*
X41641250Y-102235000D01*
%TO.N,Net-(D58-A)*%
X448835000Y-92710000D02*
X452755000Y-96630000D01*
X441325000Y-92710000D02*
X448835000Y-92710000D01*
%TO.N,Net-(D57-A)*%
X429785000Y-83185000D02*
X433705000Y-87105000D01*
X422275000Y-83185000D02*
X429785000Y-83185000D01*
%TO.N,Net-(D56-A)*%
X410735000Y-83185000D02*
X414655000Y-87105000D01*
X403225000Y-83185000D02*
X410735000Y-83185000D01*
%TO.N,Net-(D55-A)*%
X391685000Y-83185000D02*
X395605000Y-87105000D01*
X384175000Y-83185000D02*
X391685000Y-83185000D01*
%TO.N,Net-(D54-A)*%
X367872500Y-83185000D02*
X371792500Y-87105000D01*
X360362500Y-83185000D02*
X367872500Y-83185000D01*
%TO.N,Net-(D53-A)*%
X348822500Y-83185000D02*
X352742500Y-87105000D01*
X341312500Y-83185000D02*
X348822500Y-83185000D01*
%TO.N,Net-(D52-A)*%
X329772500Y-83185000D02*
X333692500Y-87105000D01*
X322262500Y-83185000D02*
X329772500Y-83185000D01*
%TO.N,Net-(D51-A)*%
X301197500Y-83185000D02*
X305117500Y-87105000D01*
X293687500Y-83185000D02*
X301197500Y-83185000D01*
%TO.N,Net-(D50-A)*%
X277385000Y-83185000D02*
X281305000Y-87105000D01*
X269875000Y-83185000D02*
X277385000Y-83185000D01*
%TO.N,Net-(D49-A)*%
X258335000Y-83185000D02*
X262255000Y-87105000D01*
X250825000Y-83185000D02*
X258335000Y-83185000D01*
%TO.N,Net-(D48-A)*%
X239285000Y-83185000D02*
X243205000Y-87105000D01*
X231775000Y-83185000D02*
X239285000Y-83185000D01*
%TO.N,Net-(D47-A)*%
X220235000Y-83185000D02*
X224155000Y-87105000D01*
X212725000Y-83185000D02*
X220235000Y-83185000D01*
%TO.N,Net-(D46-A)*%
X201185000Y-83185000D02*
X205105000Y-87105000D01*
X193675000Y-83185000D02*
X201185000Y-83185000D01*
%TO.N,Net-(D45-A)*%
X182135000Y-83185000D02*
X186055000Y-87105000D01*
X174625000Y-83185000D02*
X182135000Y-83185000D01*
%TO.N,Net-(D44-A)*%
X163085000Y-83185000D02*
X167005000Y-87105000D01*
X155575000Y-83185000D02*
X163085000Y-83185000D01*
%TO.N,Net-(D43-A)*%
X144035000Y-83185000D02*
X147955000Y-87105000D01*
X136525000Y-83185000D02*
X144035000Y-83185000D01*
%TO.N,Net-(D42-A)*%
X124985000Y-83185000D02*
X128905000Y-87105000D01*
X117475000Y-83185000D02*
X124985000Y-83185000D01*
%TO.N,Net-(D41-A)*%
X105935000Y-83185000D02*
X109855000Y-87105000D01*
X98425000Y-83185000D02*
X105935000Y-83185000D01*
%TO.N,Net-(D40-A)*%
X86885000Y-83185000D02*
X90805000Y-87105000D01*
X79375000Y-83185000D02*
X86885000Y-83185000D01*
%TO.N,Net-(D39-A)*%
X67835000Y-83185000D02*
X71755000Y-87105000D01*
X60325000Y-83185000D02*
X67835000Y-83185000D01*
%TO.N,Net-(D38-A)*%
X44022500Y-83185000D02*
X47942500Y-87105000D01*
X36512500Y-83185000D02*
X44022500Y-83185000D01*
%TO.N,Net-(D37-A)*%
X448835000Y-64135000D02*
X452755000Y-68055000D01*
X441325000Y-64135000D02*
X448835000Y-64135000D01*
%TO.N,Net-(D36-A)*%
X429785000Y-64135000D02*
X433705000Y-68055000D01*
X422275000Y-64135000D02*
X429785000Y-64135000D01*
%TO.N,Net-(D35-A)*%
X410735000Y-64135000D02*
X414655000Y-68055000D01*
X403225000Y-64135000D02*
X410735000Y-64135000D01*
%TO.N,Net-(D34-A)*%
X391685000Y-64135000D02*
X395605000Y-68055000D01*
X384175000Y-64135000D02*
X391685000Y-64135000D01*
%TO.N,Net-(D33-A)*%
X367872500Y-64135000D02*
X371792500Y-68055000D01*
X360362500Y-64135000D02*
X367872500Y-64135000D01*
%TO.N,Net-(D32-A)*%
X348822500Y-64135000D02*
X352742500Y-68055000D01*
X341312500Y-64135000D02*
X348822500Y-64135000D01*
%TO.N,Net-(D31-A)*%
X329772500Y-64135000D02*
X333692500Y-68055000D01*
X322262500Y-64135000D02*
X329772500Y-64135000D01*
%TO.N,Net-(D30-A)*%
X296435000Y-64135000D02*
X300355000Y-68055000D01*
X288925000Y-64135000D02*
X296435000Y-64135000D01*
%TO.N,Net-(D29-A)*%
X267860000Y-64135000D02*
X271780000Y-68055000D01*
X260350000Y-64135000D02*
X267860000Y-64135000D01*
%TO.N,Net-(D28-A)*%
X248810000Y-64135000D02*
X252730000Y-68055000D01*
X241300000Y-64135000D02*
X248810000Y-64135000D01*
%TO.N,Net-(D27-A)*%
X229760000Y-64135000D02*
X233680000Y-68055000D01*
X222250000Y-64135000D02*
X229760000Y-64135000D01*
%TO.N,Net-(D26-A)*%
X210710000Y-64135000D02*
X214630000Y-68055000D01*
X203200000Y-64135000D02*
X210710000Y-64135000D01*
%TO.N,Net-(D25-A)*%
X191660000Y-64135000D02*
X195580000Y-68055000D01*
X184150000Y-64135000D02*
X191660000Y-64135000D01*
%TO.N,Net-(D24-A)*%
X172610000Y-64135000D02*
X176530000Y-68055000D01*
X165100000Y-64135000D02*
X172610000Y-64135000D01*
%TO.N,Net-(D23-A)*%
X153560000Y-64135000D02*
X157480000Y-68055000D01*
X146050000Y-64135000D02*
X153560000Y-64135000D01*
%TO.N,Net-(D22-A)*%
X134510000Y-64135000D02*
X138430000Y-68055000D01*
X127000000Y-64135000D02*
X134510000Y-64135000D01*
%TO.N,Net-(D21-A)*%
X115460000Y-64135000D02*
X119380000Y-68055000D01*
X107950000Y-64135000D02*
X115460000Y-64135000D01*
%TO.N,Net-(D20-A)*%
X96410000Y-64135000D02*
X100330000Y-68055000D01*
X88900000Y-64135000D02*
X96410000Y-64135000D01*
%TO.N,Net-(D19-A)*%
X77360000Y-64135000D02*
X81280000Y-68055000D01*
X69850000Y-64135000D02*
X77360000Y-64135000D01*
%TO.N,Net-(D18-A)*%
X58310000Y-64135000D02*
X62230000Y-68055000D01*
X50800000Y-64135000D02*
X58310000Y-64135000D01*
%TO.N,Net-(D17-A)*%
X39260000Y-64135000D02*
X43180000Y-68055000D01*
X31750000Y-64135000D02*
X39260000Y-64135000D01*
%TO.N,Net-(D16-A)*%
X367872500Y-35560000D02*
X371792500Y-39480000D01*
X360362500Y-35560000D02*
X367872500Y-35560000D01*
%TO.N,Net-(D15-A)*%
X348822500Y-35560000D02*
X352742500Y-39480000D01*
X341312500Y-35560000D02*
X348822500Y-35560000D01*
%TO.N,Net-(D14-A)*%
X329772500Y-35560000D02*
X333692500Y-39480000D01*
X322262500Y-35560000D02*
X329772500Y-35560000D01*
%TO.N,Net-(D13-A)*%
X305960000Y-35560000D02*
X309880000Y-39480000D01*
X298450000Y-35560000D02*
X305960000Y-35560000D01*
%TO.N,Net-(D12-A)*%
X286910000Y-35560000D02*
X290830000Y-39480000D01*
X279400000Y-35560000D02*
X286910000Y-35560000D01*
%TO.N,Net-(D11-A)*%
X267860000Y-35560000D02*
X271780000Y-39480000D01*
X260350000Y-35560000D02*
X267860000Y-35560000D01*
%TO.N,Net-(D10-A)*%
X248810000Y-35560000D02*
X252730000Y-39480000D01*
X241300000Y-35560000D02*
X248810000Y-35560000D01*
%TO.N,Net-(D9-A)*%
X220235000Y-35560000D02*
X224155000Y-39480000D01*
X212725000Y-35560000D02*
X220235000Y-35560000D01*
%TO.N,Net-(D8-A)*%
X201185000Y-35560000D02*
X205105000Y-39480000D01*
X193675000Y-35560000D02*
X201185000Y-35560000D01*
%TO.N,Net-(D7-A)*%
X182135000Y-35560000D02*
X186055000Y-39480000D01*
X174625000Y-35560000D02*
X182135000Y-35560000D01*
%TO.N,Net-(D6-A)*%
X163085000Y-35560000D02*
X167005000Y-39480000D01*
X155575000Y-35560000D02*
X163085000Y-35560000D01*
%TO.N,Net-(D5-A)*%
X134510000Y-35560000D02*
X138430000Y-39480000D01*
X127000000Y-35560000D02*
X134510000Y-35560000D01*
%TO.N,Net-(D4-A)*%
X115460000Y-35560000D02*
X119380000Y-39480000D01*
X107950000Y-35560000D02*
X115460000Y-35560000D01*
%TO.N,Net-(D3-A)*%
X96410000Y-35560000D02*
X100330000Y-39480000D01*
X88900000Y-35560000D02*
X96410000Y-35560000D01*
%TO.N,Net-(D2-A)*%
X77360000Y-35560000D02*
X81280000Y-39480000D01*
X69850000Y-35560000D02*
X77360000Y-35560000D01*
%TO.N,Net-(D1-A)*%
X39260000Y-35560000D02*
X43180000Y-39480000D01*
X31750000Y-35560000D02*
X39260000Y-35560000D01*
%TO.N,Net-(MX12-Pad1)*%
X449733000Y-135408000D02*
X447675000Y-133350000D01*
X453323874Y-135408000D02*
X449733000Y-135408000D01*
X453583000Y-135148874D02*
X453323874Y-135408000D01*
X453583000Y-66712527D02*
X453583000Y-135148874D01*
X282562527Y-30337000D02*
X417207473Y-30337000D01*
X277999000Y-34900527D02*
X282562527Y-30337000D01*
X277999000Y-36140314D02*
X277999000Y-34900527D01*
X279958686Y-38100000D02*
X277999000Y-36140314D01*
X417207473Y-30337000D02*
X453583000Y-66712527D01*
X285750000Y-38100000D02*
X279958686Y-38100000D01*
%TO.N,col9*%
X297049000Y-36140314D02*
X299008686Y-38100000D01*
X297049000Y-34900527D02*
X297049000Y-36140314D01*
X301284527Y-30665000D02*
X297049000Y-34900527D01*
X303235473Y-30665000D02*
X301284527Y-30665000D01*
X310090159Y-37519686D02*
X303235473Y-30665000D01*
X327211500Y-37519686D02*
X310090159Y-37519686D01*
X328032186Y-36699000D02*
X327211500Y-37519686D01*
X329192814Y-36699000D02*
X328032186Y-36699000D01*
X377837862Y-41774000D02*
X334267814Y-41774000D01*
X402410862Y-66347000D02*
X377837862Y-41774000D01*
X407921686Y-66347000D02*
X402410862Y-66347000D01*
X408994686Y-65274000D02*
X407921686Y-66347000D01*
X410155314Y-65274000D02*
X408994686Y-65274000D01*
X410976000Y-66094686D02*
X410155314Y-65274000D01*
X334267814Y-41774000D02*
X329192814Y-36699000D01*
X410976000Y-67255314D02*
X410976000Y-66094686D01*
X410155314Y-68076000D02*
X410976000Y-67255314D01*
X403212138Y-68076000D02*
X410155314Y-68076000D01*
X299008686Y-38100000D02*
X304800000Y-38100000D01*
X377566138Y-42430000D02*
X403212138Y-68076000D01*
X377566138Y-61666138D02*
X377566138Y-42430000D01*
X382575000Y-66675000D02*
X377566138Y-61666138D01*
X390525000Y-66675000D02*
X382575000Y-66675000D01*
%TO.N,col10*%
X377702000Y-42102000D02*
X332614500Y-42102000D01*
X332614500Y-42102000D02*
X328612500Y-38100000D01*
X402275000Y-66675000D02*
X377702000Y-42102000D01*
X409575000Y-66675000D02*
X402275000Y-66675000D01*
%TO.N,col11*%
X350102500Y-40540000D02*
X347662500Y-38100000D01*
X389310473Y-40540000D02*
X350102500Y-40540000D01*
X415445473Y-66675000D02*
X389310473Y-40540000D01*
X428625000Y-66675000D02*
X415445473Y-66675000D01*
%TO.N,col12*%
X368770500Y-40158000D02*
X366712500Y-38100000D01*
X415366686Y-40158000D02*
X368770500Y-40158000D01*
X441883686Y-66675000D02*
X415366686Y-40158000D01*
X447675000Y-66675000D02*
X441883686Y-66675000D01*
%TO.N,Net-(D37-A)*%
X448835000Y-64135000D02*
X452755000Y-68055000D01*
X441325000Y-64135000D02*
X448835000Y-64135000D01*
%TO.N,Net-(D22-K)*%
X433705000Y-71355000D02*
X452755000Y-71355000D01*
%TO.N,Net-(D37-A)*%
X448835000Y-64135000D02*
X452755000Y-68055000D01*
X441325000Y-64135000D02*
X448835000Y-64135000D01*
%TO.N,Net-(D22-K)*%
X433705000Y-71355000D02*
X452755000Y-71355000D01*
%TO.N,Net-(D57-K)*%
X443230000Y-109455000D02*
X452755000Y-99930000D01*
X433705000Y-109455000D02*
X443230000Y-109455000D01*
X414655000Y-109455000D02*
X433705000Y-109455000D01*
X395605000Y-109455000D02*
X414655000Y-109455000D01*
X297973750Y-109455000D02*
X395605000Y-109455000D01*
X267017500Y-109455000D02*
X297973750Y-109455000D01*
X247967500Y-109455000D02*
X267017500Y-109455000D01*
X228917500Y-109455000D02*
X247967500Y-109455000D01*
X209867500Y-109455000D02*
X228917500Y-109455000D01*
X190817500Y-109455000D02*
X209867500Y-109455000D01*
X171767500Y-109455000D02*
X190817500Y-109455000D01*
X162242500Y-128505000D02*
X181292500Y-128505000D01*
X152717500Y-109455000D02*
X171767500Y-109455000D01*
X143192500Y-128505000D02*
X162242500Y-128505000D01*
X124142500Y-128505000D02*
X143192500Y-128505000D01*
X64611250Y-128505000D02*
X86042500Y-128505000D01*
X45561250Y-109455000D02*
X64611250Y-128505000D01*
%TO.N,Net-(D43-K)*%
X395605000Y-90405000D02*
X414655000Y-90405000D01*
X371792500Y-90405000D02*
X395605000Y-90405000D01*
X352742500Y-90405000D02*
X371792500Y-90405000D01*
X333692500Y-90405000D02*
X352742500Y-90405000D01*
X305117500Y-90405000D02*
X333692500Y-90405000D01*
X281305000Y-90405000D02*
X305117500Y-90405000D01*
X262255000Y-90405000D02*
X281305000Y-90405000D01*
X243205000Y-90405000D02*
X262255000Y-90405000D01*
X224155000Y-90405000D02*
X243205000Y-90405000D01*
X205105000Y-90405000D02*
X224155000Y-90405000D01*
X186055000Y-90405000D02*
X205105000Y-90405000D01*
X167005000Y-90405000D02*
X186055000Y-90405000D01*
X147955000Y-90405000D02*
X167005000Y-90405000D01*
X114617500Y-109455000D02*
X133667500Y-109455000D01*
X95567500Y-109455000D02*
X114617500Y-109455000D01*
X76517500Y-109455000D02*
X95567500Y-109455000D01*
%TO.N,Net-(D101-K)*%
X405130000Y-147555000D02*
X433705000Y-147555000D01*
X371792500Y-147555000D02*
X405130000Y-147555000D01*
X352742500Y-147555000D02*
X371792500Y-147555000D01*
%TO.N,Net-(D100-K)*%
X443230000Y-138030000D02*
X452755000Y-138030000D01*
X433705000Y-128505000D02*
X443230000Y-138030000D01*
X414655000Y-128505000D02*
X433705000Y-128505000D01*
X395605000Y-128505000D02*
X414655000Y-128505000D01*
X352742500Y-128505000D02*
X395605000Y-128505000D01*
X307498750Y-147555000D02*
X333692500Y-147555000D01*
X283686250Y-147555000D02*
X307498750Y-147555000D01*
X293211250Y-138030000D02*
X293211250Y-128505000D01*
X283686250Y-147555000D02*
X293211250Y-138030000D01*
X259873750Y-147555000D02*
X283686250Y-147555000D01*
X238442500Y-128505000D02*
X257492500Y-128505000D01*
X219392500Y-128505000D02*
X238442500Y-128505000D01*
X238442500Y-145173750D02*
X236061250Y-147555000D01*
X238442500Y-128505000D02*
X238442500Y-145173750D01*
X200342500Y-128505000D02*
X219392500Y-128505000D01*
X181292500Y-147555000D02*
X200342500Y-128505000D01*
X164623750Y-147555000D02*
X181292500Y-147555000D01*
X124142500Y-147555000D02*
X164623750Y-147555000D01*
X105092500Y-128505000D02*
X124142500Y-147555000D01*
X105092500Y-135648750D02*
X105092500Y-128505000D01*
X93186250Y-147555000D02*
X105092500Y-135648750D01*
X69373750Y-147555000D02*
X93186250Y-147555000D01*
X45561250Y-147555000D02*
X69373750Y-147555000D01*
X55086250Y-138030000D02*
X55086250Y-128505000D01*
X45561250Y-147555000D02*
X55086250Y-138030000D01*
%TO.N,Net-(D22-K)*%
X414655000Y-71355000D02*
X433705000Y-71355000D01*
X395605000Y-71355000D02*
X414655000Y-71355000D01*
X371792500Y-71355000D02*
X395605000Y-71355000D01*
X352742500Y-71355000D02*
X371792500Y-71355000D01*
X333692500Y-71355000D02*
X352742500Y-71355000D01*
X300355000Y-71355000D02*
X333692500Y-71355000D01*
X271780000Y-71355000D02*
X300355000Y-71355000D01*
X252730000Y-71355000D02*
X271780000Y-71355000D01*
X233680000Y-71355000D02*
X252730000Y-71355000D01*
X214630000Y-71355000D02*
X233680000Y-71355000D01*
X195580000Y-71355000D02*
X214630000Y-71355000D01*
X176530000Y-71355000D02*
X195580000Y-71355000D01*
X157480000Y-71355000D02*
X176530000Y-71355000D01*
X138430000Y-71355000D02*
X157480000Y-71355000D01*
X109855000Y-90405000D02*
X128905000Y-90405000D01*
X90805000Y-90405000D02*
X109855000Y-90405000D01*
X71755000Y-90405000D02*
X90805000Y-90405000D01*
X47942500Y-90405000D02*
X71755000Y-90405000D01*
%TO.N,Net-(D1-K)*%
X352742500Y-42780000D02*
X371792500Y-42780000D01*
X333692500Y-42780000D02*
X352742500Y-42780000D01*
X309880000Y-42780000D02*
X333692500Y-42780000D01*
X290830000Y-42780000D02*
X309880000Y-42780000D01*
X271780000Y-42780000D02*
X290830000Y-42780000D01*
X252730000Y-42780000D02*
X271780000Y-42780000D01*
X224155000Y-42780000D02*
X252730000Y-42780000D01*
X205105000Y-42780000D02*
X224155000Y-42780000D01*
X186055000Y-42780000D02*
X205105000Y-42780000D01*
X167005000Y-42780000D02*
X186055000Y-42780000D01*
X138430000Y-42780000D02*
X167005000Y-42780000D01*
X119380000Y-42780000D02*
X138430000Y-42780000D01*
X100330000Y-71355000D02*
X119380000Y-71355000D01*
X100330000Y-42780000D02*
X119380000Y-42780000D01*
X81280000Y-71355000D02*
X100330000Y-71355000D01*
X81280000Y-42780000D02*
X100330000Y-42780000D01*
X62230000Y-71355000D02*
X81280000Y-71355000D01*
X43180000Y-71355000D02*
X62230000Y-71355000D01*
%TO.N,Net-(D105-A)*%
X429785000Y-140335000D02*
X433705000Y-144255000D01*
X422275000Y-140335000D02*
X429785000Y-140335000D01*
%TO.N,Net-(D104-A)*%
X401210000Y-140335000D02*
X405130000Y-144255000D01*
X393700000Y-140335000D02*
X401210000Y-140335000D01*
%TO.N,Net-(D103-A)*%
X367872500Y-140335000D02*
X371792500Y-144255000D01*
X360362500Y-140335000D02*
X367872500Y-140335000D01*
%TO.N,Net-(D101-A)*%
X348822500Y-140335000D02*
X352742500Y-144255000D01*
X341312500Y-140335000D02*
X348822500Y-140335000D01*
%TO.N,Net-(D100-A)*%
X329772500Y-140335000D02*
X333692500Y-144255000D01*
X322262500Y-140335000D02*
X329772500Y-140335000D01*
%TO.N,Net-(D99-A)*%
X303578750Y-140335000D02*
X307498750Y-144255000D01*
X296068750Y-140335000D02*
X303578750Y-140335000D01*
%TO.N,Net-(D98-A)*%
X279766250Y-140335000D02*
X283686250Y-144255000D01*
X272256250Y-140335000D02*
X279766250Y-140335000D01*
%TO.N,Net-(D97-A)*%
X255953750Y-140335000D02*
X259873750Y-144255000D01*
X248443750Y-140335000D02*
X255953750Y-140335000D01*
%TO.N,Net-(D96-A)*%
X232141250Y-140335000D02*
X236061250Y-144255000D01*
X224631250Y-140335000D02*
X232141250Y-140335000D01*
%TO.N,Net-(D95-A)*%
X160703750Y-140335000D02*
X164623750Y-144255000D01*
X153193750Y-140335000D02*
X160703750Y-140335000D01*
%TO.N,Net-(D94-A)*%
X89266250Y-140335000D02*
X93186250Y-144255000D01*
X81756250Y-140335000D02*
X89266250Y-140335000D01*
%TO.N,Net-(D93-A)*%
X65453750Y-140335000D02*
X69373750Y-144255000D01*
X57943750Y-140335000D02*
X65453750Y-140335000D01*
%TO.N,Net-(D92-A)*%
X41641250Y-140335000D02*
X45561250Y-144255000D01*
X34131250Y-140335000D02*
X41641250Y-140335000D01*
%TO.N,Net-(D91-A)*%
X448835000Y-130810000D02*
X452755000Y-134730000D01*
X441325000Y-130810000D02*
X448835000Y-130810000D01*
%TO.N,Net-(D90-A)*%
X429785000Y-121285000D02*
X433705000Y-125205000D01*
X422275000Y-121285000D02*
X429785000Y-121285000D01*
%TO.N,Net-(D89-A)*%
X410735000Y-121285000D02*
X414655000Y-125205000D01*
X403225000Y-121285000D02*
X410735000Y-121285000D01*
%TO.N,Net-(D88-A)*%
X391685000Y-121285000D02*
X395605000Y-125205000D01*
X384175000Y-121285000D02*
X391685000Y-121285000D01*
%TO.N,Net-(D87-A)*%
X348822500Y-121285000D02*
X352742500Y-125205000D01*
X341312500Y-121285000D02*
X348822500Y-121285000D01*
%TO.N,Net-(D86-A)*%
X289291250Y-121285000D02*
X293211250Y-125205000D01*
X281781250Y-121285000D02*
X289291250Y-121285000D01*
%TO.N,Net-(D85-A)*%
X253572500Y-121285000D02*
X257492500Y-125205000D01*
X246062500Y-121285000D02*
X253572500Y-121285000D01*
%TO.N,Net-(D84-A)*%
X234522500Y-121285000D02*
X238442500Y-125205000D01*
X227012500Y-121285000D02*
X234522500Y-121285000D01*
%TO.N,Net-(D83-A)*%
X215472500Y-121285000D02*
X219392500Y-125205000D01*
X207962500Y-121285000D02*
X215472500Y-121285000D01*
%TO.N,Net-(D82-A)*%
X196422500Y-121285000D02*
X200342500Y-125205000D01*
X188912500Y-121285000D02*
X196422500Y-121285000D01*
%TO.N,Net-(D81-A)*%
X177372500Y-121285000D02*
X181292500Y-125205000D01*
X169862500Y-121285000D02*
X177372500Y-121285000D01*
%TO.N,Net-(D80-A)*%
X158322500Y-121285000D02*
X162242500Y-125205000D01*
X150812500Y-121285000D02*
X158322500Y-121285000D01*
%TO.N,Net-(D79-A)*%
X139272500Y-121285000D02*
X143192500Y-125205000D01*
X131762500Y-121285000D02*
X139272500Y-121285000D01*
%TO.N,Net-(D78-A)*%
X120222500Y-121285000D02*
X124142500Y-125205000D01*
X112712500Y-121285000D02*
X120222500Y-121285000D01*
%TO.N,Net-(D77-A)*%
X101172500Y-121285000D02*
X105092500Y-125205000D01*
X93662500Y-121285000D02*
X101172500Y-121285000D01*
%TO.N,Net-(D76-A)*%
X82122500Y-121285000D02*
X86042500Y-125205000D01*
X74612500Y-121285000D02*
X82122500Y-121285000D01*
%TO.N,Net-(D75-A)*%
X51166250Y-121285000D02*
X55086250Y-125205000D01*
X43656250Y-121285000D02*
X51166250Y-121285000D01*
%TO.N,Net-(D74-A)*%
X429785000Y-102235000D02*
X433705000Y-106155000D01*
X422275000Y-102235000D02*
X429785000Y-102235000D01*
%TO.N,Net-(D73-A)*%
X410735000Y-102235000D02*
X414655000Y-106155000D01*
X403225000Y-102235000D02*
X410735000Y-102235000D01*
%TO.N,Net-(D72-A)*%
X391685000Y-102235000D02*
X395605000Y-106155000D01*
X384175000Y-102235000D02*
X391685000Y-102235000D01*
%TO.N,Net-(D71-A)*%
X294053750Y-102235000D02*
X297973750Y-106155000D01*
X286543750Y-102235000D02*
X294053750Y-102235000D01*
%TO.N,Net-(D70-A)*%
X263097500Y-102235000D02*
X267017500Y-106155000D01*
X255587500Y-102235000D02*
X263097500Y-102235000D01*
%TO.N,Net-(D69-A)*%
X244047500Y-102235000D02*
X247967500Y-106155000D01*
X236537500Y-102235000D02*
X244047500Y-102235000D01*
%TO.N,Net-(D68-A)*%
X224997500Y-102235000D02*
X228917500Y-106155000D01*
X217487500Y-102235000D02*
X224997500Y-102235000D01*
%TO.N,Net-(D67-A)*%
X205947500Y-102235000D02*
X209867500Y-106155000D01*
X198437500Y-102235000D02*
X205947500Y-102235000D01*
%TO.N,Net-(D66-A)*%
X186897500Y-102235000D02*
X190817500Y-106155000D01*
X179387500Y-102235000D02*
X186897500Y-102235000D01*
%TO.N,Net-(D65-A)*%
X167847500Y-102235000D02*
X171767500Y-106155000D01*
X160337500Y-102235000D02*
X167847500Y-102235000D01*
%TO.N,Net-(D64-A)*%
X148797500Y-102235000D02*
X152717500Y-106155000D01*
X141287500Y-102235000D02*
X148797500Y-102235000D01*
%TO.N,Net-(D63-A)*%
X129747500Y-102235000D02*
X133667500Y-106155000D01*
X122237500Y-102235000D02*
X129747500Y-102235000D01*
%TO.N,Net-(D62-A)*%
X110697500Y-102235000D02*
X114617500Y-106155000D01*
X103187500Y-102235000D02*
X110697500Y-102235000D01*
%TO.N,Net-(D61-A)*%
X91647500Y-102235000D02*
X95567500Y-106155000D01*
X84137500Y-102235000D02*
X91647500Y-102235000D01*
%TO.N,Net-(D60-A)*%
X72597500Y-102235000D02*
X76517500Y-106155000D01*
X65087500Y-102235000D02*
X72597500Y-102235000D01*
%TO.N,Net-(D59-A)*%
X41641250Y-102235000D02*
X45561250Y-106155000D01*
X34131250Y-102235000D02*
X41641250Y-102235000D01*
%TO.N,Net-(D58-A)*%
X448835000Y-92710000D02*
X452755000Y-96630000D01*
X441325000Y-92710000D02*
X448835000Y-92710000D01*
%TO.N,Net-(D57-A)*%
X429785000Y-83185000D02*
X433705000Y-87105000D01*
X422275000Y-83185000D02*
X429785000Y-83185000D01*
%TO.N,Net-(D56-A)*%
X410735000Y-83185000D02*
X414655000Y-87105000D01*
X403225000Y-83185000D02*
X410735000Y-83185000D01*
%TO.N,Net-(D55-A)*%
X391685000Y-83185000D02*
X395605000Y-87105000D01*
X384175000Y-83185000D02*
X391685000Y-83185000D01*
%TO.N,Net-(D54-A)*%
X367872500Y-83185000D02*
X371792500Y-87105000D01*
X360362500Y-83185000D02*
X367872500Y-83185000D01*
%TO.N,Net-(D53-A)*%
X348822500Y-83185000D02*
X352742500Y-87105000D01*
X341312500Y-83185000D02*
X348822500Y-83185000D01*
%TO.N,Net-(D52-A)*%
X329772500Y-83185000D02*
X333692500Y-87105000D01*
X322262500Y-83185000D02*
X329772500Y-83185000D01*
%TO.N,Net-(D51-A)*%
X301197500Y-83185000D02*
X305117500Y-87105000D01*
X293687500Y-83185000D02*
X301197500Y-83185000D01*
%TO.N,Net-(D50-A)*%
X277385000Y-83185000D02*
X281305000Y-87105000D01*
X269875000Y-83185000D02*
X277385000Y-83185000D01*
%TO.N,Net-(D49-A)*%
X258335000Y-83185000D02*
X262255000Y-87105000D01*
X250825000Y-83185000D02*
X258335000Y-83185000D01*
%TO.N,Net-(D48-A)*%
X239285000Y-83185000D02*
X243205000Y-87105000D01*
X231775000Y-83185000D02*
X239285000Y-83185000D01*
%TO.N,Net-(D47-A)*%
X220235000Y-83185000D02*
X224155000Y-87105000D01*
X212725000Y-83185000D02*
X220235000Y-83185000D01*
%TO.N,Net-(D46-A)*%
X201185000Y-83185000D02*
X205105000Y-87105000D01*
X193675000Y-83185000D02*
X201185000Y-83185000D01*
%TO.N,Net-(D45-A)*%
X182135000Y-83185000D02*
X186055000Y-87105000D01*
X174625000Y-83185000D02*
X182135000Y-83185000D01*
%TO.N,Net-(D44-A)*%
X163085000Y-83185000D02*
X167005000Y-87105000D01*
X155575000Y-83185000D02*
X163085000Y-83185000D01*
%TO.N,Net-(D43-A)*%
X144035000Y-83185000D02*
X147955000Y-87105000D01*
X136525000Y-83185000D02*
X144035000Y-83185000D01*
%TO.N,Net-(D42-A)*%
X124985000Y-83185000D02*
X128905000Y-87105000D01*
X117475000Y-83185000D02*
X124985000Y-83185000D01*
%TO.N,Net-(D41-A)*%
X105935000Y-83185000D02*
X109855000Y-87105000D01*
X98425000Y-83185000D02*
X105935000Y-83185000D01*
%TO.N,Net-(D40-A)*%
X86885000Y-83185000D02*
X90805000Y-87105000D01*
X79375000Y-83185000D02*
X86885000Y-83185000D01*
%TO.N,Net-(D39-A)*%
X67835000Y-83185000D02*
X71755000Y-87105000D01*
X60325000Y-83185000D02*
X67835000Y-83185000D01*
%TO.N,Net-(D38-A)*%
X44022500Y-83185000D02*
X47942500Y-87105000D01*
X36512500Y-83185000D02*
X44022500Y-83185000D01*
%TO.N,Net-(D36-A)*%
X429785000Y-64135000D02*
X433705000Y-68055000D01*
X422275000Y-64135000D02*
X429785000Y-64135000D01*
%TO.N,Net-(D35-A)*%
X410735000Y-64135000D02*
X414655000Y-68055000D01*
X403225000Y-64135000D02*
X410735000Y-64135000D01*
%TO.N,Net-(D34-A)*%
X391685000Y-64135000D02*
X395605000Y-68055000D01*
X384175000Y-64135000D02*
X391685000Y-64135000D01*
%TO.N,Net-(D33-A)*%
X367872500Y-64135000D02*
X371792500Y-68055000D01*
X360362500Y-64135000D02*
X367872500Y-64135000D01*
%TO.N,Net-(D32-A)*%
X348822500Y-64135000D02*
X352742500Y-68055000D01*
X341312500Y-64135000D02*
X348822500Y-64135000D01*
%TO.N,Net-(D31-A)*%
X329772500Y-64135000D02*
X333692500Y-68055000D01*
X322262500Y-64135000D02*
X329772500Y-64135000D01*
%TO.N,Net-(D30-A)*%
X296435000Y-64135000D02*
X300355000Y-68055000D01*
X288925000Y-64135000D02*
X296435000Y-64135000D01*
%TO.N,Net-(D29-A)*%
X267860000Y-64135000D02*
X271780000Y-68055000D01*
X260350000Y-64135000D02*
X267860000Y-64135000D01*
%TO.N,Net-(D28-A)*%
X248810000Y-64135000D02*
X252730000Y-68055000D01*
X241300000Y-64135000D02*
X248810000Y-64135000D01*
%TO.N,Net-(D27-A)*%
X229760000Y-64135000D02*
X233680000Y-68055000D01*
X222250000Y-64135000D02*
X229760000Y-64135000D01*
%TO.N,Net-(D26-A)*%
X210710000Y-64135000D02*
X214630000Y-68055000D01*
X203200000Y-64135000D02*
X210710000Y-64135000D01*
%TO.N,Net-(D25-A)*%
X191660000Y-64135000D02*
X195580000Y-68055000D01*
X184150000Y-64135000D02*
X191660000Y-64135000D01*
%TO.N,Net-(D24-A)*%
X172610000Y-64135000D02*
X176530000Y-68055000D01*
X165100000Y-64135000D02*
X172610000Y-64135000D01*
%TO.N,Net-(D23-A)*%
X153560000Y-64135000D02*
X157480000Y-68055000D01*
X146050000Y-64135000D02*
X153560000Y-64135000D01*
%TO.N,Net-(D22-A)*%
X134510000Y-64135000D02*
X138430000Y-68055000D01*
X127000000Y-64135000D02*
X134510000Y-64135000D01*
%TO.N,Net-(D21-A)*%
X115460000Y-64135000D02*
X119380000Y-68055000D01*
X107950000Y-64135000D02*
X115460000Y-64135000D01*
%TO.N,Net-(D20-A)*%
X96410000Y-64135000D02*
X100330000Y-68055000D01*
X88900000Y-64135000D02*
X96410000Y-64135000D01*
%TO.N,Net-(D19-A)*%
X77360000Y-64135000D02*
X81280000Y-68055000D01*
X69850000Y-64135000D02*
X77360000Y-64135000D01*
%TO.N,Net-(D18-A)*%
X58310000Y-64135000D02*
X62230000Y-68055000D01*
X50800000Y-64135000D02*
X58310000Y-64135000D01*
%TO.N,Net-(D17-A)*%
X39260000Y-64135000D02*
X43180000Y-68055000D01*
X31750000Y-64135000D02*
X39260000Y-64135000D01*
%TO.N,Net-(D16-A)*%
X367872500Y-35560000D02*
X371792500Y-39480000D01*
X360362500Y-35560000D02*
X367872500Y-35560000D01*
%TO.N,Net-(D15-A)*%
X348822500Y-35560000D02*
X352742500Y-39480000D01*
X341312500Y-35560000D02*
X348822500Y-35560000D01*
%TO.N,Net-(D14-A)*%
X329772500Y-35560000D02*
X333692500Y-39480000D01*
X322262500Y-35560000D02*
X329772500Y-35560000D01*
%TO.N,Net-(D13-A)*%
X305960000Y-35560000D02*
X309880000Y-39480000D01*
X298450000Y-35560000D02*
X305960000Y-35560000D01*
%TO.N,Net-(D12-A)*%
X286910000Y-35560000D02*
X290830000Y-39480000D01*
X279400000Y-35560000D02*
X286910000Y-35560000D01*
%TO.N,Net-(D11-A)*%
X267860000Y-35560000D02*
X271780000Y-39480000D01*
X260350000Y-35560000D02*
X267860000Y-35560000D01*
%TO.N,Net-(D10-A)*%
X248810000Y-35560000D02*
X252730000Y-39480000D01*
X241300000Y-35560000D02*
X248810000Y-35560000D01*
%TO.N,Net-(D9-A)*%
X220235000Y-35560000D02*
X224155000Y-39480000D01*
X212725000Y-35560000D02*
X220235000Y-35560000D01*
%TO.N,Net-(D8-A)*%
X201185000Y-35560000D02*
X205105000Y-39480000D01*
X193675000Y-35560000D02*
X201185000Y-35560000D01*
%TO.N,Net-(D7-A)*%
X182135000Y-35560000D02*
X186055000Y-39480000D01*
X174625000Y-35560000D02*
X182135000Y-35560000D01*
%TO.N,Net-(D6-A)*%
X163085000Y-35560000D02*
X167005000Y-39480000D01*
X155575000Y-35560000D02*
X163085000Y-35560000D01*
%TO.N,Net-(D5-A)*%
X134510000Y-35560000D02*
X138430000Y-39480000D01*
X127000000Y-35560000D02*
X134510000Y-35560000D01*
%TO.N,Net-(D4-A)*%
X115460000Y-35560000D02*
X119380000Y-39480000D01*
X107950000Y-35560000D02*
X115460000Y-35560000D01*
%TO.N,Net-(D3-A)*%
X96410000Y-35560000D02*
X100330000Y-39480000D01*
X88900000Y-35560000D02*
X96410000Y-35560000D01*
%TO.N,Net-(D2-A)*%
X77360000Y-35560000D02*
X81280000Y-39480000D01*
X69850000Y-35560000D02*
X77360000Y-35560000D01*
%TO.N,Net-(D1-A)*%
X39260000Y-35560000D02*
X43180000Y-39480000D01*
X31750000Y-35560000D02*
X39260000Y-35560000D01*
%TO.N,Net-(D57-K)*%
X443230000Y-109455000D02*
X452755000Y-99930000D01*
X433705000Y-109455000D02*
X443230000Y-109455000D01*
X414655000Y-109455000D02*
X433705000Y-109455000D01*
X395605000Y-109455000D02*
X414655000Y-109455000D01*
X297973750Y-109455000D02*
X395605000Y-109455000D01*
X267017500Y-109455000D02*
X297973750Y-109455000D01*
X247967500Y-109455000D02*
X267017500Y-109455000D01*
X228917500Y-109455000D02*
X247967500Y-109455000D01*
X209867500Y-109455000D02*
X228917500Y-109455000D01*
X190817500Y-109455000D02*
X209867500Y-109455000D01*
X171767500Y-109455000D02*
X190817500Y-109455000D01*
X162242500Y-128505000D02*
X181292500Y-128505000D01*
X152717500Y-109455000D02*
X171767500Y-109455000D01*
X143192500Y-128505000D02*
X162242500Y-128505000D01*
X124142500Y-128505000D02*
X143192500Y-128505000D01*
X64611250Y-128505000D02*
X86042500Y-128505000D01*
X45561250Y-109455000D02*
X64611250Y-128505000D01*
%TO.N,Net-(D43-K)*%
X395605000Y-90405000D02*
X414655000Y-90405000D01*
X371792500Y-90405000D02*
X395605000Y-90405000D01*
X352742500Y-90405000D02*
X371792500Y-90405000D01*
X333692500Y-90405000D02*
X352742500Y-90405000D01*
X305117500Y-90405000D02*
X333692500Y-90405000D01*
X281305000Y-90405000D02*
X305117500Y-90405000D01*
X262255000Y-90405000D02*
X281305000Y-90405000D01*
X243205000Y-90405000D02*
X262255000Y-90405000D01*
X224155000Y-90405000D02*
X243205000Y-90405000D01*
X205105000Y-90405000D02*
X224155000Y-90405000D01*
X186055000Y-90405000D02*
X205105000Y-90405000D01*
X167005000Y-90405000D02*
X186055000Y-90405000D01*
X147955000Y-90405000D02*
X167005000Y-90405000D01*
X114617500Y-109455000D02*
X133667500Y-109455000D01*
X95567500Y-109455000D02*
X114617500Y-109455000D01*
X76517500Y-109455000D02*
X95567500Y-109455000D01*
%TO.N,Net-(D101-K)*%
X405130000Y-147555000D02*
X433705000Y-147555000D01*
X371792500Y-147555000D02*
X405130000Y-147555000D01*
X352742500Y-147555000D02*
X371792500Y-147555000D01*
%TO.N,Net-(D100-K)*%
X443230000Y-138030000D02*
X452755000Y-138030000D01*
X433705000Y-128505000D02*
X443230000Y-138030000D01*
X414655000Y-128505000D02*
X433705000Y-128505000D01*
X395605000Y-128505000D02*
X414655000Y-128505000D01*
X352742500Y-128505000D02*
X395605000Y-128505000D01*
X307498750Y-147555000D02*
X333692500Y-147555000D01*
X283686250Y-147555000D02*
X307498750Y-147555000D01*
X293211250Y-138030000D02*
X293211250Y-128505000D01*
X283686250Y-147555000D02*
X293211250Y-138030000D01*
X259873750Y-147555000D02*
X283686250Y-147555000D01*
X238442500Y-128505000D02*
X257492500Y-128505000D01*
X219392500Y-128505000D02*
X238442500Y-128505000D01*
X238442500Y-145173750D02*
X236061250Y-147555000D01*
X238442500Y-128505000D02*
X238442500Y-145173750D01*
X200342500Y-128505000D02*
X219392500Y-128505000D01*
X181292500Y-147555000D02*
X200342500Y-128505000D01*
X164623750Y-147555000D02*
X181292500Y-147555000D01*
X124142500Y-147555000D02*
X164623750Y-147555000D01*
X105092500Y-128505000D02*
X124142500Y-147555000D01*
X105092500Y-135648750D02*
X105092500Y-128505000D01*
X93186250Y-147555000D02*
X105092500Y-135648750D01*
X69373750Y-147555000D02*
X93186250Y-147555000D01*
X45561250Y-147555000D02*
X69373750Y-147555000D01*
X55086250Y-138030000D02*
X55086250Y-128505000D01*
X45561250Y-147555000D02*
X55086250Y-138030000D01*
%TO.N,Net-(D22-K)*%
X414655000Y-71355000D02*
X433705000Y-71355000D01*
X395605000Y-71355000D02*
X414655000Y-71355000D01*
X371792500Y-71355000D02*
X395605000Y-71355000D01*
X352742500Y-71355000D02*
X371792500Y-71355000D01*
X333692500Y-71355000D02*
X352742500Y-71355000D01*
X300355000Y-71355000D02*
X333692500Y-71355000D01*
X271780000Y-71355000D02*
X300355000Y-71355000D01*
X252730000Y-71355000D02*
X271780000Y-71355000D01*
X233680000Y-71355000D02*
X252730000Y-71355000D01*
X214630000Y-71355000D02*
X233680000Y-71355000D01*
X195580000Y-71355000D02*
X214630000Y-71355000D01*
X176530000Y-71355000D02*
X195580000Y-71355000D01*
X157480000Y-71355000D02*
X176530000Y-71355000D01*
X138430000Y-71355000D02*
X157480000Y-71355000D01*
X109855000Y-90405000D02*
X128905000Y-90405000D01*
X90805000Y-90405000D02*
X109855000Y-90405000D01*
X71755000Y-90405000D02*
X90805000Y-90405000D01*
X47942500Y-90405000D02*
X71755000Y-90405000D01*
%TO.N,Net-(D1-K)*%
X352742500Y-42780000D02*
X371792500Y-42780000D01*
X333692500Y-42780000D02*
X352742500Y-42780000D01*
X309880000Y-42780000D02*
X333692500Y-42780000D01*
X290830000Y-42780000D02*
X309880000Y-42780000D01*
X271780000Y-42780000D02*
X290830000Y-42780000D01*
X252730000Y-42780000D02*
X271780000Y-42780000D01*
X224155000Y-42780000D02*
X252730000Y-42780000D01*
X205105000Y-42780000D02*
X224155000Y-42780000D01*
X186055000Y-42780000D02*
X205105000Y-42780000D01*
X167005000Y-42780000D02*
X186055000Y-42780000D01*
X138430000Y-42780000D02*
X167005000Y-42780000D01*
X119380000Y-42780000D02*
X138430000Y-42780000D01*
X100330000Y-71355000D02*
X119380000Y-71355000D01*
X100330000Y-42780000D02*
X119380000Y-42780000D01*
X81280000Y-71355000D02*
X100330000Y-71355000D01*
X81280000Y-42780000D02*
X100330000Y-42780000D01*
X62230000Y-71355000D02*
X81280000Y-71355000D01*
X43180000Y-71355000D02*
X62230000Y-71355000D01*
%TO.N,Net-(D105-A)*%
X429785000Y-140335000D02*
X433705000Y-144255000D01*
X422275000Y-140335000D02*
X429785000Y-140335000D01*
%TO.N,Net-(D104-A)*%
X401210000Y-140335000D02*
X405130000Y-144255000D01*
X393700000Y-140335000D02*
X401210000Y-140335000D01*
%TO.N,Net-(D103-A)*%
X367872500Y-140335000D02*
X371792500Y-144255000D01*
X360362500Y-140335000D02*
X367872500Y-140335000D01*
%TO.N,Net-(D101-A)*%
X348822500Y-140335000D02*
X352742500Y-144255000D01*
X341312500Y-140335000D02*
X348822500Y-140335000D01*
%TO.N,Net-(D100-A)*%
X329772500Y-140335000D02*
X333692500Y-144255000D01*
X322262500Y-140335000D02*
X329772500Y-140335000D01*
%TO.N,Net-(D99-A)*%
X303578750Y-140335000D02*
X307498750Y-144255000D01*
X296068750Y-140335000D02*
X303578750Y-140335000D01*
%TO.N,Net-(D98-A)*%
X279766250Y-140335000D02*
X283686250Y-144255000D01*
X272256250Y-140335000D02*
X279766250Y-140335000D01*
%TO.N,Net-(D97-A)*%
X255953750Y-140335000D02*
X259873750Y-144255000D01*
X248443750Y-140335000D02*
X255953750Y-140335000D01*
%TO.N,Net-(D96-A)*%
X232141250Y-140335000D02*
X236061250Y-144255000D01*
X224631250Y-140335000D02*
X232141250Y-140335000D01*
%TO.N,Net-(D95-A)*%
X160703750Y-140335000D02*
X164623750Y-144255000D01*
X153193750Y-140335000D02*
X160703750Y-140335000D01*
%TO.N,Net-(D94-A)*%
X89266250Y-140335000D02*
X93186250Y-144255000D01*
X81756250Y-140335000D02*
X89266250Y-140335000D01*
%TO.N,Net-(D93-A)*%
X65453750Y-140335000D02*
X69373750Y-144255000D01*
X57943750Y-140335000D02*
X65453750Y-140335000D01*
%TO.N,Net-(D92-A)*%
X41641250Y-140335000D02*
X45561250Y-144255000D01*
X34131250Y-140335000D02*
X41641250Y-140335000D01*
%TO.N,Net-(D91-A)*%
X448835000Y-130810000D02*
X452755000Y-134730000D01*
X441325000Y-130810000D02*
X448835000Y-130810000D01*
%TO.N,Net-(D90-A)*%
X429785000Y-121285000D02*
X433705000Y-125205000D01*
X422275000Y-121285000D02*
X429785000Y-121285000D01*
%TO.N,Net-(D89-A)*%
X410735000Y-121285000D02*
X414655000Y-125205000D01*
X403225000Y-121285000D02*
X410735000Y-121285000D01*
%TO.N,Net-(D88-A)*%
X391685000Y-121285000D02*
X395605000Y-125205000D01*
X384175000Y-121285000D02*
X391685000Y-121285000D01*
%TO.N,Net-(D87-A)*%
X348822500Y-121285000D02*
X352742500Y-125205000D01*
X341312500Y-121285000D02*
X348822500Y-121285000D01*
%TO.N,Net-(D86-A)*%
X289291250Y-121285000D02*
X293211250Y-125205000D01*
X281781250Y-121285000D02*
X289291250Y-121285000D01*
%TO.N,Net-(D85-A)*%
X253572500Y-121285000D02*
X257492500Y-125205000D01*
X246062500Y-121285000D02*
X253572500Y-121285000D01*
%TO.N,Net-(D84-A)*%
X234522500Y-121285000D02*
X238442500Y-125205000D01*
X227012500Y-121285000D02*
X234522500Y-121285000D01*
%TO.N,Net-(D83-A)*%
X215472500Y-121285000D02*
X219392500Y-125205000D01*
X207962500Y-121285000D02*
X215472500Y-121285000D01*
%TO.N,Net-(D82-A)*%
X196422500Y-121285000D02*
X200342500Y-125205000D01*
X188912500Y-121285000D02*
X196422500Y-121285000D01*
%TO.N,Net-(D81-A)*%
X177372500Y-121285000D02*
X181292500Y-125205000D01*
X169862500Y-121285000D02*
X177372500Y-121285000D01*
%TO.N,Net-(D80-A)*%
X158322500Y-121285000D02*
X162242500Y-125205000D01*
X150812500Y-121285000D02*
X158322500Y-121285000D01*
%TO.N,Net-(D79-A)*%
X139272500Y-121285000D02*
X143192500Y-125205000D01*
X131762500Y-121285000D02*
X139272500Y-121285000D01*
%TO.N,Net-(D78-A)*%
X120222500Y-121285000D02*
X124142500Y-125205000D01*
X112712500Y-121285000D02*
X120222500Y-121285000D01*
%TO.N,Net-(D77-A)*%
X101172500Y-121285000D02*
X105092500Y-125205000D01*
X93662500Y-121285000D02*
X101172500Y-121285000D01*
%TO.N,Net-(D76-A)*%
X82122500Y-121285000D02*
X86042500Y-125205000D01*
X74612500Y-121285000D02*
X82122500Y-121285000D01*
%TO.N,Net-(D75-A)*%
X51166250Y-121285000D02*
X55086250Y-125205000D01*
X43656250Y-121285000D02*
X51166250Y-121285000D01*
%TO.N,Net-(D74-A)*%
X429785000Y-102235000D02*
X433705000Y-106155000D01*
X422275000Y-102235000D02*
X429785000Y-102235000D01*
%TO.N,Net-(D73-A)*%
X410735000Y-102235000D02*
X414655000Y-106155000D01*
X403225000Y-102235000D02*
X410735000Y-102235000D01*
%TO.N,Net-(D72-A)*%
X391685000Y-102235000D02*
X395605000Y-106155000D01*
X384175000Y-102235000D02*
X391685000Y-102235000D01*
%TO.N,Net-(D71-A)*%
X294053750Y-102235000D02*
X297973750Y-106155000D01*
X286543750Y-102235000D02*
X294053750Y-102235000D01*
%TO.N,Net-(D70-A)*%
X263097500Y-102235000D02*
X267017500Y-106155000D01*
X255587500Y-102235000D02*
X263097500Y-102235000D01*
%TO.N,Net-(D69-A)*%
X244047500Y-102235000D02*
X247967500Y-106155000D01*
X236537500Y-102235000D02*
X244047500Y-102235000D01*
%TO.N,Net-(D68-A)*%
X224997500Y-102235000D02*
X228917500Y-106155000D01*
X217487500Y-102235000D02*
X224997500Y-102235000D01*
%TO.N,Net-(D67-A)*%
X205947500Y-102235000D02*
X209867500Y-106155000D01*
X198437500Y-102235000D02*
X205947500Y-102235000D01*
%TO.N,Net-(D66-A)*%
X186897500Y-102235000D02*
X190817500Y-106155000D01*
X179387500Y-102235000D02*
X186897500Y-102235000D01*
%TO.N,Net-(D65-A)*%
X167847500Y-102235000D02*
X171767500Y-106155000D01*
X160337500Y-102235000D02*
X167847500Y-102235000D01*
%TO.N,Net-(D64-A)*%
X148797500Y-102235000D02*
X152717500Y-106155000D01*
X141287500Y-102235000D02*
X148797500Y-102235000D01*
%TO.N,Net-(D63-A)*%
X129747500Y-102235000D02*
X133667500Y-106155000D01*
X122237500Y-102235000D02*
X129747500Y-102235000D01*
%TO.N,Net-(D62-A)*%
X110697500Y-102235000D02*
X114617500Y-106155000D01*
X103187500Y-102235000D02*
X110697500Y-102235000D01*
%TO.N,Net-(D61-A)*%
X91647500Y-102235000D02*
X95567500Y-106155000D01*
X84137500Y-102235000D02*
X91647500Y-102235000D01*
%TO.N,Net-(D60-A)*%
X72597500Y-102235000D02*
X76517500Y-106155000D01*
X65087500Y-102235000D02*
X72597500Y-102235000D01*
%TO.N,Net-(D59-A)*%
X41641250Y-102235000D02*
X45561250Y-106155000D01*
X34131250Y-102235000D02*
X41641250Y-102235000D01*
%TO.N,Net-(D58-A)*%
X448835000Y-92710000D02*
X452755000Y-96630000D01*
X441325000Y-92710000D02*
X448835000Y-92710000D01*
%TO.N,Net-(D57-A)*%
X429785000Y-83185000D02*
X433705000Y-87105000D01*
X422275000Y-83185000D02*
X429785000Y-83185000D01*
%TO.N,Net-(D56-A)*%
X410735000Y-83185000D02*
X414655000Y-87105000D01*
X403225000Y-83185000D02*
X410735000Y-83185000D01*
%TO.N,Net-(D55-A)*%
X391685000Y-83185000D02*
X395605000Y-87105000D01*
X384175000Y-83185000D02*
X391685000Y-83185000D01*
%TO.N,Net-(D54-A)*%
X367872500Y-83185000D02*
X371792500Y-87105000D01*
X360362500Y-83185000D02*
X367872500Y-83185000D01*
%TO.N,Net-(D53-A)*%
X348822500Y-83185000D02*
X352742500Y-87105000D01*
X341312500Y-83185000D02*
X348822500Y-83185000D01*
%TO.N,Net-(D52-A)*%
X329772500Y-83185000D02*
X333692500Y-87105000D01*
X322262500Y-83185000D02*
X329772500Y-83185000D01*
%TO.N,Net-(D51-A)*%
X301197500Y-83185000D02*
X305117500Y-87105000D01*
X293687500Y-83185000D02*
X301197500Y-83185000D01*
%TO.N,Net-(D50-A)*%
X277385000Y-83185000D02*
X281305000Y-87105000D01*
X269875000Y-83185000D02*
X277385000Y-83185000D01*
%TO.N,Net-(D49-A)*%
X258335000Y-83185000D02*
X262255000Y-87105000D01*
X250825000Y-83185000D02*
X258335000Y-83185000D01*
%TO.N,Net-(D48-A)*%
X239285000Y-83185000D02*
X243205000Y-87105000D01*
X231775000Y-83185000D02*
X239285000Y-83185000D01*
%TO.N,Net-(D47-A)*%
X220235000Y-83185000D02*
X224155000Y-87105000D01*
X212725000Y-83185000D02*
X220235000Y-83185000D01*
%TO.N,Net-(D46-A)*%
X201185000Y-83185000D02*
X205105000Y-87105000D01*
X193675000Y-83185000D02*
X201185000Y-83185000D01*
%TO.N,Net-(D45-A)*%
X182135000Y-83185000D02*
X186055000Y-87105000D01*
X174625000Y-83185000D02*
X182135000Y-83185000D01*
%TO.N,Net-(D44-A)*%
X163085000Y-83185000D02*
X167005000Y-87105000D01*
X155575000Y-83185000D02*
X163085000Y-83185000D01*
%TO.N,Net-(D43-A)*%
X144035000Y-83185000D02*
X147955000Y-87105000D01*
X136525000Y-83185000D02*
X144035000Y-83185000D01*
%TO.N,Net-(D42-A)*%
X124985000Y-83185000D02*
X128905000Y-87105000D01*
X117475000Y-83185000D02*
X124985000Y-83185000D01*
%TO.N,Net-(D41-A)*%
X105935000Y-83185000D02*
X109855000Y-87105000D01*
X98425000Y-83185000D02*
X105935000Y-83185000D01*
%TO.N,Net-(D40-A)*%
X86885000Y-83185000D02*
X90805000Y-87105000D01*
X79375000Y-83185000D02*
X86885000Y-83185000D01*
%TO.N,Net-(D39-A)*%
X67835000Y-83185000D02*
X71755000Y-87105000D01*
X60325000Y-83185000D02*
X67835000Y-83185000D01*
%TO.N,Net-(D38-A)*%
X44022500Y-83185000D02*
X47942500Y-87105000D01*
X36512500Y-83185000D02*
X44022500Y-83185000D01*
%TO.N,Net-(D36-A)*%
X429785000Y-64135000D02*
X433705000Y-68055000D01*
X422275000Y-64135000D02*
X429785000Y-64135000D01*
%TO.N,Net-(D35-A)*%
X410735000Y-64135000D02*
X414655000Y-68055000D01*
X403225000Y-64135000D02*
X410735000Y-64135000D01*
%TO.N,Net-(D34-A)*%
X391685000Y-64135000D02*
X395605000Y-68055000D01*
X384175000Y-64135000D02*
X391685000Y-64135000D01*
%TO.N,Net-(D33-A)*%
X367872500Y-64135000D02*
X371792500Y-68055000D01*
X360362500Y-64135000D02*
X367872500Y-64135000D01*
%TO.N,Net-(D32-A)*%
X348822500Y-64135000D02*
X352742500Y-68055000D01*
X341312500Y-64135000D02*
X348822500Y-64135000D01*
%TO.N,Net-(D31-A)*%
X329772500Y-64135000D02*
X333692500Y-68055000D01*
X322262500Y-64135000D02*
X329772500Y-64135000D01*
%TO.N,Net-(D30-A)*%
X296435000Y-64135000D02*
X300355000Y-68055000D01*
X288925000Y-64135000D02*
X296435000Y-64135000D01*
%TO.N,Net-(D29-A)*%
X267860000Y-64135000D02*
X271780000Y-68055000D01*
X260350000Y-64135000D02*
X267860000Y-64135000D01*
%TO.N,Net-(D28-A)*%
X248810000Y-64135000D02*
X252730000Y-68055000D01*
X241300000Y-64135000D02*
X248810000Y-64135000D01*
%TO.N,Net-(D27-A)*%
X229760000Y-64135000D02*
X233680000Y-68055000D01*
X222250000Y-64135000D02*
X229760000Y-64135000D01*
%TO.N,Net-(D26-A)*%
X210710000Y-64135000D02*
X214630000Y-68055000D01*
X203200000Y-64135000D02*
X210710000Y-64135000D01*
%TO.N,Net-(D25-A)*%
X191660000Y-64135000D02*
X195580000Y-68055000D01*
X184150000Y-64135000D02*
X191660000Y-64135000D01*
%TO.N,Net-(D24-A)*%
X172610000Y-64135000D02*
X176530000Y-68055000D01*
X165100000Y-64135000D02*
X172610000Y-64135000D01*
%TO.N,Net-(D23-A)*%
X153560000Y-64135000D02*
X157480000Y-68055000D01*
X146050000Y-64135000D02*
X153560000Y-64135000D01*
%TO.N,Net-(D22-A)*%
X134510000Y-64135000D02*
X138430000Y-68055000D01*
X127000000Y-64135000D02*
X134510000Y-64135000D01*
%TO.N,Net-(D21-A)*%
X115460000Y-64135000D02*
X119380000Y-68055000D01*
X107950000Y-64135000D02*
X115460000Y-64135000D01*
%TO.N,Net-(D20-A)*%
X96410000Y-64135000D02*
X100330000Y-68055000D01*
X88900000Y-64135000D02*
X96410000Y-64135000D01*
%TO.N,Net-(D19-A)*%
X77360000Y-64135000D02*
X81280000Y-68055000D01*
X69850000Y-64135000D02*
X77360000Y-64135000D01*
%TO.N,Net-(D18-A)*%
X58310000Y-64135000D02*
X62230000Y-68055000D01*
X50800000Y-64135000D02*
X58310000Y-64135000D01*
%TO.N,Net-(D17-A)*%
X39260000Y-64135000D02*
X43180000Y-68055000D01*
X31750000Y-64135000D02*
X39260000Y-64135000D01*
%TO.N,Net-(D16-A)*%
X367872500Y-35560000D02*
X371792500Y-39480000D01*
X360362500Y-35560000D02*
X367872500Y-35560000D01*
%TO.N,Net-(D15-A)*%
X348822500Y-35560000D02*
X352742500Y-39480000D01*
X341312500Y-35560000D02*
X348822500Y-35560000D01*
%TO.N,Net-(D14-A)*%
X329772500Y-35560000D02*
X333692500Y-39480000D01*
X322262500Y-35560000D02*
X329772500Y-35560000D01*
%TO.N,Net-(D13-A)*%
X305960000Y-35560000D02*
X309880000Y-39480000D01*
X298450000Y-35560000D02*
X305960000Y-35560000D01*
%TO.N,Net-(D12-A)*%
X286910000Y-35560000D02*
X290830000Y-39480000D01*
X279400000Y-35560000D02*
X286910000Y-35560000D01*
%TO.N,Net-(D11-A)*%
X267860000Y-35560000D02*
X271780000Y-39480000D01*
X260350000Y-35560000D02*
X267860000Y-35560000D01*
%TO.N,Net-(D10-A)*%
X248810000Y-35560000D02*
X252730000Y-39480000D01*
X241300000Y-35560000D02*
X248810000Y-35560000D01*
%TO.N,Net-(D9-A)*%
X220235000Y-35560000D02*
X224155000Y-39480000D01*
X212725000Y-35560000D02*
X220235000Y-35560000D01*
%TO.N,Net-(D8-A)*%
X201185000Y-35560000D02*
X205105000Y-39480000D01*
X193675000Y-35560000D02*
X201185000Y-35560000D01*
%TO.N,Net-(D7-A)*%
X182135000Y-35560000D02*
X186055000Y-39480000D01*
X174625000Y-35560000D02*
X182135000Y-35560000D01*
%TO.N,Net-(D6-A)*%
X163085000Y-35560000D02*
X167005000Y-39480000D01*
X155575000Y-35560000D02*
X163085000Y-35560000D01*
%TO.N,Net-(D5-A)*%
X134510000Y-35560000D02*
X138430000Y-39480000D01*
X127000000Y-35560000D02*
X134510000Y-35560000D01*
%TO.N,Net-(D4-A)*%
X115460000Y-35560000D02*
X119380000Y-39480000D01*
X107950000Y-35560000D02*
X115460000Y-35560000D01*
%TO.N,Net-(D3-A)*%
X96410000Y-35560000D02*
X100330000Y-39480000D01*
X88900000Y-35560000D02*
X96410000Y-35560000D01*
%TO.N,Net-(D2-A)*%
X77360000Y-35560000D02*
X81280000Y-39480000D01*
X69850000Y-35560000D02*
X77360000Y-35560000D01*
%TO.N,Net-(D1-A)*%
X39260000Y-35560000D02*
X43180000Y-39480000D01*
X31750000Y-35560000D02*
X39260000Y-35560000D01*
%TO.N,col1*%
X80452000Y-43198874D02*
X80452000Y-42361126D01*
X171450000Y-66675000D02*
X158270473Y-66675000D01*
X84713126Y-38100000D02*
X95250000Y-38100000D01*
X80711126Y-43458000D02*
X80452000Y-43198874D01*
X158270473Y-66675000D02*
X135053473Y-43458000D01*
X135053473Y-43458000D02*
X80711126Y-43458000D01*
X80452000Y-42361126D02*
X84713126Y-38100000D01*
%TO.N,col6*%
X219075000Y-38100000D02*
X205895473Y-38100000D01*
X147127000Y-89986126D02*
X147127000Y-90823874D01*
X205895473Y-38100000D02*
X198460473Y-30665000D01*
X198460473Y-30665000D02*
X72684527Y-30665000D01*
X127580314Y-65536000D02*
X128401000Y-64715314D01*
X72684527Y-30665000D02*
X68449000Y-34900527D01*
X68449000Y-36140314D02*
X91548686Y-59240000D01*
X68449000Y-34900527D02*
X68449000Y-36140314D01*
X91548686Y-59240000D02*
X120123686Y-59240000D01*
X138998874Y-72033000D02*
X148783000Y-81817126D01*
X120123686Y-59240000D02*
X126419686Y-65536000D01*
X126419686Y-65536000D02*
X127580314Y-65536000D01*
X128401000Y-64715314D02*
X133885314Y-64715314D01*
X133885314Y-64715314D02*
X134870000Y-65700000D01*
X134870000Y-65700000D02*
X134870000Y-69041874D01*
X134870000Y-69041874D02*
X137861126Y-72033000D01*
X137861126Y-72033000D02*
X138998874Y-72033000D01*
X148783000Y-81817126D02*
X148783000Y-88330126D01*
X148783000Y-88330126D02*
X147127000Y-89986126D01*
X147127000Y-90823874D02*
X153643126Y-97340000D01*
X153643126Y-97340000D02*
X229661186Y-97340000D01*
X229661186Y-97340000D02*
X237096186Y-104775000D01*
X237096186Y-104775000D02*
X242887500Y-104775000D01*
%TD*%
M02*
