%TF.GenerationSoftware,KiCad,Pcbnew,9.0.2*%
%TF.CreationDate,2025-06-28T16:46:27+02:00*%
%TF.ProjectId,modern-keyboard-template,6d6f6465-726e-42d6-9b65-79626f617264,rev?*%
%TF.SameCoordinates,Original*%
%TF.FileFunction,Profile,NP*%
%FSLAX46Y46*%
G04 Gerber Fmt 4.6, Leading zero omitted, Abs format (unit mm)*
G04 Created by KiCad (PCBNEW 9.0.2) date 2025-06-28 16:46:27*
%MOMM*%
%LPD*%
G01*
G04 APERTURE LIST*
%TA.AperFunction,Profile*%
%ADD10C,0.050000*%
%TD*%
%TA.AperFunction,Profile*%
%ADD11C,0.400000*%
%TD*%
G04 APERTURE END LIST*
D10*
X463760000Y-16400000D02*
X464742500Y-17440000D01*
X461580000Y-14800000D02*
X463760000Y-16400000D01*
X459160000Y-13930000D02*
X461580000Y-14800000D01*
X456210000Y-13490000D02*
X459160000Y-13930000D01*
X451800000Y-13520000D02*
X456210000Y-13490000D01*
X464735000Y-19950000D02*
X464735000Y-17440000D01*
X464735000Y-19950000D02*
X464750000Y-14930000D01*
D11*
X24014810Y-13420000D02*
X451800000Y-13520000D01*
X20339389Y-14942409D02*
X24014810Y-13420000D01*
X17482409Y-17799389D02*
X20339389Y-14942409D01*
X15960000Y-21474810D02*
X17482409Y-17799389D01*
X15960000Y-71307278D02*
X15960000Y-21474810D01*
X18405727Y-149570541D02*
X15960000Y-71307278D01*
X19920981Y-153072933D02*
X18405727Y-149570541D01*
X22720639Y-155872591D02*
X19920981Y-153072933D01*
X26396060Y-157395000D02*
X22720639Y-155872591D01*
X436805404Y-157395000D02*
X26396060Y-157395000D01*
X439071786Y-156859980D02*
X436805404Y-157395000D01*
X459884214Y-146453766D02*
X439071786Y-156859980D01*
X461192124Y-145511078D02*
X459884214Y-146453766D01*
X463212591Y-143490611D02*
X461192124Y-145511078D01*
X464735000Y-139815190D02*
X463212591Y-143490611D01*
X464735000Y-19950000D02*
X464735000Y-139815190D01*
M02*
