M48
INCH
T1C0.0157
T2C0.0236
T3C0.0394
T4C0.0591
%
G90
G05
T1
X16.9353Y-1.6544
X16.9751Y-1.6257
X17.1783Y-1.8429
X17.2201Y-1.7454
X17.2618Y-1.3139
X17.2757Y-1.2443
X17.4567Y-1.5505
X17.648Y-1.3606
X17.7957Y-1.4495
X17.8744Y-1.4019
T3
X2.0256Y-0.739
X2.1256Y-0.739
X2.2256Y-0.739
X2.3256Y-0.739
X18.0815Y-1.1705
X18.0815Y-1.2705
X18.0815Y-1.3705
X18.0815Y-1.4705
X18.0815Y-1.5705
T4
X1.25Y-1.4
X1.25Y-2.525
X1.3438Y-4.025
X1.3438Y-5.525
X1.4375Y-3.275
X1.5Y-1.5
X1.5Y-2.625
X1.5938Y-4.125
X1.5938Y-5.625
X1.6875Y-3.375
X1.7188Y-4.775
X1.9688Y-4.875
X2.0Y-2.525
X2.25Y-2.625
X2.2812Y-5.525
X2.375Y-3.275
X2.5312Y-5.625
X2.5625Y-4.025
X2.625Y-3.375
X2.75Y-1.4
X2.75Y-2.525
X2.8125Y-4.125
X2.9375Y-4.775
X3.0Y-1.5
X3.0Y-2.625
X3.125Y-3.275
X3.1875Y-4.875
X3.2188Y-5.525
X3.3125Y-4.025
X3.375Y-3.375
X3.4688Y-5.625
X3.5Y-1.4
X3.5Y-2.525
X3.5625Y-4.125
X3.6875Y-4.775
X3.75Y-1.5
X3.75Y-2.625
X3.875Y-3.275
X3.9375Y-4.875
X4.0625Y-4.025
X4.125Y-3.375
X4.25Y-1.4
X4.25Y-2.525
X4.3125Y-4.125
X4.4375Y-4.775
X4.5Y-1.5
X4.5Y-2.625
X4.625Y-3.275
X4.6875Y-4.875
X4.8125Y-4.025
X4.875Y-3.375
X5.0Y-1.4
X5.0Y-2.525
X5.0625Y-4.125
X5.1875Y-4.775
X5.25Y-1.5
X5.25Y-2.625
X5.375Y-3.275
X5.4375Y-4.875
X5.5625Y-4.025
X5.625Y-3.375
X5.75Y-2.525
X5.8125Y-4.125
X5.9375Y-4.775
X6.0Y-2.625
X6.0312Y-5.525
X6.125Y-1.4
X6.125Y-3.275
X6.1875Y-4.875
X6.2812Y-5.625
X6.3125Y-4.025
X6.375Y-1.5
X6.375Y-3.375
X6.5Y-2.525
X6.5625Y-4.125
X6.6875Y-4.775
X6.75Y-2.625
X6.875Y-1.4
X6.875Y-3.275
X6.9375Y-4.875
X7.0625Y-4.025
X7.125Y-1.5
X7.125Y-3.375
X7.25Y-2.525
X7.3125Y-4.125
X7.4375Y-4.775
X7.5Y-2.625
X7.625Y-1.4
X7.625Y-3.275
X7.6875Y-4.875
X7.8125Y-4.025
X7.875Y-1.5
X7.875Y-3.375
X8.0Y-2.525
X8.0625Y-4.125
X8.1875Y-4.775
X8.25Y-2.625
X8.375Y-1.4
X8.375Y-3.275
X8.4375Y-4.875
X8.5625Y-4.025
X8.625Y-1.5
X8.625Y-3.375
X8.75Y-2.525
X8.8125Y-4.125
X8.8438Y-5.525
X8.9375Y-4.775
X9.0Y-2.625
X9.0938Y-5.625
X9.125Y-3.275
X9.1875Y-4.875
X9.3125Y-4.025
X9.375Y-3.375
X9.5Y-1.4
X9.5Y-2.525
X9.5625Y-4.125
X9.6875Y-4.775
X9.75Y-1.5
X9.75Y-2.625
X9.7812Y-5.525
X9.875Y-3.275
X9.9375Y-4.875
X10.0312Y-5.625
X10.0625Y-4.025
X10.125Y-3.375
X10.25Y-1.4
X10.25Y-2.525
X10.3125Y-4.125
X10.5Y-1.5
X10.5Y-2.625
X10.625Y-3.275
X10.7188Y-5.525
X10.875Y-3.375
X10.9688Y-5.625
X11.0Y-1.4
X11.0938Y-4.775
X11.25Y-1.5
X11.2812Y-4.025
X11.3438Y-4.875
X11.375Y-2.525
X11.5312Y-4.125
X11.5625Y-3.275
X11.625Y-2.625
X11.6562Y-5.525
X11.75Y-1.4
X11.8125Y-3.375
X11.9062Y-5.625
X12.0Y-1.5
X12.6875Y-1.4
X12.6875Y-2.525
X12.6875Y-3.275
X12.6875Y-5.525
X12.9375Y-1.5
X12.9375Y-2.625
X12.9375Y-3.375
X12.9375Y-5.625
X13.4375Y-1.4
X13.4375Y-2.525
X13.4375Y-3.275
X13.4375Y-4.775
X13.4375Y-5.525
X13.6875Y-1.5
X13.6875Y-2.625
X13.6875Y-3.375
X13.6875Y-4.875
X13.6875Y-5.625
X14.1875Y-1.4
X14.1875Y-2.525
X14.1875Y-3.275
X14.1875Y-5.525
X14.4375Y-1.5
X14.4375Y-2.625
X14.4375Y-3.375
X14.4375Y-5.625
X15.125Y-2.525
X15.125Y-3.275
X15.125Y-4.025
X15.125Y-4.775
X15.375Y-2.625
X15.375Y-3.375
X15.375Y-4.125
X15.375Y-4.875
X15.5Y-5.525
X15.75Y-5.625
X15.875Y-2.525
X15.875Y-3.275
X15.875Y-4.025
X15.875Y-4.775
X16.125Y-2.625
X16.125Y-3.375
X16.125Y-4.125
X16.125Y-4.875
X16.625Y-2.525
X16.625Y-3.275
X16.625Y-4.025
X16.625Y-4.775
X16.625Y-5.525
X16.875Y-2.625
X16.875Y-3.375
X16.875Y-4.125
X16.875Y-4.875
X16.875Y-5.625
X17.375Y-2.525
X17.375Y-3.65
X17.375Y-5.15
X17.625Y-2.625
X17.625Y-3.75
X17.625Y-5.25
T2
G00X17.5272Y-1.0811
M15
G01X17.5272Y-1.1047
M16
G05
G00X17.5272Y-1.2358
M15
G01X17.5272Y-1.2791
M16
G05
G00X17.8673Y-1.0811
M15
G01X17.8673Y-1.1047
M16
G05
G00X17.8673Y-1.2358
M15
G01X17.8673Y-1.2791
M16
G05
M30
