%TF.GenerationSoftware,KiCad,Pcbnew,9.0.2*%
%TF.CreationDate,2025-06-28T16:46:27+02:00*%
%TF.ProjectId,modern-keyboard-template,6d6f6465-726e-42d6-9b65-79626f617264,rev?*%
%TF.SameCoordinates,Original*%
%TF.FileFunction,Soldermask,Top*%
%TF.FilePolarity,Negative*%
%FSLAX46Y46*%
G04 Gerber Fmt 4.6, Leading zero omitted, Abs format (unit mm)*
G04 Created by KiCad (PCBNEW 9.0.2) date 2025-06-28 16:46:27*
%MOMM*%
%LPD*%
G01*
G04 APERTURE LIST*
G04 Aperture macros list*
%AMRoundRect*
0 Rectangle with rounded corners*
0 $1 Rounding radius*
0 $2 $3 $4 $5 $6 $7 $8 $9 X,Y pos of 4 corners*
0 Add a 4 corners polygon primitive as box body*
4,1,4,$2,$3,$4,$5,$6,$7,$8,$9,$2,$3,0*
0 Add four circle primitives for the rounded corners*
1,1,$1+$1,$2,$3*
1,1,$1+$1,$4,$5*
1,1,$1+$1,$6,$7*
1,1,$1+$1,$8,$9*
0 Add four rect primitives between the rounded corners*
20,1,$1+$1,$2,$3,$4,$5,0*
20,1,$1+$1,$4,$5,$6,$7,0*
20,1,$1+$1,$6,$7,$8,$9,0*
20,1,$1+$1,$8,$9,$2,$3,0*%
G04 Aperture macros list end*
%ADD10R,1.700000X1.700000*%
%ADD11O,1.700000X1.700000*%
%ADD12O,1.000000X2.100000*%
%ADD13O,1.000000X1.600000*%
%ADD14C,0.650000*%
%ADD15RoundRect,0.250000X-0.375000X-0.625000X0.375000X-0.625000X0.375000X0.625000X-0.375000X0.625000X0*%
%ADD16RoundRect,0.225000X-0.225000X-0.250000X0.225000X-0.250000X0.225000X0.250000X-0.225000X0.250000X0*%
%ADD17RoundRect,0.140000X-0.140000X-0.170000X0.140000X-0.170000X0.140000X0.170000X-0.140000X0.170000X0*%
%ADD18RoundRect,0.150000X-0.587500X-0.150000X0.587500X-0.150000X0.587500X0.150000X-0.587500X0.150000X0*%
%ADD19RoundRect,0.135000X-0.135000X-0.185000X0.135000X-0.185000X0.135000X0.185000X-0.135000X0.185000X0*%
%ADD20RoundRect,0.175000X-0.175000X-0.325000X0.175000X-0.325000X0.175000X0.325000X-0.175000X0.325000X0*%
%ADD21RoundRect,0.150000X-0.200000X-0.150000X0.200000X-0.150000X0.200000X0.150000X-0.200000X0.150000X0*%
%ADD22RoundRect,0.100000X-0.650000X-0.100000X0.650000X-0.100000X0.650000X0.100000X-0.650000X0.100000X0*%
%ADD23C,2.200000*%
%ADD24C,1.700000*%
%ADD25C,4.000000*%
G04 APERTURE END LIST*
D10*
%TO.C,J2*%
X459270000Y-29730000D03*
D11*
X459270000Y-32270000D03*
X459270000Y-34810000D03*
X459270000Y-37350000D03*
X459270000Y-39890000D03*
%TD*%
D12*
%TO.C,J1*%
X453830000Y-31940000D03*
D13*
X453830000Y-27760000D03*
D12*
X445190000Y-31940000D03*
D13*
X445190000Y-27760000D03*
D14*
X452400000Y-31410000D03*
X446620000Y-31410000D03*
%TD*%
D15*
%TO.C,F1*%
X416957500Y-27795000D03*
X419757500Y-27795000D03*
%TD*%
D16*
%TO.C,C2*%
X417722500Y-23475000D03*
X419272500Y-23475000D03*
%TD*%
D17*
%TO.C,C8*%
X408727500Y-23205000D03*
X409687500Y-23205000D03*
%TD*%
%TO.C,C9*%
X408727500Y-25175000D03*
X409687500Y-25175000D03*
%TD*%
%TO.C,C10*%
X408727500Y-27145000D03*
X409687500Y-27145000D03*
%TD*%
%TO.C,C43*%
X408727500Y-29115000D03*
X409687500Y-29115000D03*
%TD*%
%TO.C,C44*%
X408727500Y-31085000D03*
X409687500Y-31085000D03*
%TD*%
D18*
%TO.C,U3*%
X412160000Y-27590000D03*
X412160000Y-29490000D03*
X414035000Y-28540000D03*
%TD*%
D19*
%TO.C,R1*%
X411587500Y-31755000D03*
X412607500Y-31755000D03*
%TD*%
%TO.C,R2*%
X411587500Y-33745000D03*
X412607500Y-33745000D03*
%TD*%
D20*
%TO.C,U2*%
X416677500Y-31100000D03*
D21*
X416677500Y-32800000D03*
X418677500Y-32800000D03*
X418677500Y-30900000D03*
%TD*%
D22*
%TO.C,U5*%
X412237500Y-23570000D03*
X412237500Y-24220000D03*
X412237500Y-24870000D03*
X414897500Y-24870000D03*
X414897500Y-24220000D03*
X414897500Y-23570000D03*
%TD*%
D23*
%TO.C,MX1*%
X31750000Y-35560000D03*
X38100000Y-38100000D03*
D24*
X40640000Y-33020000D03*
D25*
X35560000Y-33020000D03*
D24*
X30480000Y-33020000D03*
%TD*%
D23*
%TO.C,MX2*%
X69850000Y-35560000D03*
X76200000Y-38100000D03*
D24*
X78740000Y-33020000D03*
D25*
X73660000Y-33020000D03*
D24*
X68580000Y-33020000D03*
%TD*%
D23*
%TO.C,MX3*%
X88900000Y-35560000D03*
X95250000Y-38100000D03*
D24*
X97790000Y-33020000D03*
D25*
X92710000Y-33020000D03*
D24*
X87630000Y-33020000D03*
%TD*%
D23*
%TO.C,MX4*%
X107950000Y-35560000D03*
X114300000Y-38100000D03*
D24*
X116840000Y-33020000D03*
D25*
X111760000Y-33020000D03*
D24*
X106680000Y-33020000D03*
%TD*%
D23*
%TO.C,MX5*%
X127000000Y-35560000D03*
X133350000Y-38100000D03*
D24*
X135890000Y-33020000D03*
D25*
X130810000Y-33020000D03*
D24*
X125730000Y-33020000D03*
%TD*%
D23*
%TO.C,MX6*%
X155575000Y-35560000D03*
X161925000Y-38100000D03*
D24*
X164465000Y-33020000D03*
D25*
X159385000Y-33020000D03*
D24*
X154305000Y-33020000D03*
%TD*%
D23*
%TO.C,MX7*%
X174625000Y-35560000D03*
X180975000Y-38100000D03*
D24*
X183515000Y-33020000D03*
D25*
X178435000Y-33020000D03*
D24*
X173355000Y-33020000D03*
%TD*%
D23*
%TO.C,MX8*%
X193675000Y-35560000D03*
X200025000Y-38100000D03*
D24*
X202565000Y-33020000D03*
D25*
X197485000Y-33020000D03*
D24*
X192405000Y-33020000D03*
%TD*%
D23*
%TO.C,MX9*%
X212725000Y-35560000D03*
X219075000Y-38100000D03*
D24*
X221615000Y-33020000D03*
D25*
X216535000Y-33020000D03*
D24*
X211455000Y-33020000D03*
%TD*%
D23*
%TO.C,MX10*%
X241300000Y-35560000D03*
X247650000Y-38100000D03*
D24*
X250190000Y-33020000D03*
D25*
X245110000Y-33020000D03*
D24*
X240030000Y-33020000D03*
%TD*%
D23*
%TO.C,MX11*%
X260350000Y-35560000D03*
X266700000Y-38100000D03*
D24*
X269240000Y-33020000D03*
D25*
X264160000Y-33020000D03*
D24*
X259080000Y-33020000D03*
%TD*%
D23*
%TO.C,MX12*%
X279400000Y-35560000D03*
X285750000Y-38100000D03*
D24*
X288290000Y-33020000D03*
D25*
X283210000Y-33020000D03*
D24*
X278130000Y-33020000D03*
%TD*%
D23*
%TO.C,MX13*%
X298450000Y-35560000D03*
X304800000Y-38100000D03*
D24*
X307340000Y-33020000D03*
D25*
X302260000Y-33020000D03*
D24*
X297180000Y-33020000D03*
%TD*%
D23*
%TO.C,MX14*%
X322262500Y-35560000D03*
X328612500Y-38100000D03*
D24*
X331152500Y-33020000D03*
D25*
X326072500Y-33020000D03*
D24*
X320992500Y-33020000D03*
%TD*%
D23*
%TO.C,MX15*%
X341312500Y-35560000D03*
X347662500Y-38100000D03*
D24*
X350202500Y-33020000D03*
D25*
X345122500Y-33020000D03*
D24*
X340042500Y-33020000D03*
%TD*%
D23*
%TO.C,MX16*%
X360362500Y-35560000D03*
X366712500Y-38100000D03*
D24*
X369252500Y-33020000D03*
D25*
X364172500Y-33020000D03*
D24*
X359092500Y-33020000D03*
%TD*%
D23*
%TO.C,MX17*%
X31750000Y-64135000D03*
X38100000Y-66675000D03*
D24*
X40640000Y-61595000D03*
D25*
X35560000Y-61595000D03*
D24*
X30480000Y-61595000D03*
%TD*%
D23*
%TO.C,MX18*%
X50800000Y-64135000D03*
X57150000Y-66675000D03*
D24*
X59690000Y-61595000D03*
D25*
X54610000Y-61595000D03*
D24*
X49530000Y-61595000D03*
%TD*%
D23*
%TO.C,MX19*%
X69850000Y-64135000D03*
X76200000Y-66675000D03*
D24*
X78740000Y-61595000D03*
D25*
X73660000Y-61595000D03*
D24*
X68580000Y-61595000D03*
%TD*%
D23*
%TO.C,MX20*%
X88900000Y-64135000D03*
X95250000Y-66675000D03*
D24*
X97790000Y-61595000D03*
D25*
X92710000Y-61595000D03*
D24*
X87630000Y-61595000D03*
%TD*%
D23*
%TO.C,MX21*%
X107950000Y-64135000D03*
X114300000Y-66675000D03*
D24*
X116840000Y-61595000D03*
D25*
X111760000Y-61595000D03*
D24*
X106680000Y-61595000D03*
%TD*%
D23*
%TO.C,MX22*%
X127000000Y-64135000D03*
X133350000Y-66675000D03*
D24*
X135890000Y-61595000D03*
D25*
X130810000Y-61595000D03*
D24*
X125730000Y-61595000D03*
%TD*%
D23*
%TO.C,MX23*%
X146050000Y-64135000D03*
X152400000Y-66675000D03*
D24*
X154940000Y-61595000D03*
D25*
X149860000Y-61595000D03*
D24*
X144780000Y-61595000D03*
%TD*%
D23*
%TO.C,MX24*%
X165100000Y-64135000D03*
X171450000Y-66675000D03*
D24*
X173990000Y-61595000D03*
D25*
X168910000Y-61595000D03*
D24*
X163830000Y-61595000D03*
%TD*%
D23*
%TO.C,MX25*%
X184150000Y-64135000D03*
X190500000Y-66675000D03*
D24*
X193040000Y-61595000D03*
D25*
X187960000Y-61595000D03*
D24*
X182880000Y-61595000D03*
%TD*%
D23*
%TO.C,MX26*%
X203200000Y-64135000D03*
X209550000Y-66675000D03*
D24*
X212090000Y-61595000D03*
D25*
X207010000Y-61595000D03*
D24*
X201930000Y-61595000D03*
%TD*%
D23*
%TO.C,MX27*%
X222250000Y-64135000D03*
X228600000Y-66675000D03*
D24*
X231140000Y-61595000D03*
D25*
X226060000Y-61595000D03*
D24*
X220980000Y-61595000D03*
%TD*%
D23*
%TO.C,MX28*%
X241300000Y-64135000D03*
X247650000Y-66675000D03*
D24*
X250190000Y-61595000D03*
D25*
X245110000Y-61595000D03*
D24*
X240030000Y-61595000D03*
%TD*%
D23*
%TO.C,MX29*%
X260350000Y-64135000D03*
X266700000Y-66675000D03*
D24*
X269240000Y-61595000D03*
D25*
X264160000Y-61595000D03*
D24*
X259080000Y-61595000D03*
%TD*%
D23*
%TO.C,MX30*%
X288925000Y-64135000D03*
X295275000Y-66675000D03*
D24*
X297815000Y-61595000D03*
D25*
X292735000Y-61595000D03*
D24*
X287655000Y-61595000D03*
%TD*%
D23*
%TO.C,MX31*%
X322262500Y-64135000D03*
X328612500Y-66675000D03*
D24*
X331152500Y-61595000D03*
D25*
X326072500Y-61595000D03*
D24*
X320992500Y-61595000D03*
%TD*%
D23*
%TO.C,MX32*%
X341312500Y-64135000D03*
X347662500Y-66675000D03*
D24*
X350202500Y-61595000D03*
D25*
X345122500Y-61595000D03*
D24*
X340042500Y-61595000D03*
%TD*%
D23*
%TO.C,MX33*%
X360362500Y-64135000D03*
X366712500Y-66675000D03*
D24*
X369252500Y-61595000D03*
D25*
X364172500Y-61595000D03*
D24*
X359092500Y-61595000D03*
%TD*%
D23*
%TO.C,MX34*%
X384175000Y-64135000D03*
X390525000Y-66675000D03*
D24*
X393065000Y-61595000D03*
D25*
X387985000Y-61595000D03*
D24*
X382905000Y-61595000D03*
%TD*%
D23*
%TO.C,MX35*%
X403225000Y-64135000D03*
X409575000Y-66675000D03*
D24*
X412115000Y-61595000D03*
D25*
X407035000Y-61595000D03*
D24*
X401955000Y-61595000D03*
%TD*%
D23*
%TO.C,MX36*%
X422275000Y-64135000D03*
X428625000Y-66675000D03*
D24*
X431165000Y-61595000D03*
D25*
X426085000Y-61595000D03*
D24*
X421005000Y-61595000D03*
%TD*%
%TO.C,MX37*%
X440055000Y-61595000D03*
D25*
X445135000Y-61595000D03*
D24*
X450215000Y-61595000D03*
D23*
X447675000Y-66675000D03*
X441325000Y-64135000D03*
%TD*%
%TO.C,MX38*%
X36512500Y-83185000D03*
X42862500Y-85725000D03*
D24*
X45402500Y-80645000D03*
D25*
X40322500Y-80645000D03*
D24*
X35242500Y-80645000D03*
%TD*%
D23*
%TO.C,MX39*%
X60325000Y-83185000D03*
X66675000Y-85725000D03*
D24*
X69215000Y-80645000D03*
D25*
X64135000Y-80645000D03*
D24*
X59055000Y-80645000D03*
%TD*%
D23*
%TO.C,MX40*%
X79375000Y-83185000D03*
X85725000Y-85725000D03*
D24*
X88265000Y-80645000D03*
D25*
X83185000Y-80645000D03*
D24*
X78105000Y-80645000D03*
%TD*%
D23*
%TO.C,MX41*%
X98425000Y-83185000D03*
X104775000Y-85725000D03*
D24*
X107315000Y-80645000D03*
D25*
X102235000Y-80645000D03*
D24*
X97155000Y-80645000D03*
%TD*%
D23*
%TO.C,MX42*%
X117475000Y-83185000D03*
X123825000Y-85725000D03*
D24*
X126365000Y-80645000D03*
D25*
X121285000Y-80645000D03*
D24*
X116205000Y-80645000D03*
%TD*%
D23*
%TO.C,MX43*%
X136525000Y-83185000D03*
X142875000Y-85725000D03*
D24*
X145415000Y-80645000D03*
D25*
X140335000Y-80645000D03*
D24*
X135255000Y-80645000D03*
%TD*%
D23*
%TO.C,MX44*%
X155575000Y-83185000D03*
X161925000Y-85725000D03*
D24*
X164465000Y-80645000D03*
D25*
X159385000Y-80645000D03*
D24*
X154305000Y-80645000D03*
%TD*%
D23*
%TO.C,MX45*%
X174625000Y-83185000D03*
X180975000Y-85725000D03*
D24*
X183515000Y-80645000D03*
D25*
X178435000Y-80645000D03*
D24*
X173355000Y-80645000D03*
%TD*%
D23*
%TO.C,MX46*%
X193675000Y-83185000D03*
X200025000Y-85725000D03*
D24*
X202565000Y-80645000D03*
D25*
X197485000Y-80645000D03*
D24*
X192405000Y-80645000D03*
%TD*%
D23*
%TO.C,MX47*%
X212725000Y-83185000D03*
X219075000Y-85725000D03*
D24*
X221615000Y-80645000D03*
D25*
X216535000Y-80645000D03*
D24*
X211455000Y-80645000D03*
%TD*%
D23*
%TO.C,MX48*%
X231775000Y-83185000D03*
X238125000Y-85725000D03*
D24*
X240665000Y-80645000D03*
D25*
X235585000Y-80645000D03*
D24*
X230505000Y-80645000D03*
%TD*%
D23*
%TO.C,MX49*%
X250825000Y-83185000D03*
X257175000Y-85725000D03*
D24*
X259715000Y-80645000D03*
D25*
X254635000Y-80645000D03*
D24*
X249555000Y-80645000D03*
%TD*%
D23*
%TO.C,MX50*%
X269875000Y-83185000D03*
X276225000Y-85725000D03*
D24*
X278765000Y-80645000D03*
D25*
X273685000Y-80645000D03*
D24*
X268605000Y-80645000D03*
%TD*%
D23*
%TO.C,MX51*%
X293687500Y-83185000D03*
X300037500Y-85725000D03*
D24*
X302577500Y-80645000D03*
D25*
X297497500Y-80645000D03*
D24*
X292417500Y-80645000D03*
%TD*%
D23*
%TO.C,MX52*%
X322262500Y-83185000D03*
X328612500Y-85725000D03*
D24*
X331152500Y-80645000D03*
D25*
X326072500Y-80645000D03*
D24*
X320992500Y-80645000D03*
%TD*%
D23*
%TO.C,MX53*%
X341312500Y-83185000D03*
X347662500Y-85725000D03*
D24*
X350202500Y-80645000D03*
D25*
X345122500Y-80645000D03*
D24*
X340042500Y-80645000D03*
%TD*%
D23*
%TO.C,MX54*%
X360362500Y-83185000D03*
X366712500Y-85725000D03*
D24*
X369252500Y-80645000D03*
D25*
X364172500Y-80645000D03*
D24*
X359092500Y-80645000D03*
%TD*%
D23*
%TO.C,MX55*%
X384175000Y-83185000D03*
X390525000Y-85725000D03*
D24*
X393065000Y-80645000D03*
D25*
X387985000Y-80645000D03*
D24*
X382905000Y-80645000D03*
%TD*%
D23*
%TO.C,MX56*%
X403225000Y-83185000D03*
X409575000Y-85725000D03*
D24*
X412115000Y-80645000D03*
D25*
X407035000Y-80645000D03*
D24*
X401955000Y-80645000D03*
%TD*%
D23*
%TO.C,MX57*%
X422275000Y-83185000D03*
X428625000Y-85725000D03*
D24*
X431165000Y-80645000D03*
D25*
X426085000Y-80645000D03*
D24*
X421005000Y-80645000D03*
%TD*%
D23*
%TO.C,MX58*%
X441325000Y-92710000D03*
X447675000Y-95250000D03*
D24*
X450215000Y-90170000D03*
D25*
X445135000Y-90170000D03*
D24*
X440055000Y-90170000D03*
%TD*%
D23*
%TO.C,MX59*%
X34131250Y-102235000D03*
X40481250Y-104775000D03*
D24*
X43021250Y-99695000D03*
D25*
X37941250Y-99695000D03*
D24*
X32861250Y-99695000D03*
%TD*%
D23*
%TO.C,MX60*%
X65087500Y-102235000D03*
X71437500Y-104775000D03*
D24*
X73977500Y-99695000D03*
D25*
X68897500Y-99695000D03*
D24*
X63817500Y-99695000D03*
%TD*%
D23*
%TO.C,MX61*%
X84137500Y-102235000D03*
X90487500Y-104775000D03*
D24*
X93027500Y-99695000D03*
D25*
X87947500Y-99695000D03*
D24*
X82867500Y-99695000D03*
%TD*%
D23*
%TO.C,MX62*%
X103187500Y-102235000D03*
X109537500Y-104775000D03*
D24*
X112077500Y-99695000D03*
D25*
X106997500Y-99695000D03*
D24*
X101917500Y-99695000D03*
%TD*%
D23*
%TO.C,MX63*%
X122237500Y-102235000D03*
X128587500Y-104775000D03*
D24*
X131127500Y-99695000D03*
D25*
X126047500Y-99695000D03*
D24*
X120967500Y-99695000D03*
%TD*%
D23*
%TO.C,MX64*%
X141287500Y-102235000D03*
X147637500Y-104775000D03*
D24*
X150177500Y-99695000D03*
D25*
X145097500Y-99695000D03*
D24*
X140017500Y-99695000D03*
%TD*%
D23*
%TO.C,MX65*%
X160337500Y-102235000D03*
X166687500Y-104775000D03*
D24*
X169227500Y-99695000D03*
D25*
X164147500Y-99695000D03*
D24*
X159067500Y-99695000D03*
%TD*%
D23*
%TO.C,MX66*%
X179387500Y-102235000D03*
X185737500Y-104775000D03*
D24*
X188277500Y-99695000D03*
D25*
X183197500Y-99695000D03*
D24*
X178117500Y-99695000D03*
%TD*%
D23*
%TO.C,MX67*%
X198437500Y-102235000D03*
X204787500Y-104775000D03*
D24*
X207327500Y-99695000D03*
D25*
X202247500Y-99695000D03*
D24*
X197167500Y-99695000D03*
%TD*%
D23*
%TO.C,MX68*%
X217487500Y-102235000D03*
X223837500Y-104775000D03*
D24*
X226377500Y-99695000D03*
D25*
X221297500Y-99695000D03*
D24*
X216217500Y-99695000D03*
%TD*%
D23*
%TO.C,MX69*%
X236537500Y-102235000D03*
X242887500Y-104775000D03*
D24*
X245427500Y-99695000D03*
D25*
X240347500Y-99695000D03*
D24*
X235267500Y-99695000D03*
%TD*%
D23*
%TO.C,MX70*%
X255587500Y-102235000D03*
X261937500Y-104775000D03*
D24*
X264477500Y-99695000D03*
D25*
X259397500Y-99695000D03*
D24*
X254317500Y-99695000D03*
%TD*%
D23*
%TO.C,MX71*%
X286543750Y-102235000D03*
X292893750Y-104775000D03*
D24*
X295433750Y-99695000D03*
D25*
X290353750Y-99695000D03*
D24*
X285273750Y-99695000D03*
%TD*%
D23*
%TO.C,MX72*%
X384175000Y-102235000D03*
X390525000Y-104775000D03*
D24*
X393065000Y-99695000D03*
D25*
X387985000Y-99695000D03*
D24*
X382905000Y-99695000D03*
%TD*%
D23*
%TO.C,MX73*%
X403225000Y-102235000D03*
X409575000Y-104775000D03*
D24*
X412115000Y-99695000D03*
D25*
X407035000Y-99695000D03*
D24*
X401955000Y-99695000D03*
%TD*%
D23*
%TO.C,MX74*%
X422275000Y-102235000D03*
X428625000Y-104775000D03*
D24*
X431165000Y-99695000D03*
D25*
X426085000Y-99695000D03*
D24*
X421005000Y-99695000D03*
%TD*%
D23*
%TO.C,MX75*%
X43656250Y-121285000D03*
X50006250Y-123825000D03*
D24*
X52546250Y-118745000D03*
D25*
X47466250Y-118745000D03*
D24*
X42386250Y-118745000D03*
%TD*%
D23*
%TO.C,MX76*%
X74612500Y-121285000D03*
X80962500Y-123825000D03*
D24*
X83502500Y-118745000D03*
D25*
X78422500Y-118745000D03*
D24*
X73342500Y-118745000D03*
%TD*%
D23*
%TO.C,MX77*%
X93662500Y-121285000D03*
X100012500Y-123825000D03*
D24*
X102552500Y-118745000D03*
D25*
X97472500Y-118745000D03*
D24*
X92392500Y-118745000D03*
%TD*%
D23*
%TO.C,MX78*%
X112712500Y-121285000D03*
X119062500Y-123825000D03*
D24*
X121602500Y-118745000D03*
D25*
X116522500Y-118745000D03*
D24*
X111442500Y-118745000D03*
%TD*%
D23*
%TO.C,MX79*%
X131762500Y-121285000D03*
X138112500Y-123825000D03*
D24*
X140652500Y-118745000D03*
D25*
X135572500Y-118745000D03*
D24*
X130492500Y-118745000D03*
%TD*%
D23*
%TO.C,MX80*%
X150812500Y-121285000D03*
X157162500Y-123825000D03*
D24*
X159702500Y-118745000D03*
D25*
X154622500Y-118745000D03*
D24*
X149542500Y-118745000D03*
%TD*%
D23*
%TO.C,MX81*%
X169862500Y-121285000D03*
X176212500Y-123825000D03*
D24*
X178752500Y-118745000D03*
D25*
X173672500Y-118745000D03*
D24*
X168592500Y-118745000D03*
%TD*%
D23*
%TO.C,MX82*%
X188912500Y-121285000D03*
X195262500Y-123825000D03*
D24*
X197802500Y-118745000D03*
D25*
X192722500Y-118745000D03*
D24*
X187642500Y-118745000D03*
%TD*%
D23*
%TO.C,MX83*%
X207962500Y-121285000D03*
X214312500Y-123825000D03*
D24*
X216852500Y-118745000D03*
D25*
X211772500Y-118745000D03*
D24*
X206692500Y-118745000D03*
%TD*%
D23*
%TO.C,MX84*%
X227012500Y-121285000D03*
X233362500Y-123825000D03*
D24*
X235902500Y-118745000D03*
D25*
X230822500Y-118745000D03*
D24*
X225742500Y-118745000D03*
%TD*%
D23*
%TO.C,MX85*%
X246062500Y-121285000D03*
X252412500Y-123825000D03*
D24*
X254952500Y-118745000D03*
D25*
X249872500Y-118745000D03*
D24*
X244792500Y-118745000D03*
%TD*%
D23*
%TO.C,MX86*%
X281781250Y-121285000D03*
X288131250Y-123825000D03*
D24*
X290671250Y-118745000D03*
D25*
X285591250Y-118745000D03*
D24*
X280511250Y-118745000D03*
%TD*%
D23*
%TO.C,MX87*%
X341312500Y-121285000D03*
X347662500Y-123825000D03*
D24*
X350202500Y-118745000D03*
D25*
X345122500Y-118745000D03*
D24*
X340042500Y-118745000D03*
%TD*%
D23*
%TO.C,MX88*%
X384175000Y-121285000D03*
X390525000Y-123825000D03*
D24*
X393065000Y-118745000D03*
D25*
X387985000Y-118745000D03*
D24*
X382905000Y-118745000D03*
%TD*%
D23*
%TO.C,MX89*%
X403225000Y-121285000D03*
X409575000Y-123825000D03*
D24*
X412115000Y-118745000D03*
D25*
X407035000Y-118745000D03*
D24*
X401955000Y-118745000D03*
%TD*%
D23*
%TO.C,MX90*%
X422275000Y-121285000D03*
X428625000Y-123825000D03*
D24*
X431165000Y-118745000D03*
D25*
X426085000Y-118745000D03*
D24*
X421005000Y-118745000D03*
%TD*%
D23*
%TO.C,MX91*%
X441325000Y-130810000D03*
X447675000Y-133350000D03*
D24*
X450215000Y-128270000D03*
D25*
X445135000Y-128270000D03*
D24*
X440055000Y-128270000D03*
%TD*%
D23*
%TO.C,MX92*%
X34131250Y-140335000D03*
X40481250Y-142875000D03*
D24*
X43021250Y-137795000D03*
D25*
X37941250Y-137795000D03*
D24*
X32861250Y-137795000D03*
%TD*%
D23*
%TO.C,MX93*%
X57943750Y-140335000D03*
X64293750Y-142875000D03*
D24*
X66833750Y-137795000D03*
D25*
X61753750Y-137795000D03*
D24*
X56673750Y-137795000D03*
%TD*%
D23*
%TO.C,MX94*%
X81756250Y-140335000D03*
X88106250Y-142875000D03*
D24*
X90646250Y-137795000D03*
D25*
X85566250Y-137795000D03*
D24*
X80486250Y-137795000D03*
%TD*%
D23*
%TO.C,MX95*%
X153193750Y-140335000D03*
X159543750Y-142875000D03*
D24*
X162083750Y-137795000D03*
D25*
X157003750Y-137795000D03*
D24*
X151923750Y-137795000D03*
%TD*%
D23*
%TO.C,MX96*%
X224631250Y-140335000D03*
X230981250Y-142875000D03*
D24*
X233521250Y-137795000D03*
D25*
X228441250Y-137795000D03*
D24*
X223361250Y-137795000D03*
%TD*%
D23*
%TO.C,MX97*%
X248443750Y-140335000D03*
X254793750Y-142875000D03*
D24*
X257333750Y-137795000D03*
D25*
X252253750Y-137795000D03*
D24*
X247173750Y-137795000D03*
%TD*%
D23*
%TO.C,MX98*%
X272256250Y-140335000D03*
X278606250Y-142875000D03*
D24*
X281146250Y-137795000D03*
D25*
X276066250Y-137795000D03*
D24*
X270986250Y-137795000D03*
%TD*%
D23*
%TO.C,MX99*%
X296068750Y-140335000D03*
X302418750Y-142875000D03*
D24*
X304958750Y-137795000D03*
D25*
X299878750Y-137795000D03*
D24*
X294798750Y-137795000D03*
%TD*%
D23*
%TO.C,MX100*%
X322262500Y-140335000D03*
X328612500Y-142875000D03*
D24*
X331152500Y-137795000D03*
D25*
X326072500Y-137795000D03*
D24*
X320992500Y-137795000D03*
%TD*%
%TO.C,MX101*%
X340042500Y-137795000D03*
D25*
X345122500Y-137795000D03*
D24*
X350202500Y-137795000D03*
D23*
X347662500Y-142875000D03*
X341312500Y-140335000D03*
%TD*%
D24*
%TO.C,MX102*%
X359092500Y-137795000D03*
D25*
X364172500Y-137795000D03*
D24*
X369252500Y-137795000D03*
D23*
X366712500Y-142875000D03*
X360362500Y-140335000D03*
%TD*%
D24*
%TO.C,MX103*%
X392430000Y-137795000D03*
D25*
X397510000Y-137795000D03*
D24*
X402590000Y-137795000D03*
D23*
X400050000Y-142875000D03*
X393700000Y-140335000D03*
%TD*%
D24*
%TO.C,MX104*%
X421005000Y-137795000D03*
D25*
X426085000Y-137795000D03*
D24*
X431165000Y-137795000D03*
D23*
X428625000Y-142875000D03*
X422275000Y-140335000D03*
%TD*%
D10*
%TO.C,J3*%
X51450000Y-18770000D03*
D24*
X53990000Y-18770000D03*
X56530000Y-18770000D03*
X59070000Y-18770000D03*
%TD*%
M02*
