M48
INCH
T1C0.0256
T2C0.0669
T3C0.1575
%
G90
G05
T1
X17.5835Y-1.2366
X17.811Y-1.2366
T2
X1.2Y-1.3
X1.2Y-2.425
X1.2937Y-3.925
X1.2937Y-5.425
X1.3875Y-3.175
X1.6Y-1.3
X1.6Y-2.425
X1.6687Y-4.675
X1.6937Y-3.925
X1.6937Y-5.425
X1.7875Y-3.175
X1.95Y-2.425
X2.0688Y-4.675
X2.2312Y-5.425
X2.325Y-3.175
X2.35Y-2.425
X2.5125Y-3.925
X2.6313Y-5.425
X2.7Y-1.3
X2.7Y-2.425
X2.725Y-3.175
X2.8875Y-4.675
X2.9125Y-3.925
X3.075Y-3.175
X3.1Y-1.3
X3.1Y-2.425
X3.1687Y-5.425
X3.2625Y-3.925
X3.2875Y-4.675
X3.45Y-1.3
X3.45Y-2.425
X3.475Y-3.175
X3.5688Y-5.425
X3.6375Y-4.675
X3.6625Y-3.925
X3.825Y-3.175
X3.85Y-1.3
X3.85Y-2.425
X4.0125Y-3.925
X4.0375Y-4.675
X4.2Y-1.3
X4.2Y-2.425
X4.225Y-3.175
X4.3875Y-4.675
X4.4125Y-3.925
X4.575Y-3.175
X4.6Y-1.3
X4.6Y-2.425
X4.7625Y-3.925
X4.7875Y-4.675
X4.95Y-1.3
X4.95Y-2.425
X4.975Y-3.175
X5.1375Y-4.675
X5.1625Y-3.925
X5.325Y-3.175
X5.35Y-1.3
X5.35Y-2.425
X5.5125Y-3.925
X5.5375Y-4.675
X5.7Y-2.425
X5.725Y-3.175
X5.8875Y-4.675
X5.9125Y-3.925
X5.9813Y-5.425
X6.075Y-1.3
X6.075Y-3.175
X6.1Y-2.425
X6.2625Y-3.925
X6.2875Y-4.675
X6.3812Y-5.425
X6.45Y-2.425
X6.475Y-1.3
X6.475Y-3.175
X6.6375Y-4.675
X6.6625Y-3.925
X6.825Y-1.3
X6.825Y-3.175
X6.85Y-2.425
X7.0125Y-3.925
X7.0375Y-4.675
X7.2Y-2.425
X7.225Y-1.3
X7.225Y-3.175
X7.3875Y-4.675
X7.4125Y-3.925
X7.575Y-1.3
X7.575Y-3.175
X7.6Y-2.425
X7.7625Y-3.925
X7.7875Y-4.675
X7.95Y-2.425
X7.975Y-1.3
X7.975Y-3.175
X8.1375Y-4.675
X8.1625Y-3.925
X8.325Y-1.3
X8.325Y-3.175
X8.35Y-2.425
X8.5125Y-3.925
X8.5375Y-4.675
X8.7Y-2.425
X8.725Y-1.3
X8.725Y-3.175
X8.7937Y-5.425
X8.8875Y-4.675
X8.9125Y-3.925
X9.075Y-3.175
X9.1Y-2.425
X9.1937Y-5.425
X9.2625Y-3.925
X9.2875Y-4.675
X9.45Y-1.3
X9.45Y-2.425
X9.475Y-3.175
X9.6375Y-4.675
X9.6625Y-3.925
X9.7312Y-5.425
X9.825Y-3.175
X9.85Y-1.3
X9.85Y-2.425
X10.0125Y-3.925
X10.0375Y-4.675
X10.1312Y-5.425
X10.2Y-1.3
X10.2Y-2.425
X10.225Y-3.175
X10.4125Y-3.925
X10.575Y-3.175
X10.6Y-1.3
X10.6Y-2.425
X10.6687Y-5.425
X10.95Y-1.3
X10.975Y-3.175
X11.0437Y-4.675
X11.0687Y-5.425
X11.2312Y-3.925
X11.325Y-2.425
X11.35Y-1.3
X11.4437Y-4.675
X11.5125Y-3.175
X11.6062Y-5.425
X11.6312Y-3.925
X11.7Y-1.3
X11.725Y-2.425
X11.9125Y-3.175
X12.0062Y-5.425
X12.1Y-1.3
X12.6375Y-1.3
X12.6375Y-2.425
X12.6375Y-3.175
X12.6375Y-5.425
X13.0375Y-1.3
X13.0375Y-2.425
X13.0375Y-3.175
X13.0375Y-5.425
X13.3875Y-1.3
X13.3875Y-2.425
X13.3875Y-3.175
X13.3875Y-4.675
X13.3875Y-5.425
X13.7875Y-1.3
X13.7875Y-2.425
X13.7875Y-3.175
X13.7875Y-4.675
X13.7875Y-5.425
X14.1375Y-1.3
X14.1375Y-2.425
X14.1375Y-3.175
X14.1375Y-5.425
X14.5375Y-1.3
X14.5375Y-2.425
X14.5375Y-3.175
X14.5375Y-5.425
X15.075Y-2.425
X15.075Y-3.175
X15.075Y-3.925
X15.075Y-4.675
X15.45Y-5.425
X15.475Y-2.425
X15.475Y-3.175
X15.475Y-3.925
X15.475Y-4.675
X15.825Y-2.425
X15.825Y-3.175
X15.825Y-3.925
X15.825Y-4.675
X15.85Y-5.425
X16.225Y-2.425
X16.225Y-3.175
X16.225Y-3.925
X16.225Y-4.675
X16.575Y-2.425
X16.575Y-3.175
X16.575Y-3.925
X16.575Y-4.675
X16.575Y-5.425
X16.975Y-2.425
X16.975Y-3.175
X16.975Y-3.925
X16.975Y-4.675
X16.975Y-5.425
X17.325Y-2.425
X17.325Y-3.55
X17.325Y-5.05
X17.725Y-2.425
X17.725Y-3.55
X17.725Y-5.05
T3
X1.4Y-1.3
X1.4Y-2.425
X1.4937Y-3.925
X1.4937Y-5.425
X1.5875Y-3.175
X1.8687Y-4.675
X2.15Y-2.425
X2.4312Y-5.425
X2.525Y-3.175
X2.7125Y-3.925
X2.9Y-1.3
X2.9Y-2.425
X3.0875Y-4.675
X3.275Y-3.175
X3.3687Y-5.425
X3.4625Y-3.925
X3.65Y-1.3
X3.65Y-2.425
X3.8375Y-4.675
X4.025Y-3.175
X4.2125Y-3.925
X4.4Y-1.3
X4.4Y-2.425
X4.5875Y-4.675
X4.775Y-3.175
X4.9625Y-3.925
X5.15Y-1.3
X5.15Y-2.425
X5.3375Y-4.675
X5.525Y-3.175
X5.7125Y-3.925
X5.9Y-2.425
X6.0875Y-4.675
X6.1812Y-5.425
X6.275Y-1.3
X6.275Y-3.175
X6.4625Y-3.925
X6.65Y-2.425
X6.8375Y-4.675
X7.025Y-1.3
X7.025Y-3.175
X7.2125Y-3.925
X7.4Y-2.425
X7.5875Y-4.675
X7.775Y-1.3
X7.775Y-3.175
X7.9625Y-3.925
X8.15Y-2.425
X8.3375Y-4.675
X8.525Y-1.3
X8.525Y-3.175
X8.7125Y-3.925
X8.9Y-2.425
X8.9938Y-5.425
X9.0875Y-4.675
X9.275Y-3.175
X9.4625Y-3.925
X9.65Y-1.3
X9.65Y-2.425
X9.8375Y-4.675
X9.9313Y-5.425
X10.025Y-3.175
X10.2125Y-3.925
X10.4Y-1.3
X10.4Y-2.425
X10.775Y-3.175
X10.8688Y-5.425
X11.15Y-1.3
X11.2438Y-4.675
X11.4313Y-3.925
X11.525Y-2.425
X11.7125Y-3.175
X11.8063Y-5.425
X11.9Y-1.3
X12.8375Y-1.3
X12.8375Y-2.425
X12.8375Y-3.175
X12.8375Y-5.425
X13.5875Y-1.3
X13.5875Y-2.425
X13.5875Y-3.175
X13.5875Y-4.675
X13.5875Y-5.425
X14.3375Y-1.3
X14.3375Y-2.425
X14.3375Y-3.175
X14.3375Y-5.425
X15.275Y-2.425
X15.275Y-3.175
X15.275Y-3.925
X15.275Y-4.675
X15.65Y-5.425
X16.025Y-2.425
X16.025Y-3.175
X16.025Y-3.925
X16.025Y-4.675
X16.775Y-2.425
X16.775Y-3.175
X16.775Y-3.925
X16.775Y-4.675
X16.775Y-5.425
X17.525Y-2.425
X17.525Y-3.55
X17.525Y-5.05
M30
